<?xml version="1.0" encoding="UTF-8" standalone="no"?>
<!-- Created with Inkscape (http://www.inkscape.org/) -->

<svg
   xmlns:dc="http://purl.org/dc/elements/1.1/"
   xmlns:cc="http://creativecommons.org/ns#"
   xmlns:rdf="http://www.w3.org/1999/02/22-rdf-syntax-ns#"
   xmlns:svg="http://www.w3.org/2000/svg"
   xmlns="http://www.w3.org/2000/svg"
   xmlns:xlink="http://www.w3.org/1999/xlink"
   xmlns:sodipodi="http://sodipodi.sourceforge.net/DTD/sodipodi-0.dtd"
   xmlns:inkscape="http://www.inkscape.org/namespaces/inkscape"
   version="1.1"
   id="svg2"
   width="297mm"
   height="210mm"
   viewBox="0 0 1122.5197 793.70079"
   sodipodi:docname="2020_tricka_MRT_v3_zvlast_komponenty.svg"
   inkscape:version="0.92.3 (2405546, 2018-03-11)"
   inkscape:export-filename="/home/malajanka/nextcloudik/grafika/pirati/2020_tricka_MRT_NCH/2020_tricka_MRT.png"
   inkscape:export-xdpi="96"
   inkscape:export-ydpi="96">
  <metadata
     id="metadata8">
    <rdf:RDF>
      <cc:Work
         rdf:about="">
        <dc:format>image/svg+xml</dc:format>
        <dc:type
           rdf:resource="http://purl.org/dc/dcmitype/StillImage" />
        <dc:title></dc:title>
      </cc:Work>
    </rdf:RDF>
  </metadata>
  <defs
     id="defs6">
    <clipPath
       id="b">
      <use
         xlink:href="#a"
         overflow="visible"
         id="use5" />
    </clipPath>
    <clipPath
       id="b-3">
      <use
         xlink:href="#a"
         overflow="visible"
         id="use5-6" />
    </clipPath>
    <clipPath
       id="b-5">
      <use
         xlink:href="#a"
         overflow="visible"
         id="use5-3" />
    </clipPath>
    <clipPath
       id="b-6">
      <use
         xlink:href="#a"
         overflow="visible"
         id="use5-2" />
    </clipPath>
    <clipPath
       id="j">
      <use
         height="100%"
         width="100%"
         y="0"
         x="0"
         style="overflow:visible"
         xlink:href="#i"
         overflow="visible"
         id="use49" />
    </clipPath>
    <clipPath
       id="h">
      <use
         height="100%"
         width="100%"
         y="0"
         x="0"
         style="overflow:visible"
         xlink:href="#g"
         overflow="visible"
         id="use37" />
    </clipPath>
    <clipPath
       id="f">
      <use
         height="100%"
         width="100%"
         y="0"
         x="0"
         style="overflow:visible"
         xlink:href="#e"
         overflow="visible"
         id="use27" />
    </clipPath>
    <clipPath
       id="d">
      <use
         height="100%"
         width="100%"
         y="0"
         x="0"
         style="overflow:visible"
         xlink:href="#c"
         overflow="visible"
         id="use17" />
    </clipPath>
    <clipPath
       id="b-1">
      <use
         height="100%"
         width="100%"
         y="0"
         x="0"
         style="overflow:visible"
         xlink:href="#a"
         overflow="visible"
         id="use5-27" />
    </clipPath>
    <clipPath
       id="clipPath904">
      <use
         height="100%"
         width="100%"
         y="0"
         x="0"
         style="overflow:visible"
         xlink:href="#a"
         overflow="visible"
         id="use902" />
    </clipPath>
    <path
       inkscape:connector-curvature="0"
       id="g"
       d="M 2.716,4.385 H 168.049 V 51.1 H 2.716 Z" />
    <path
       inkscape:connector-curvature="0"
       id="i"
       d="M 2.716,4.385 H 168.049 V 51.1 H 2.716 Z" />
  </defs>
  <sodipodi:namedview
     pagecolor="#ffffff"
     bordercolor="#666666"
     borderopacity="1"
     objecttolerance="10"
     gridtolerance="10"
     guidetolerance="10"
     inkscape:pageopacity="0"
     inkscape:pageshadow="2"
     inkscape:window-width="1920"
     inkscape:window-height="1042"
     id="namedview4"
     showgrid="false"
     inkscape:zoom="0.12727922"
     inkscape:cx="42.161919"
     inkscape:cy="665.56193"
     inkscape:window-x="1920"
     inkscape:window-y="17"
     inkscape:window-maximized="1"
     inkscape:current-layer="svg2"
     showguides="true"
     inkscape:guide-bbox="true"
     units="mm">
    <sodipodi:guide
       position="586.70754,87.910571"
       orientation="1,0"
       id="guide868"
       inkscape:locked="false" />
    <sodipodi:guide
       position="-2037.232,-1330.1252"
       orientation="1,0"
       id="guide1120"
       inkscape:locked="false" />
    <sodipodi:guide
       position="1861.4109,1173.415"
       orientation="0,1"
       id="guide1122"
       inkscape:locked="false" />
  </sodipodi:namedview>
  <rect
     style="opacity:1;fill:#040404;fill-opacity:1;stroke:none;stroke-width:8.77298737;stroke-miterlimit:4;stroke-dasharray:none;stroke-opacity:1"
     id="rect983"
     width="1486.0154"
     height="1394.521"
     x="-2355.7141"
     y="-777.836"
     inkscape:export-xdpi="300"
     inkscape:export-ydpi="300" />
  <path
     style="opacity:1;fill:none;stroke:#e9e9e9;stroke-width:14.49221706;stroke-linecap:butt;stroke-linejoin:miter;stroke-miterlimit:4;stroke-dasharray:none;stroke-opacity:1"
     d="m -1781.5791,271.42021 -9.8027,-92.14478 107.829,-19.60527 286.237,-174.48692 60.7763,-109.78953 111.7501,35.28949"
     id="path4528"
     inkscape:connector-curvature="0"
     inkscape:export-xdpi="300"
     inkscape:export-ydpi="300" />
  <path
     style="opacity:1;fill:none;stroke:#dfdfdf;stroke-width:17.12716484;stroke-linecap:butt;stroke-linejoin:miter;stroke-miterlimit:4;stroke-dasharray:none;stroke-opacity:1"
     d="m -1918.816,-361.83008 56.8553,101.94741 3.921,229.38169 86.2632,47.05266 298.0001,-186.25009 -3.921,-115.67111 -203.8949,-86.26319 -68.6184,-88.22373"
     id="path3721"
     inkscape:connector-curvature="0"
     inkscape:export-xdpi="300"
     inkscape:export-ydpi="300" />
  <circle
     style="opacity:1;fill:#ffffff;fill-opacity:1;stroke-width:18.27995682;stroke-miterlimit:4;stroke-dasharray:none"
     id="path4530"
     cx="-1756.1982"
     cy="-77.765633"
     r="12.240048"
     inkscape:export-xdpi="300"
     inkscape:export-ydpi="300" />
  <circle
     style="opacity:1;fill:#ffffff;fill-opacity:1;stroke-width:18.27995682;stroke-miterlimit:4;stroke-dasharray:none"
     id="path4530-3"
     cx="-1726.1545"
     cy="-87.223885"
     r="12.240048"
     inkscape:export-xdpi="300"
     inkscape:export-ydpi="300" />
  <circle
     style="opacity:1;fill:#ffffff;fill-opacity:1;stroke-width:18.27995682;stroke-miterlimit:4;stroke-dasharray:none"
     id="path4530-6"
     cx="-1748.9656"
     cy="-108.36573"
     r="12.240048"
     inkscape:export-xdpi="300"
     inkscape:export-ydpi="300" />
  <circle
     style="opacity:1;fill:#ffffff;fill-opacity:1;stroke-width:18.27995682;stroke-miterlimit:4;stroke-dasharray:none"
     id="path4530-6-7"
     cx="-1654.9397"
     cy="-269.15546"
     r="12.240048"
     inkscape:export-xdpi="300"
     inkscape:export-ydpi="300" />
  <circle
     style="opacity:1;fill:#ffffff;fill-opacity:1;stroke-width:18.27995682;stroke-miterlimit:4;stroke-dasharray:none"
     id="path4530-6-5"
     cx="-1648.2633"
     cy="-236.88623"
     r="12.240048"
     inkscape:export-xdpi="300"
     inkscape:export-ydpi="300" />
  <circle
     style="opacity:1;fill:#ffffff;fill-opacity:1;stroke-width:18.27995682;stroke-miterlimit:4;stroke-dasharray:none"
     id="path4530-6-3"
     cx="-1622.6705"
     cy="-260.25363"
     r="12.240048"
     inkscape:export-xdpi="300"
     inkscape:export-ydpi="300" />
  <circle
     style="opacity:1;fill:#ffffff;fill-opacity:1;stroke-width:18.27995682;stroke-miterlimit:4;stroke-dasharray:none"
     id="path4530-6-56"
     cx="-1660.5034"
     cy="1.7947334"
     r="12.240048"
     inkscape:export-xdpi="300"
     inkscape:export-ydpi="300" />
  <circle
     style="opacity:1;fill:#ffffff;fill-opacity:1;stroke-width:18.27995682;stroke-miterlimit:4;stroke-dasharray:none"
     id="path4530-6-2"
     cx="-1544.6013"
     cy="-24.866339"
     r="12.240048"
     inkscape:export-xdpi="300"
     inkscape:export-ydpi="300" />
  <circle
     style="opacity:1;fill:#ffffff;fill-opacity:1;stroke-width:18.27995682;stroke-miterlimit:4;stroke-dasharray:none"
     id="path4530-6-9"
     cx="-1483.0227"
     cy="-112.81666"
     r="12.240048"
     inkscape:export-xdpi="300"
     inkscape:export-ydpi="300" />
  <path
     style="opacity:1;fill:#040404;fill-opacity:1;stroke:#d8d8d8;stroke-width:9.21902657;stroke-linecap:butt;stroke-linejoin:miter;stroke-miterlimit:4;stroke-dasharray:none;stroke-opacity:1"
     d="m -1655.5257,80.35358 -14.4098,19.64983 -31.4397,3.92996 41.9195,91.69921 47.1597,-2.61998 14.4098,-35.36969 z"
     id="path835"
     inkscape:connector-curvature="0"
     sodipodi:nodetypes="ccccccc"
     inkscape:export-xdpi="300"
     inkscape:export-ydpi="300" />
  <circle
     style="opacity:1;fill:#ffffff;fill-opacity:1;stroke-width:18.27995682;stroke-miterlimit:4;stroke-dasharray:none"
     id="path4530-6-1"
     cx="-1664.3979"
     cy="41.296688"
     r="12.240048"
     inkscape:export-xdpi="300"
     inkscape:export-ydpi="300" />
  <circle
     style="opacity:1;fill:#ffffff;fill-opacity:1;stroke-width:18.27995682;stroke-miterlimit:4;stroke-dasharray:none"
     id="path4530-6-27"
     cx="-1409.026"
     cy="-114.48579"
     r="12.240048"
     inkscape:export-xdpi="300"
     inkscape:export-ydpi="300" />
  <path
     style="opacity:1;fill:#040404;fill-opacity:1;stroke:#d8d8d8;stroke-width:9.21902657;stroke-linecap:butt;stroke-linejoin:miter;stroke-miterlimit:4;stroke-dasharray:none;stroke-opacity:1"
     d="m -1521.1372,0.37227022 -12.6792,20.80861978 -30.9893,6.60051 49.5975,87.78435 46.7636,-6.63775 11.3367,-36.47106 z"
     id="path835-3"
     inkscape:connector-curvature="0"
     sodipodi:nodetypes="ccccccc"
     inkscape:export-xdpi="300"
     inkscape:export-ydpi="300" />
  <circle
     style="opacity:1;fill:#ffffff;fill-opacity:1;stroke-width:18.27995682;stroke-miterlimit:4;stroke-dasharray:none"
     id="path4530-6-1-3"
     cx="-1677.1052"
     cy="87.096733"
     r="12.240048"
     inkscape:export-xdpi="300"
     inkscape:export-ydpi="300" />
  <path
     style="opacity:1;fill:#040404;fill-opacity:1;stroke:#d8d8d8;stroke-width:9.21902657;stroke-linecap:butt;stroke-linejoin:miter;stroke-miterlimit:4;stroke-dasharray:none;stroke-opacity:1"
     d="m -1414.1323,-62.92175 -14.4098,19.64984 -31.4397,3.92996 41.9197,91.6992 47.1595,-2.61998 14.4098,-35.36968 z"
     id="path835-6"
     inkscape:connector-curvature="0"
     sodipodi:nodetypes="ccccccc"
     inkscape:export-xdpi="300"
     inkscape:export-ydpi="300" />
  <path
     style="opacity:1;fill:#ffffff;fill-opacity:1;stroke:none;stroke-width:1.81152713;stroke-miterlimit:4;stroke-dasharray:none;stroke-opacity:1"
     d="m -1516.8296,478.83991 c -4.137,-4.137 -4.5202,-12.7135 -0.7058,-15.7968 2.5496,-2.0611 319.2797,-185.39555 330.6709,-191.40401 9.8417,-5.19104 19.8254,1.34307 16.7685,10.97455 -1.2016,3.78558 -336.9116,199.67676 -342.1977,199.67676 -0.5969,0 -2.6382,-1.5527 -4.5359,-3.4505 z m -216.5413,-80.9665 c -289.3373,-166.07664 -301.7887,-173.5203 -302.509,-180.84515 -0.5535,-5.62721 0.3548,-7.45896 4.6743,-9.42703 4.8871,-2.22675 20.0911,6.04341 171.9586,93.53626 91.6285,52.78842 168.3266,97.51032 170.44,99.38202 2.1133,1.8717 3.8425,5.073 3.8425,7.114 0,3.9063 -6.5406,10.979 -10.1529,10.979 -1.1671,0 -18.3813,-9.3326 -38.2535,-20.7391 z m -61.383,-113.27846 c -214.874,-124.25108 -230.0992,-133.30014 -232.8139,-138.37271 -1.4694,-2.74547 -2.1797,-82.04861 -2.0849,-232.77325 l 0.1436,-228.60907 8.1369,-8.40826 c 5.4979,-5.68119 65.8221,-41.67026 185.996,-110.96419 97.8224,-56.40575 185.0578,-106.88266 193.8564,-112.17092 8.7986,-5.28828 17.8642,-9.61503 20.1459,-9.61503 2.2817,0 92.143,50.88744 199.6917,113.0832 107.5489,62.19577 196.4721,113.08321 197.6074,113.08321 1.1352,0 4.1208,3.32799 6.6347,7.39549 4.5547,7.36976 4.5706,8.20209 4.5706,239.07231 0,182.70121 -0.5801,232.14307 -2.7448,233.88252 -6.891,5.5378 -403.8727,233.25386 -406.2641,233.04076 -1.4859,-0.1324 -79.28,-44.52232 -172.8755,-98.64406 z m 367.7949,-38.01088 191.0337,-110.34629 0.5595,-222.05902 0.5592,-222.05904 -6.0488,-4.18249 c -14.8997,-10.30242 -379.3534,-218.9276 -381.3477,-218.29577 -1.2296,0.38961 -87.9857,50.16227 -192.7913,110.60595 l -190.5555,109.89758 v 223.16713 223.16715 l 190.4848,110.12769 c 104.7668,60.57022 191.9671,110.17173 193.7786,110.22555 1.8115,0.0539 89.2589,-49.55798 194.3275,-110.24844 z m -190.877,67.57151 c -4.1369,-4.13693 -4.5201,-12.71345 -0.7057,-15.7968 2.5496,-2.06107 319.2797,-185.3955 330.6709,-191.40396 9.8417,-5.19105 19.8253,1.34307 16.7683,10.97454 -1.2014,3.78559 -336.9114,199.67675 -342.1976,199.67675 -0.5968,0 -2.6381,-1.55272 -4.5359,-3.45053 z m -351.3588,-201.24657 c -5.1979,-7.42095 -5.1979,-386.84414 0,-394.26511 4.0007,-5.71178 10.218,-6.30084 15.0892,-1.42962 3.0849,3.08501 3.4505,24.09899 3.4505,198.3787 0,186.05463 -0.1829,195.09362 -4.0155,198.5622 -5.5034,4.98048 -10.4608,4.55517 -14.5242,-1.24617 z m 646.4368,-408.90541 c -289.3373,-166.07661 -301.7887,-173.52026 -302.5091,-180.84512 -0.5535,-5.62722 0.3548,-7.45896 4.6743,-9.42705 4.8871,-2.22673 20.0911,6.04343 171.9585,93.53628 91.6285,52.78842 168.3266,97.51035 170.44,99.38202 2.1136,1.87169 3.8428,5.073 3.8428,7.11402 0,3.90627 -6.5408,10.97894 -10.1532,10.97894 -1.1671,0 -18.381,-9.3326 -38.2533,-20.73909 z m 170.3973,411.10121 c -3.0307,-4.3267 -3.4182,-26.68293 -3.4182,-197.13255 0,-170.44962 0.3875,-192.80587 3.4182,-197.13256 4.0007,-5.71178 10.218,-6.30085 15.0892,-1.42964 3.0851,3.08502 3.4505,24.09899 3.4505,198.37871 0,186.05462 -0.183,195.09361 -4.0155,198.56219 -5.5034,4.9805 -10.4608,4.55517 -14.5242,-1.24615 z m -1014.4553,-4.39158 c -3.0305,-4.3267 -3.4181,-26.68294 -3.4181,-197.13256 0,-170.44962 0.3876,-192.80585 3.4181,-197.13255 4.0007,-5.71178 10.218,-6.30084 15.0892,-1.42964 3.0851,3.08503 3.4506,24.099 3.4506,198.37872 0,186.0546 -0.1828,195.0936 -4.0156,198.56218 -5.5034,4.9805 -10.4608,4.55516 -14.5242,-1.24615 z m 129.584,-490.42743 c -4.1369,-4.13693 -4.5201,-12.71345 -0.7058,-15.7968 2.5498,-2.06109 319.2798,-185.3955 330.671,-191.40394 9.8417,-5.19107 19.8253,1.34305 16.7684,10.97452 -1.2015,3.78559 -336.9116,199.67675 -342.1976,199.67675 -0.597,0 -2.6382,-1.55272 -4.536,-3.45053 z m 830.8508,-78.77068 c -289.3371,-166.07661 -301.7886,-173.52027 -302.5089,-180.84513 -0.5535,-5.62723 0.3547,-7.45897 4.6742,-9.42706 4.8872,-2.22673 20.0912,6.04344 171.9586,93.53628 91.6285,52.78842 168.3266,97.51035 170.44,99.38202 2.1134,1.8717 3.8425,5.073 3.8425,7.11402 0,3.90629 -6.5406,10.97895 -10.1529,10.97895 -1.1671,0 -18.3812,-9.33259 -38.2535,-20.73908 z"
     id="path1514"
     inkscape:connector-curvature="0"
     inkscape:export-xdpi="300"
     inkscape:export-ydpi="300" />
  <flowRoot
     xml:space="preserve"
     id="flowRoot908"
     style="fill:black;fill-opacity:1;stroke:none;font-family:alagambe;font-style:normal;font-weight:normal;font-size:40px;line-height:1.25;letter-spacing:0px;word-spacing:0px;-inkscape-font-specification:alagambe;font-stretch:normal;font-variant:normal"><flowRegion
       id="flowRegion910"><rect
         id="rect912"
         width="3.8221989"
         height="82.177277"
         x="984.21619"
         y="954.23315" /></flowRegion><flowPara
       id="flowPara914" /></flowRoot>  <rect
     style="opacity:1;fill:#040404;fill-opacity:1;stroke:none;stroke-width:8.63720036;stroke-miterlimit:4;stroke-dasharray:none;stroke-opacity:1"
     id="rect983-4"
     width="2038.3073"
     height="985.43927"
     x="915.88043"
     y="508.66022"
     inkscape:export-xdpi="300"
     inkscape:export-ydpi="300" />
  <rect
     style="opacity:1;fill:#000000;fill-opacity:1;stroke:none;stroke-width:1.25063419;stroke-miterlimit:4;stroke-dasharray:none;stroke-opacity:1"
     id="rect852-6"
     width="883.86963"
     height="827.06061"
     x="1233.7407"
     y="-867.66431"
     inkscape:export-xdpi="300"
     inkscape:export-ydpi="300" />
  <flowRoot
     xml:space="preserve"
     id="flowRoot854-8"
     style="font-style:normal;font-variant:normal;font-weight:normal;font-stretch:normal;font-size:133.33332825px;line-height:1.25;font-family:'Bebas Neue';-inkscape-font-specification:'Bebas Neue';text-align:center;letter-spacing:0px;word-spacing:0px;text-anchor:middle;fill:#ffffff;fill-opacity:1;stroke:none"
     transform="matrix(1.8719151,0,0,1.8719151,783.78747,-715.66659)"
     inkscape:export-xdpi="300"
     inkscape:export-ydpi="300"><flowRegion
       id="flowRegion856-3"
       style="font-style:normal;font-variant:normal;font-weight:normal;font-stretch:normal;font-size:133.33332825px;font-family:'Bebas Neue';-inkscape-font-specification:'Bebas Neue';text-align:center;text-anchor:middle;fill:#ffffff"><rect
         id="rect858-3"
         width="812.21722"
         height="365.01999"
         x="196.84323"
         y="761.2121"
         style="font-style:normal;font-variant:normal;font-weight:normal;font-stretch:normal;font-size:133.33332825px;font-family:'Bebas Neue';-inkscape-font-specification:'Bebas Neue';text-align:center;text-anchor:middle;fill:#ffffff" /></flowRegion><flowPara
       id="flowPara860-3">Meziresortní tým </flowPara><flowPara
       id="flowPara862-8">návykové Chování</flowPara></flowRoot>  <path
     clip-path="url(#b)"
     d="m 24.691,7.159 c -5.866,0 -11.384,2.289 -15.542,6.438 -4.147,4.149 -6.435,9.669 -6.435,15.535 0,5.876 2.287,11.396 6.435,15.539 4.158,4.147 9.675,6.429 15.542,6.429 5.87,0 11.384,-2.281 15.531,-6.429 4.158,-4.144 6.44,-9.663 6.44,-15.539 0,-5.866 -2.282,-11.386 -6.44,-15.535 -4.146,-4.15 -9.66,-6.438 -15.531,-6.438 m 0,41.857 c -10.965,0 -19.885,-8.915 -19.885,-19.884 0,-10.962 8.919,-19.88 19.885,-19.88 10.961,0 19.883,8.918 19.883,19.88 0.001,10.969 -8.922,19.884 -19.883,19.884"
     id="path8"
     inkscape:connector-curvature="0" />
  <path
     clip-path="url(#b-3)"
     d="m 24.691,7.159 c -5.866,0 -11.384,2.289 -15.542,6.438 -4.147,4.149 -6.435,9.669 -6.435,15.535 0,5.876 2.287,11.396 6.435,15.539 4.158,4.147 9.675,6.429 15.542,6.429 5.87,0 11.384,-2.281 15.531,-6.429 4.158,-4.144 6.44,-9.663 6.44,-15.539 0,-5.866 -2.282,-11.386 -6.44,-15.535 -4.146,-4.15 -9.66,-6.438 -15.531,-6.438 m 0,41.857 c -10.965,0 -19.885,-8.915 -19.885,-19.884 0,-10.962 8.919,-19.88 19.885,-19.88 10.961,0 19.883,8.918 19.883,19.88 0.001,10.969 -8.922,19.884 -19.883,19.884"
     id="path8-7"
     inkscape:connector-curvature="0" />
  <path
     clip-path="url(#b-5)"
     d="m 24.691,7.159 c -5.866,0 -11.384,2.289 -15.542,6.438 -4.147,4.149 -6.435,9.669 -6.435,15.535 0,5.876 2.287,11.396 6.435,15.539 4.158,4.147 9.675,6.429 15.542,6.429 5.87,0 11.384,-2.281 15.531,-6.429 4.158,-4.144 6.44,-9.663 6.44,-15.539 0,-5.866 -2.282,-11.386 -6.44,-15.535 -4.146,-4.15 -9.66,-6.438 -15.531,-6.438 m 0,41.857 c -10.965,0 -19.885,-8.915 -19.885,-19.884 0,-10.962 8.919,-19.88 19.885,-19.88 10.961,0 19.883,8.918 19.883,19.88 0.001,10.969 -8.922,19.884 -19.883,19.884"
     id="path8-5"
     inkscape:connector-curvature="0" />
  <path
     clip-path="url(#b-6)"
     d="m 24.691,7.159 c -5.866,0 -11.384,2.289 -15.542,6.438 -4.147,4.149 -6.435,9.669 -6.435,15.535 0,5.876 2.287,11.396 6.435,15.539 4.158,4.147 9.675,6.429 15.542,6.429 5.87,0 11.384,-2.281 15.531,-6.429 4.158,-4.144 6.44,-9.663 6.44,-15.539 0,-5.866 -2.282,-11.386 -6.44,-15.535 -4.146,-4.15 -9.66,-6.438 -15.531,-6.438 m 0,41.857 c -10.965,0 -19.885,-8.915 -19.885,-19.884 0,-10.962 8.919,-19.88 19.885,-19.88 10.961,0 19.883,8.918 19.883,19.88 0.001,10.969 -8.922,19.884 -19.883,19.884"
     id="path8-9"
     inkscape:connector-curvature="0" />
  <path
     style="fill:#ffffff;stroke-width:0.79346341"
     d="m 1654.5721,-219.08354 c -43.9286,-3.90094 -85.0325,-19.59981 -120.2905,-45.94274 -69.6919,-52.06997 -104.7947,-137.93784 -91.6475,-224.18585 11.4434,-75.07184 59.0729,-140.40082 127.1649,-174.42043 32.3642,-16.16952 63.6348,-23.87992 100.459,-24.76992 48.2192,-1.1655 95.1326,12.37607 134.8888,38.93542 34.676,23.16594 62.9842,55.34317 80.9525,92.01707 17.6508,36.02612 24.849,68.96133 23.9316,109.49796 -0.6068,26.81279 -3.5352,44.13042 -11.6071,68.64217 -27.4586,83.38041 -99.5397,144.53264 -186.509,158.23052 -17.0255,2.68153 -40.4426,3.49659 -57.3427,1.9958 z m 41.4734,-22.53883 c 49.855,-5.32441 94.0857,-26.28436 128.9645,-61.11374 25.5278,-25.49149 41.9835,-52.43523 53.0897,-86.9263 6.9586,-21.61111 9.5754,-39.22793 9.5417,-64.24061 -0.048,-34.99522 -6.8638,-63.99322 -22.2152,-94.50442 -18.4328,-36.63479 -45.7462,-66.08303 -81.1858,-87.53106 -42.8294,-25.9203 -94.9556,-35.57273 -145.7211,-26.98371 -79.2615,13.41025 -145.5865,73.19713 -168.0603,151.49309 -18.947,66.009 -4.0116,138.39112 39.6225,192.02355 7.8401,9.63656 25.2272,26.74312 34.4125,33.85749 32.9855,25.54867 73.7274,41.31802 115.0521,44.53179 9.2573,0.71994 26.8129,0.42844 36.4994,-0.60608 z m -107.3969,-44.6329 c -3.8804,-9.95759 -8.668,-27.02567 -10.5239,-37.51976 -1.0507,-5.93938 -1.4664,-12.09024 -1.4487,-21.42352 0.028,-14.54287 1.1049,-21.08291 4.8577,-29.49946 l 2.2367,-5.01619 0.2034,-98.96788 0.2057,-98.96792 -2.171,-0.54494 c -1.1942,-0.29971 -5.9283,-0.17507 -10.5197,0.27691 -4.5916,0.45203 -8.5269,0.6549 -8.7451,0.45088 -0.9051,-0.84644 5.2217,-4.90558 10.5468,-6.98738 3.1456,-1.22972 6.8798,-2.69047 8.2981,-3.24609 l 2.5788,-1.01022 v -18.68685 -18.68689 h 9.9183 9.9183 v 16.26601 c 0,13.60022 0.1859,16.266 1.1381,16.266 0.6261,0 3.611,-0.52015 6.6331,-1.15589 19.7034,-4.14475 54.2981,-6.53462 76.1375,-5.25975 78.1383,4.56138 123.6182,34.57952 135.9471,89.72929 2.3518,10.52056 3.5656,28.50466 2.5049,37.11898 -3.5131,28.53363 -23.4428,47.80323 -63.2712,61.17542 -15.7539,5.28924 -26.4306,7.92338 -53.5588,13.21384 -58.9772,11.50148 -65.0792,12.91174 -78.0547,18.03905 -16.584,6.55347 -29.726,19.26258 -36.7728,35.56179 -5.2742,12.19942 -6.0772,16.79089 -6.0931,34.84368 -0.025,13.9997 0.228,17.30774 1.7313,23.74299 0.9604,4.11231 1.6422,7.58072 1.5155,7.70755 -0.1262,0.12687 -1.5722,-3.21202 -3.2119,-7.41965 z m 30.0162,-125.5821 c 16.8184,-10.77724 25.8995,-17.72768 33.478,-25.62339 10.8554,-11.30905 15.605,-19.968 18.6202,-33.94558 2.5845,-11.98128 2.6328,-33.74601 0.097,-43.76546 -4.4397,-17.54314 -14.0023,-31.72706 -28.7703,-42.6732 -9.0843,-6.73337 -26.0565,-14.60708 -35.1107,-16.2885 l -2.9755,-0.55258 v 85.86725 c 0,68.36804 0.2034,85.78959 0.9918,85.48619 0.5455,-0.20952 6.6967,-4.03672 13.6693,-8.50473 z"
     id="path817"
     inkscape:connector-curvature="0"
     inkscape:export-xdpi="300"
     inkscape:export-ydpi="300" />
</svg>
