<?xml version="1.0" encoding="UTF-8" standalone="no"?>
<!-- Created with Inkscape (http://www.inkscape.org/) -->

<svg
   xmlns:dc="http://purl.org/dc/elements/1.1/"
   xmlns:cc="http://creativecommons.org/ns#"
   xmlns:rdf="http://www.w3.org/1999/02/22-rdf-syntax-ns#"
   xmlns:svg="http://www.w3.org/2000/svg"
   xmlns="http://www.w3.org/2000/svg"
   xmlns:xlink="http://www.w3.org/1999/xlink"
   xmlns:sodipodi="http://sodipodi.sourceforge.net/DTD/sodipodi-0.dtd"
   xmlns:inkscape="http://www.inkscape.org/namespaces/inkscape"
   width="744.09448819"
   height="1052.3622047"
   id="svg2"
   version="1.1"
   inkscape:version="0.48.4 r9939"
   inkscape:export-filename="/home/malajanka/Downloads/Jankaaaaa/grafika_pirati/FILTRY_SRPEN2015_kanabinoidy/filtry_kanabinoidy_zadnistrana_slogama.png"
   inkscape:export-xdpi="171.04378"
   inkscape:export-ydpi="171.04378"
   sodipodi:docname="filtry_kanabinoidy_zadnistrana_slogama.svg">
  <defs
     id="defs4">
    <clipPath
       id="SVGID_2_">
      <use
         height="1052.3622"
         width="744.09448"
         y="0"
         x="0"
         style="overflow:visible"
         id="use246"
         overflow="visible"
         xlink:href="#SVGID_1_" />
    </clipPath>
    <clipPath
       id="clipPath3435">
      <use
         height="1052.3622"
         width="744.09448"
         y="0"
         x="0"
         style="overflow:visible"
         id="use3437"
         overflow="visible"
         xlink:href="#SVGID_1_" />
    </clipPath>
    <clipPath
       id="SVGID_4_">
      <use
         height="1052.3622"
         width="744.09448"
         y="0"
         x="0"
         style="overflow:visible"
         id="use270"
         overflow="visible"
         xlink:href="#SVGID_3_" />
    </clipPath>
    <clipPath
       id="SVGID_6_">
      <use
         height="1052.3622"
         width="744.09448"
         y="0"
         x="0"
         style="overflow:visible"
         id="use280"
         overflow="visible"
         xlink:href="#SVGID_5_" />
    </clipPath>
    <clipPath
       id="clipPath3443">
      <use
         height="1052.3622"
         width="744.09448"
         y="0"
         x="0"
         style="overflow:visible"
         id="use3445"
         overflow="visible"
         xlink:href="#SVGID_5_" />
    </clipPath>
    <clipPath
       id="clipPath3447">
      <use
         height="1052.3622"
         width="744.09448"
         y="0"
         x="0"
         style="overflow:visible"
         id="use3449"
         overflow="visible"
         xlink:href="#SVGID_5_" />
    </clipPath>
    <clipPath
       id="clipPath3451">
      <use
         height="1052.3622"
         width="744.09448"
         y="0"
         x="0"
         style="overflow:visible"
         id="use3453"
         overflow="visible"
         xlink:href="#SVGID_5_" />
    </clipPath>
    <clipPath
       id="SVGID_8_">
      <use
         height="1052.3622"
         width="744.09448"
         y="0"
         x="0"
         style="overflow:visible"
         id="use296"
         overflow="visible"
         xlink:href="#SVGID_7_" />
    </clipPath>
    <clipPath
       id="clipPath3457">
      <use
         height="1052.3622"
         width="744.09448"
         y="0"
         x="0"
         style="overflow:visible"
         id="use3459"
         overflow="visible"
         xlink:href="#SVGID_7_" />
    </clipPath>
    <clipPath
       id="clipPath3461">
      <use
         height="1052.3622"
         width="744.09448"
         y="0"
         x="0"
         style="overflow:visible"
         id="use3463"
         overflow="visible"
         xlink:href="#SVGID_7_" />
    </clipPath>
  </defs>
  <sodipodi:namedview
     id="base"
     pagecolor="#ffffff"
     bordercolor="#666666"
     borderopacity="1.0"
     inkscape:pageopacity="0.0"
     inkscape:pageshadow="2"
     inkscape:zoom="0.62"
     inkscape:cx="284.73667"
     inkscape:cy="132.14515"
     inkscape:document-units="px"
     inkscape:current-layer="layer1"
     showgrid="false"
     showguides="false"
     inkscape:guide-bbox="true"
     inkscape:window-width="1366"
     inkscape:window-height="716"
     inkscape:window-x="0"
     inkscape:window-y="0"
     inkscape:window-maximized="1">
    <sodipodi:guide
       orientation="1,0"
       position="34,992"
       id="guide3165" />
    <sodipodi:guide
       orientation="1,0"
       position="714,1000"
       id="guide3167" />
    <sodipodi:guide
       orientation="1,0"
       position="360.56338,1076.0563"
       id="guide3175" />
  </sodipodi:namedview>
  <metadata
     id="metadata7">
    <rdf:RDF>
      <cc:Work
         rdf:about="">
        <dc:format>image/svg+xml</dc:format>
        <dc:type
           rdf:resource="http://purl.org/dc/dcmitype/StillImage" />
        <dc:title></dc:title>
      </cc:Work>
    </rdf:RDF>
  </metadata>
  <g
     inkscape:label="Layer 1"
     inkscape:groupmode="layer"
     id="layer1">
    <text
       xml:space="preserve"
       style="font-size:44px;font-style:normal;font-variant:normal;font-weight:bold;font-stretch:normal;text-align:start;line-height:125%;letter-spacing:0px;word-spacing:0px;text-anchor:start;fill:#1a1a1a;fill-opacity:1;stroke:none;font-family:FFF Tusj;-inkscape-font-specification:FFF Tusj Bold"
       x="36.445312"
       y="66.362183"
       id="text2985"
       sodipodi:linespacing="125%"><tspan
         sodipodi:role="line"
         x="36.445312"
         y="66.362183"
         id="tspan2993">Z programového bodu</tspan><tspan
         sodipodi:role="line"
         x="36.445312"
         y="121.36218"
         id="tspan3163">Psychotropní látky</tspan></text>
    <text
       xml:space="preserve"
       style="font-size:19px;font-style:normal;font-variant:normal;font-weight:normal;font-stretch:normal;text-align:center;line-height:117.99999475%;letter-spacing:0px;word-spacing:0px;text-anchor:middle;fill:#1a1a1a;fill-opacity:1;stroke:none;font-family:'M+ 1mn';-inkscape-font-specification:'M+ 1mn'"
       x="34.424446"
       y="161.12096"
       id="text2995"
       sodipodi:linespacing="117.99999%"><tspan
         sodipodi:role="line"
         id="tspan2997"
         x="34.424446"
         y="161.12096"
         style="font-size:19px;font-style:normal;font-variant:normal;font-weight:normal;font-stretch:normal;text-align:start;line-height:117.99999475%;text-anchor:start;fill:#1a1a1a;font-family:'M+ 1mn';-inkscape-font-specification:'M+ 1mn'">Pirátská strana považuje za nezbytné opustit předsudky týkající se </tspan><tspan
         sodipodi:role="line"
         x="34.424446"
         y="183.54095"
         id="tspan3011"
         style="font-size:19px;font-style:normal;font-variant:normal;font-weight:normal;font-stretch:normal;text-align:start;line-height:117.99999475%;text-anchor:start;fill:#1a1a1a;font-family:'M+ 1mn';-inkscape-font-specification:'M+ 1mn'">psychotropních látek a začít je spravedlivě a efektivně regulovat. </tspan><tspan
         sodipodi:role="line"
         x="34.424446"
         y="205.96095"
         style="font-size:19px;font-style:normal;font-variant:normal;font-weight:normal;font-stretch:normal;text-align:start;line-height:117.99999475%;text-anchor:start;fill:#1a1a1a;font-family:'M+ 1mn';-inkscape-font-specification:'M+ 1mn'"
         id="tspan3049">Nová zákonná úprava musí respektovat základní lidská práva každého</tspan><tspan
         sodipodi:role="line"
         x="34.424446"
         y="228.38095"
         id="tspan3015"
         style="font-size:19px;font-style:normal;font-variant:normal;font-weight:normal;font-stretch:normal;text-align:start;line-height:117.99999475%;text-anchor:start;fill:#1a1a1a;font-family:'M+ 1mn';-inkscape-font-specification:'M+ 1mn'">dospělého člověka a nastavit takovou politiku psychotropních látek, </tspan><tspan
         sodipodi:role="line"
         x="34.424446"
         y="250.80095"
         id="tspan3013"
         style="font-size:19px;font-style:normal;font-variant:normal;font-weight:normal;font-stretch:normal;text-align:start;line-height:117.99999475%;text-anchor:start;fill:#1a1a1a;font-family:'M+ 1mn';-inkscape-font-specification:'M+ 1mn'">která zajistí nejen účinnou kontrolu tohoto odvětví, ale i funkční </tspan><tspan
         sodipodi:role="line"
         x="34.424446"
         y="273.22095"
         style="font-size:19px;font-style:normal;font-variant:normal;font-weight:normal;font-stretch:normal;text-align:start;line-height:117.99999475%;text-anchor:start;fill:#1a1a1a;font-family:'M+ 1mn';-inkscape-font-specification:'M+ 1mn'"
         id="tspan3097">systém prevence, regulace a pomoci, který předchází rizikům</tspan><tspan
         sodipodi:role="line"
         x="34.424446"
         y="295.64096"
         style="font-size:19px;font-style:normal;font-variant:normal;font-weight:normal;font-stretch:normal;text-align:start;line-height:117.99999475%;text-anchor:start;fill:#1a1a1a;font-family:'M+ 1mn';-inkscape-font-specification:'M+ 1mn'"
         id="tspan3131">spojeným s jejich užíváním a zmírňuje jeho následky.</tspan><tspan
         sodipodi:role="line"
         x="34.424446"
         y="318.06094"
         id="tspan2999"
         style="font-size:19px;font-style:normal;font-variant:normal;font-weight:normal;font-stretch:normal;text-align:start;line-height:117.99999475%;text-anchor:start;fill:#1a1a1a;font-family:'M+ 1mn';-inkscape-font-specification:'M+ 1mn'" /><tspan
         sodipodi:role="line"
         x="34.424446"
         y="340.48096"
         id="tspan3001"
         style="font-size:19px;font-style:normal;font-variant:normal;font-weight:normal;font-stretch:normal;text-align:start;line-height:117.99999475%;text-anchor:start;fill:#1a1a1a;font-family:'M+ 1mn';-inkscape-font-specification:'M+ 1mn'">Prosazujeme účinnou politiku státu v oblasti psychotropních látek, </tspan><tspan
         sodipodi:role="line"
         x="34.424446"
         y="362.90094"
         style="font-size:19px;font-style:normal;font-variant:normal;font-weight:normal;font-stretch:normal;text-align:start;line-height:117.99999475%;text-anchor:start;fill:#1a1a1a;font-family:'M+ 1mn';-inkscape-font-specification:'M+ 1mn'"
         id="tspan3073">kterou lze shrnout do tří bodů:</tspan><tspan
         sodipodi:role="line"
         x="34.424446"
         y="385.32095"
         id="tspan3003"
         style="font-size:19px;font-style:normal;font-variant:normal;font-weight:normal;font-stretch:normal;text-align:start;line-height:117.99999475%;text-anchor:start;fill:#1a1a1a;font-family:'M+ 1mn';-inkscape-font-specification:'M+ 1mn'" /><tspan
         sodipodi:role="line"
         x="34.424446"
         y="410.30356"
         style="font-size:22px;font-style:normal;font-variant:normal;font-weight:bold;font-stretch:normal;text-align:start;line-height:117.99999475%;text-anchor:start;fill:#1a1a1a;font-family:'M+ 2p';-inkscape-font-specification:'M+ 2p Bold'"
         id="tspan3051">Reforma </tspan><tspan
         sodipodi:role="line"
         x="34.424446"
         y="433.70096"
         id="tspan3017"
         style="font-size:19px;font-style:normal;font-variant:normal;font-weight:bold;font-stretch:normal;text-align:start;line-height:117.99999475%;text-anchor:start;fill:#1a1a1a;font-family:'M+ 1mn';-inkscape-font-specification:'M+ 1mn Bold'">Musí být umožněno věděcké zkoumání a léčebné využití látek, </tspan><tspan
         sodipodi:role="line"
         x="34.424446"
         y="456.12094"
         style="font-size:19px;font-style:normal;font-variant:normal;font-weight:bold;font-stretch:normal;text-align:start;line-height:117.99999475%;text-anchor:start;fill:#1a1a1a;font-family:'M+ 1mn';-inkscape-font-specification:'M+ 1mn Bold'"
         id="tspan3053">které jsou dnes nelegální a jejichž léčebný potenciál je prokázán. </tspan><tspan
         sodipodi:role="line"
         x="34.424446"
         y="478.54095"
         id="tspan3019"
         style="font-size:19px;font-style:normal;font-variant:normal;font-weight:bold;font-stretch:normal;text-align:start;line-height:117.99999475%;text-anchor:start;fill:#1a1a1a;font-family:'M+ 1mn';-inkscape-font-specification:'M+ 1mn Bold'">Dospělí lidé nesmí být postihováni za pěstování a držení těchto látek </tspan><tspan
         sodipodi:role="line"
         x="34.424446"
         y="500.96094"
         style="font-size:19px;font-style:normal;font-variant:normal;font-weight:bold;font-stretch:normal;text-align:start;line-height:117.99999475%;text-anchor:start;fill:#1a1a1a;font-family:'M+ 1mn';-inkscape-font-specification:'M+ 1mn Bold'"
         id="tspan3055">pro osobní potřebu. Musí být zaručena svoboda věcně a objektivně </tspan><tspan
         sodipodi:role="line"
         x="34.424446"
         y="523.38092"
         style="font-size:19px;font-style:normal;font-variant:normal;font-weight:bold;font-stretch:normal;text-align:start;line-height:117.99999475%;text-anchor:start;fill:#1a1a1a;font-family:'M+ 1mn';-inkscape-font-specification:'M+ 1mn Bold'"
         id="tspan3137">informovat o psychotropních látkách.</tspan><tspan
         sodipodi:role="line"
         x="34.424446"
         y="545.80096"
         id="tspan3033"
         style="font-size:19px;font-style:normal;font-variant:normal;font-weight:bold;font-stretch:normal;text-align:start;line-height:117.99999475%;text-anchor:start;fill:#1a1a1a;font-family:'M+ 1mn';-inkscape-font-specification:'M+ 1mn Bold'" /><tspan
         sodipodi:role="line"
         x="34.424446"
         y="570.78357"
         id="tspan3029"
         style="font-size:22px;font-style:normal;font-variant:normal;font-weight:bold;font-stretch:normal;text-align:start;line-height:117.99999475%;text-anchor:start;fill:#1a1a1a;font-family:'M+ 2p';-inkscape-font-specification:'M+ 2p Bold'">Regulace </tspan><tspan
         sodipodi:role="line"
         x="34.424446"
         y="594.18091"
         style="font-size:19px;font-style:normal;font-variant:normal;font-weight:bold;font-stretch:normal;text-align:start;line-height:117.99999475%;text-anchor:start;fill:#1a1a1a;font-family:'M+ 1mn';-inkscape-font-specification:'M+ 1mn Bold'"
         id="tspan3083">Legalizace pěstování a držení psychotropních látek pro osobní potřebu </tspan><tspan
         sodipodi:role="line"
         x="34.424446"
         y="616.60095"
         style="font-size:19px;font-style:normal;font-variant:normal;font-weight:bold;font-stretch:normal;text-align:start;line-height:117.99999475%;text-anchor:start;fill:#1a1a1a;font-family:'M+ 1mn';-inkscape-font-specification:'M+ 1mn Bold'"
         id="tspan3059">bude efektivním řešením v boji proti drogovým mafiím. </tspan><tspan
         sodipodi:role="line"
         x="34.424446"
         y="639.02094"
         id="tspan3025"
         style="font-size:19px;font-style:normal;font-variant:normal;font-weight:bold;font-stretch:normal;text-align:start;line-height:117.99999475%;text-anchor:start;fill:#1a1a1a;font-family:'M+ 1mn';-inkscape-font-specification:'M+ 1mn Bold'">Umožní se vznik registrovaných společenských klubů pěstitelů </tspan><tspan
         sodipodi:role="line"
         x="34.424446"
         y="661.44092"
         id="tspan3027"
         style="font-size:19px;font-style:normal;font-variant:normal;font-weight:bold;font-stretch:normal;text-align:start;line-height:117.99999475%;text-anchor:start;fill:#1a1a1a;font-family:'M+ 1mn';-inkscape-font-specification:'M+ 1mn Bold'">a uživatelů konopí. Neoprávněné nakládání s psychotropní látkou, </tspan><tspan
         sodipodi:role="line"
         x="34.424446"
         y="683.86096"
         id="tspan3035"
         style="font-size:19px;font-style:normal;font-variant:normal;font-weight:bold;font-stretch:normal;text-align:start;line-height:117.99999475%;text-anchor:start;fill:#1a1a1a;font-family:'M+ 1mn';-inkscape-font-specification:'M+ 1mn Bold'">například její prodej jiné osobě, poskytování nezletilým, užívání </tspan><tspan
         sodipodi:role="line"
         x="34.424446"
         y="706.28094"
         style="font-size:19px;font-style:normal;font-variant:normal;font-weight:bold;font-stretch:normal;text-align:start;line-height:117.99999475%;text-anchor:start;fill:#1a1a1a;font-family:'M+ 1mn';-inkscape-font-specification:'M+ 1mn Bold'"
         id="tspan3081">při činnosti, kde vliv psychotropní látky může způsobit obecné </tspan><tspan
         sodipodi:role="line"
         x="34.424446"
         y="728.70093"
         style="font-size:19px;font-style:normal;font-variant:normal;font-weight:bold;font-stretch:normal;text-align:start;line-height:117.99999475%;text-anchor:start;fill:#1a1a1a;font-family:'M+ 1mn';-inkscape-font-specification:'M+ 1mn Bold'"
         id="tspan3155">ohrožení, bude trestné.</tspan><tspan
         sodipodi:role="line"
         x="34.424446"
         y="751.12091"
         id="tspan3039"
         style="font-size:19px;font-style:normal;font-variant:normal;font-weight:bold;font-stretch:normal;text-align:start;line-height:117.99999475%;text-anchor:start;fill:#1a1a1a;font-family:'M+ 1mn';-inkscape-font-specification:'M+ 1mn Bold'" /><tspan
         sodipodi:role="line"
         x="34.424446"
         y="776.10358"
         id="tspan3009"
         style="font-size:22px;font-style:normal;font-variant:normal;font-weight:bold;font-stretch:normal;text-align:start;line-height:117.99999475%;text-anchor:start;fill:#1a1a1a;font-family:'M+ 2p';-inkscape-font-specification:'M+ 2p Bold'">Zdanění </tspan><tspan
         sodipodi:role="line"
         x="34.424446"
         y="799.50092"
         style="font-size:19px;font-style:normal;font-variant:normal;font-weight:bold;font-stretch:normal;text-align:start;line-height:117.99999475%;text-anchor:start;fill:#1a1a1a;font-family:'M+ 1mn';-inkscape-font-specification:'M+ 1mn Bold'"
         id="tspan3087">Obchod s drogami bude legalizován a zdaněn. Způsob výroby, prodeje </tspan><tspan
         sodipodi:role="line"
         x="34.424446"
         y="821.9209"
         style="font-size:19px;font-style:normal;font-variant:normal;font-weight:bold;font-stretch:normal;text-align:start;line-height:117.99999475%;text-anchor:start;fill:#1a1a1a;font-family:'M+ 1mn';-inkscape-font-specification:'M+ 1mn Bold'"
         id="tspan3063">a kontroly kvality budou stanoveny dle typu psychotropní látky. </tspan><tspan
         sodipodi:role="line"
         x="34.424446"
         y="844.34094"
         id="tspan3037"
         style="font-size:19px;font-style:normal;font-variant:normal;font-weight:bold;font-stretch:normal;text-align:start;line-height:117.99999475%;text-anchor:start;fill:#1a1a1a;font-family:'M+ 1mn';-inkscape-font-specification:'M+ 1mn Bold'">Povolení k obchodování s psychotropními látkami získá jen subjekt, </tspan><tspan
         sodipodi:role="line"
         x="34.424446"
         y="866.76093"
         style="font-size:19px;font-style:normal;font-variant:normal;font-weight:bold;font-stretch:normal;text-align:start;line-height:117.99999475%;text-anchor:start;fill:#1a1a1a;font-family:'M+ 1mn';-inkscape-font-specification:'M+ 1mn Bold'"
         id="tspan3065">který splní státem předepsané podmínky. </tspan><tspan
         sodipodi:role="line"
         x="34.424446"
         y="889.18091"
         id="tspan3041"
         style="font-size:19px;font-style:normal;font-variant:normal;font-weight:bold;font-stretch:normal;text-align:start;line-height:117.99999475%;text-anchor:start;fill:#1a1a1a;font-family:'M+ 1mn';-inkscape-font-specification:'M+ 1mn Bold'">Daň z prodeje psychotropní látky přinese do státního rozpočtu </tspan><tspan
         sodipodi:role="line"
         x="34.424446"
         y="911.60095"
         style="font-size:19px;font-style:normal;font-variant:normal;font-weight:bold;font-stretch:normal;text-align:start;line-height:117.99999475%;text-anchor:start;fill:#1a1a1a;font-family:'M+ 1mn';-inkscape-font-specification:'M+ 1mn Bold'"
         id="tspan3067">prostředky, ze kterých bude možné financovat léčbu závislých lidí</tspan><tspan
         sodipodi:role="line"
         x="34.424446"
         y="934.02094"
         id="tspan3043"
         style="font-size:19px;font-style:normal;font-variant:normal;font-weight:bold;font-stretch:normal;text-align:start;line-height:117.99999475%;text-anchor:start;fill:#1a1a1a;font-family:'M+ 1mn';-inkscape-font-specification:'M+ 1mn Bold'">nebo preventivní programy v oblasti ochrany veřejného zdraví, </tspan><tspan
         sodipodi:role="line"
         x="34.424446"
         y="956.44092"
         style="font-size:19px;font-style:normal;font-variant:normal;font-weight:bold;font-stretch:normal;text-align:start;line-height:117.99999475%;text-anchor:start;fill:#1a1a1a;font-family:'M+ 1mn';-inkscape-font-specification:'M+ 1mn Bold'"
         id="tspan3085">vzdělávání a volnočasových aktivit.</tspan></text>
    <flowRoot
       xml:space="preserve"
       id="flowRoot3103"
       style="fill:black;stroke:none;stroke-opacity:1;stroke-width:1px;stroke-linejoin:miter;stroke-linecap:butt;fill-opacity:1;font-family:PT Sans Narrow;font-style:normal;font-weight:bold;font-size:20px;line-height:125%;letter-spacing:0px;word-spacing:0px;-inkscape-font-specification:PT Sans Narrow Bold Condensed;font-stretch:condensed;font-variant:normal;text-anchor:middle;text-align:center"><flowRegion
         id="flowRegion3105"><rect
           id="rect3107"
           width="176"
           height="268"
           x="28"
           y="152.36218" /></flowRegion><flowPara
         id="flowPara3109" /></flowRoot>    <text
       xml:space="preserve"
       style="font-size:20px;font-style:normal;font-variant:normal;font-weight:bold;font-stretch:normal;text-align:center;line-height:125%;letter-spacing:0px;word-spacing:0px;text-anchor:middle;fill:#1a1a1a;fill-opacity:1;stroke:none;font-family:'M+ 2p';-inkscape-font-specification:'M+ 2p Bold'"
       x="362"
       y="992.36218"
       id="text3169"
       sodipodi:linespacing="125%"><tspan
         sodipodi:role="line"
         id="tspan3171"
         x="362"
         y="992.36218">www.pirati.cz/program/psychotropni_latky</tspan><tspan
         sodipodi:role="line"
         x="362"
         y="1017.3622"
         id="tspan3173">www.facebook.com/psychotropnipirati</tspan></text>
    <rect
       style="fill:none;stroke:#6d6d6d;stroke-width:2.02699995;stroke-miterlimit:4;stroke-opacity:1;stroke-dasharray:none"
       id="rect3177"
       width="421.94971"
       height="54.897049"
       x="150.77089"
       y="972.02673" />
    <g
       transform="matrix(0.14083607,0,0,0.14083607,42.301389,966.65824)"
       id="g3002"
       style="opacity:0.76785715">
      <rect
         inkscape:export-ydpi="159.13379"
         inkscape:export-xdpi="159.13379"
         inkscape:export-filename="/home/malajanka/Desktop/grafika_pirati/GRAFIKA_PETICE/logo2.png"
         y="30.410963"
         x="23.170732"
         height="410.97562"
         width="636.58539"
         id="rect5249"
         style="fill:#ffffff;fill-opacity:0.98039216;stroke:none" />
      <rect
         inkscape:export-ydpi="159.13379"
         inkscape:export-xdpi="159.13379"
         inkscape:export-filename="/home/malajanka/Desktop/grafika_pirati/GRAFIKA_PETICE/logo2.png"
         y="40.602688"
         x="30.563086"
         height="388.87384"
         width="616.29315"
         id="rect4434"
         style="opacity:0.79735682;fill:#ffffff;fill-opacity:1;stroke:#000000;stroke-width:4.20584726;stroke-miterlimit:4;stroke-opacity:1;stroke-dasharray:none" />
      <g
         inkscape:export-ydpi="159.13379"
         inkscape:export-xdpi="159.13379"
         inkscape:export-filename="/home/malajanka/Desktop/grafika_pirati/GRAFIKA_PETICE/logo2.png"
         style="opacity:0.83700442"
         transform="matrix(0.01526483,0,0,0.01526483,130.87815,139.52247)"
         id="g3919">
        <circle
           d="M 5000,0 C 5000,2761.4237 2761.4237,5000 0,5000 -2761.4237,5000 -5000,2761.4237 -5000,0 c 0,-2761.4237 2238.5763,-5000 5000,-5000 2761.4237,0 5000,2238.5763 5000,5000 z"
           sodipodi:ry="5000"
           sodipodi:rx="5000"
           sodipodi:cy="0"
           sodipodi:cx="0"
           cy="0"
           cx="0"
           r="5000"
           id="circle3907" />
        <circle
           d="M 4500,0 C 4500,2485.2814 2485.2814,4500 0,4500 -2485.2814,4500 -4500,2485.2814 -4500,0 c 0,-2485.2814 2014.7186,-4500 4500,-4500 2485.2814,0 4500,2014.7186 4500,4500 z"
           style="fill:#ffffff"
           sodipodi:ry="4500"
           sodipodi:rx="4500"
           sodipodi:cy="0"
           sodipodi:cx="0"
           cy="0"
           cx="0"
           r="4500"
           id="circle3909" />
        <path
           inkscape:connector-curvature="0"
           d="m -1944,1560 v -4207 c -187,-12 -343,0 -441,29 -28,-61 144,-155 441,-245 v -810 h 438 v 700 c 1578,-327 4724,-344 4741,2384 11,1926 -3401,1632 -4390,2257 -1076,678 -593,2113 -593,2113 0,0 -651,-1344 -196,-2221 z m 438,-469 C -1044,777 -251,398 -98,-327 210,-1785 -717,-2390 -1506,-2580 z"
           id="path3911" />
      </g>
      <path
         inkscape:export-ydpi="159.13379"
         inkscape:export-xdpi="159.13379"
         inkscape:export-filename="/home/malajanka/Desktop/grafika_pirati/GRAFIKA_PETICE/logo2.png"
         inkscape:connector-curvature="0"
         id="path4446"
         d="m 230.64516,44.297666 1.6129,390.322584 0,0 0,0"
         style="opacity:0.83700442;fill:none;stroke:#000000;stroke-width:3.5;stroke-linecap:butt;stroke-linejoin:miter;stroke-miterlimit:4;stroke-opacity:1;stroke-dasharray:14, 14;stroke-dashoffset:0" />
      <path
         inkscape:export-ydpi="159.13379"
         inkscape:export-xdpi="159.13379"
         inkscape:export-filename="/home/malajanka/Desktop/grafika_pirati/GRAFIKA_PETICE/logo2.png"
         inkscape:connector-curvature="0"
         id="path4448"
         d="m 439.02439,41.386573 0,390.243907 0,0 -1.21951,0"
         style="opacity:0.83700442;fill:none;stroke:#000000;stroke-width:3.5;stroke-linecap:butt;stroke-linejoin:miter;stroke-miterlimit:4;stroke-opacity:1;stroke-dasharray:14, 14;stroke-dashoffset:0" />
      <path
         inkscape:export-ydpi="159.13379"
         inkscape:export-xdpi="159.13379"
         inkscape:export-filename="/home/malajanka/Desktop/grafika_pirati/GRAFIKA_PETICE/logo2.png"
         inkscape:connector-curvature="0"
         id="path4450"
         d="m 29.268293,234.0695 617.073167,0"
         style="opacity:0.83700442;fill:none;stroke:#000000;stroke-width:3.5;stroke-linecap:butt;stroke-linejoin:miter;stroke-miterlimit:4;stroke-opacity:1;stroke-dasharray:10.5, 10.5;stroke-dashoffset:0" />
      <path
         inkscape:export-ydpi="159.13379"
         inkscape:export-xdpi="159.13379"
         inkscape:export-filename="/home/malajanka/Desktop/grafika_pirati/GRAFIKA_PETICE/logo2.png"
         inkscape:connector-curvature="0"
         id="path4529"
         d="m 312.55808,219.66099 c -0.21977,-0.33065 -0.1288,-1.15448 0.32797,-2.96934 0.9685,-3.8484 2.17544,-11.34905 3.05885,-19.01006 0.43953,-3.81138 1.0735,-8.13671 1.40882,-9.61181 0.33535,-1.47509 0.59732,-2.91073 0.5822,-3.19029 -0.0455,-0.83975 -0.65792,-0.78192 -1.66889,0.15746 -0.52525,0.48809 -1.15686,0.91156 -1.40358,0.94106 -1.76001,0.21037 -2.57495,0.57895 -4.88185,2.20775 -1.80245,1.27267 -2.87514,1.84285 -3.47601,1.84761 -0.47797,0.004 -1.21605,0.18597 -1.64016,0.40485 -0.42412,0.21885 -1.06876,0.30182 -1.43256,0.18433 -0.36382,-0.11748 -1.08065,-0.0727 -1.59295,0.0996 -0.60806,0.20439 -1.11948,0.19312 -1.47276,-0.0323 -0.33529,-0.21398 -0.9242,-0.25124 -1.54748,-0.0979 -0.55347,0.13598 -1.93705,0.26203 -3.07468,0.27968 -2.76319,0.0428 -3.72956,0.31263 -7.48272,2.08882 -1.75407,0.8301 -3.30186,1.4729 -3.43955,1.42844 -0.13771,-0.0445 -0.10497,-0.53115 0.0728,-1.08154 0.78278,-2.42422 6.1037,-8.09774 9.2116,-9.82204 1.10788,-0.61466 2.1334,-1.33438 2.27891,-1.59938 0.14557,-0.26499 0.81638,-0.59133 1.49078,-0.72519 0.67441,-0.13385 1.51737,-0.51207 1.87323,-0.84049 0.48386,-0.44654 1.30953,-0.6461 3.27447,-0.79146 2.07085,-0.1532 3.33506,-0.47586 5.96786,-1.52312 1.83724,-0.73083 3.31722,-1.38189 3.28885,-1.44681 -0.10659,-0.24416 -6.74018,0.19155 -8.85427,0.58151 -1.21117,0.22339 -2.55478,0.29235 -2.98583,0.15313 -0.43106,-0.13918 -1.44182,-0.21148 -2.24616,-0.16063 -1.0233,0.0646 -1.98979,-0.0936 -3.21867,-0.52727 -1.49851,-0.52885 -1.9651,-0.57243 -3.17936,-0.29748 -1.21143,0.27434 -1.71603,0.22768 -3.39199,-0.3135 -1.62707,-0.52539 -2.42951,-0.60982 -4.6227,-0.48639 -1.56405,0.088 -3.112,3.3e-4 -3.76946,-0.21352 -0.62922,-0.20421 -2.42507,-0.32486 -4.11829,-0.27571 -2.65792,0.0772 -3.08787,0.0212 -3.7444,-0.48762 -1.1333,-0.87831 -1.92299,-1.03415 -4.40769,-0.8698 -1.25649,0.0831 -4.37154,-0.095 -6.92233,-0.39568 -2.7466,-0.32382 -5.08115,-0.44728 -5.72506,-0.30282 -1.18961,0.26688 -1.85414,-0.048 -1.62152,-0.76846 0.18511,-0.57323 3.8886,-2.3521 8.27545,-3.97488 3.98626,-1.47458 4.81498,-1.83923 4.92011,-2.16483 0.044,-0.13606 0.79613,-0.32215 1.67154,-0.41356 1.17727,-0.12295 1.9472,-0.42846 2.95733,-1.17347 1.51553,-1.11774 2.26791,-1.31337 4.76815,-1.23978 1.22826,0.0362 2.04635,-0.13958 2.93087,-0.62962 1.46523,-0.81168 2.08002,-0.93061 3.87246,-0.74898 0.74674,0.0756 2.41605,0.009 3.7096,-0.14792 1.92503,-0.23361 2.82023,-0.17795 4.93238,0.30698 3.99918,0.91811 6.55044,1.20871 6.69451,0.76252 0.11597,-0.35916 -2.19269,-1.85717 -3.54936,-2.30308 -1.81463,-0.59698 -2.97498,-1.39785 -3.42475,-2.36562 -0.22436,-0.48275 -0.44118,-0.89409 -0.4818,-0.91409 -0.0407,-0.0195 -1.23928,-0.52227 -2.66367,-1.11614 -1.92493,-0.80258 -2.76394,-1.29018 -3.26814,-1.89936 -0.91261,-1.10265 -1.43273,-1.57802 -2.22921,-2.03749 -0.3682,-0.21231 -0.87287,-0.85314 -1.12153,-1.42393 -0.24868,-0.5708 -1.16988,-1.69538 -2.0471,-2.4991 -1.46844,-1.34541 -1.59056,-1.55073 -1.53936,-2.58828 0.0582,-1.17986 -0.20407,-1.5543 -1.3544,-1.9336 -1.17371,-0.38635 -2.39572,-1.95548 -2.39822,-3.07779 -0.002,-0.94617 -0.0781,-1.03454 -1.43618,-1.67172 -1.46371,-0.68668 -2.03942,-1.2505 -1.85622,-1.81789 0.14613,-0.45254 -0.52013,-1.51983 -1.58089,-2.53243 -0.52887,-0.50485 -1.06157,-1.40738 -1.27129,-2.1539 -0.1985,-0.70672 -0.904,-2.00406 -1.56767,-2.88297 -0.74598,-0.98793 -1.1676,-1.82696 -1.1043,-2.19767 0.0592,-0.34629 -0.26973,-1.07129 -0.77833,-1.71605 -0.48438,-0.61403 -0.89672,-1.43047 -0.91632,-1.81432 -0.0221,-0.43011 -0.49855,-1.14527 -1.24209,-1.86383 -0.89866,-0.86845 -1.23833,-1.43672 -1.3313,-2.22728 -0.0701,-0.59626 -1.53557,-3.74991 -3.34412,-7.19646 -1.77062,-3.37433 -3.11114,-6.1905 -2.9789,-6.25817 0.1322,-0.0677 1.89186,1.07154 3.91035,2.5316 5.18572,3.75108 7.0263,4.84964 11.28848,6.7375 2.26122,1.00159 3.93265,1.888 4.21088,2.2332 0.25376,0.3148 0.99611,0.82264 1.64967,1.12854 0.65357,0.30582 1.52232,0.92182 1.93059,1.36875 0.40829,0.44692 1.40434,1.13462 2.21346,1.52823 1.054,0.51271 1.76727,1.10088 2.51549,2.07429 0.79412,1.03312 1.30905,1.44414 2.14899,1.71536 1.16212,0.37525 1.80973,0.8944 2.42349,1.94283 0.20382,0.34819 0.81792,0.92084 1.36464,1.27256 0.5467,0.35172 1.53568,1.40816 2.1977,2.34763 0.66203,0.93946 1.73806,2.13624 2.39117,2.65948 0.6531,0.52325 1.60265,1.52651 2.11008,2.22948 1.0732,1.48677 2.63771,2.97113 3.40076,3.22658 0.47218,0.15876 0.918,0.65 3.04344,3.35952 0.28985,0.36948 0.77462,0.75244 1.07725,0.85098 0.30269,0.0985 0.75924,0.48764 1.01463,0.86461 0.54531,0.80492 1.48711,1.52492 1.58758,1.21376 0.0386,-0.11941 -0.47225,-0.83616 -1.13511,-1.59283 -1.71001,-1.95193 -2.85841,-4.07355 -2.5048,-4.62752 0.20137,-0.31547 -0.11077,-1.27715 -1.07125,-3.30069 -0.74549,-1.57053 -1.29402,-3.04568 -1.21897,-3.27811 0.0751,-0.23242 -0.41867,-1.48628 -1.09714,-2.78636 -0.67849,-1.30005 -1.34038,-3.03952 -1.47086,-3.86546 -0.13048,-0.82597 -0.58294,-2.01958 -1.00546,-2.65252 -0.42249,-0.63292 -0.84738,-1.7881 -0.94419,-2.56705 -0.10284,-0.82687 -0.69217,-2.36578 -1.41625,-3.69775 -1.24772,-2.29524 -1.3814,-3.41945 -0.41287,-3.47188 0.34321,-0.0189 0.20168,-0.53668 -0.59302,-2.17018 -0.95114,-1.95508 -1.0113,-2.24677 -0.67701,-3.28203 0.41146,-1.27422 0.27931,-1.92088 -0.91447,-4.47515 -0.8206,-1.75577 -0.82209,-1.77598 -0.1776,-2.41506 0.97605,-0.96792 0.98768,-1.30027 0.12112,-3.458937 -0.4382,-1.09157 -0.78007,-2.069627 -0.75973,-2.173452 0.0203,-0.103771 0.0915,-0.455772 0.15798,-0.782156 0.0666,-0.326343 -0.0684,-1.177307 -0.29987,-1.890957 -1.33877,-4.128233 -1.36331,-3.944779 0.60705,-4.538271 0.59541,-0.179338 0.59884,-0.232654 0.10079,-1.565837 -0.82632,-2.211872 -0.73934,-4.529875 0.43412,-11.570776 1.82117,-10.927196 1.94734,-11.846518 2.12761,-15.500816 0.22551,-4.571497 0.31113,-5.273789 0.65329,-5.357975 0.47666,-0.117267 1.1177,1.612858 1.92022,5.182664 0.8808,3.917807 2.03497,7.665284 3.24497,10.535772 1.11251,2.639214 1.75088,4.475637 1.77317,5.100902 0.0115,0.32291 0.29011,0.59683 0.76203,0.749217 0.85653,0.276572 1.27008,1.04308 1.83144,3.394639 0.21476,0.899542 0.46934,1.661022 0.56587,1.692164 0.0964,0.03114 0.40171,-0.134074 0.67831,-0.36716 0.2766,-0.233091 0.6053,-0.303432 0.73042,-0.156354 0.29333,0.344829 0.65984,3.564953 0.58274,5.119888 -0.067,1.350547 0.14961,1.552845 0.9856,0.92064 l 0.57415,-0.434142 0.67756,0.97591 c 0.96593,1.391337 1.26437,2.936507 0.89906,4.654789 -0.31553,1.484024 -0.31374,1.489622 0.41038,1.290997 0.39999,-0.109709 0.86085,-0.09136 1.02411,0.04084 0.16325,0.132261 0.46713,1.279052 0.67527,2.548608 0.29493,1.799108 0.53982,2.446538 1.11025,2.934938 0.54879,0.4699 0.73944,0.9366 0.76221,1.865635 0.0165,0.68143 0.0421,1.7603 0.0566,2.39747 0.0202,0.89443 0.16134,1.20215 0.61914,1.34998 0.80026,0.2584 1.03439,1.10448 0.96109,3.47299 -0.10008,3.23309 -0.076,3.33035 0.87506,3.53517 1.24136,0.26738 1.54749,1.42868 1.00883,3.82697 -0.43001,1.9146 -0.31124,2.47591 0.58729,2.77564 0.6944,0.23053 0.9374,1.22802 0.72517,2.96991 -0.28848,2.36739 -0.19154,3.24458 0.37894,3.42878 0.77932,0.25166 1.18421,1.37978 1.132,3.15401 -0.0623,2.11812 0.0973,2.70582 0.79796,2.93197 1.19978,0.38742 1.25283,1.49666 0.24441,5.11042 l -0.44164,1.58249 0.85808,0.20552 c 1.01531,0.24314 1.1437,0.66856 0.79293,2.62778 -0.32498,1.81519 -0.30443,4.80632 0.0367,5.34354 0.42624,0.6713 0.26194,3.14825 -0.33056,4.98316 -0.60299,1.86743 -0.56286,2.47009 0.25788,3.87333 0.55415,0.94738 0.54853,1.06693 -0.18881,4.01187 -0.75891,3.03111 -0.88215,4.34808 -0.45404,4.85134 0.12479,0.14666 0.4081,1.38281 0.62949,2.74696 0.31339,1.93031 0.46619,2.35494 0.68915,1.91503 0.45616,-0.90008 0.79323,-7.37274 0.59946,-11.51179 -0.21522,-4.59832 -0.128,-5.24368 0.66175,-4.89308 0.31119,0.13811 0.60533,0.12873 0.65369,-0.0205 0.0483,-0.14968 -0.21082,-2.82898 -0.57589,-5.95402 -0.70908,-6.07002 -0.686,-6.20725 0.95648,-5.68697 0.44791,0.14147 0.76269,0.0867 0.83808,-0.14684 0.0664,-0.20571 0.0596,-1.92222 -0.0151,-3.81444 -0.21489,-5.44204 -0.0797,-5.86616 1.68764,-5.29546 l 0.86998,0.28092 -0.48663,-1.95406 c -0.63883,-2.56565 -0.65484,-4.86815 -0.0365,-5.26076 0.24658,-0.15662 0.60974,-0.23255 0.807,-0.16884 0.6093,0.19675 1.07941,-1.87557 0.84087,-3.70665 -0.20503,-1.57392 -0.17555,-1.72622 0.57092,-2.94985 0.7266,-1.19103 0.77253,-1.39381 0.59739,-2.63733 -0.10425,-0.74092 -0.072,-1.71013 0.0708,-2.15377 0.2433,-0.75348 0.30767,-0.78033 0.97524,-0.40714 l 0.71478,0.39956 0.0403,-1.34172 c 0.0222,-0.73796 0.1363,-2.11841 0.25356,-3.06771 0.25371,-2.0539 0.64835,-2.45229 1.99756,-2.01663 1.136,0.36682 1.31921,-0.14126 0.93546,-2.59439 -0.18318,-1.17141 -0.15753,-2.24556 0.0719,-3.008105 0.38321,-1.27335 0.64251,-1.51399 1.5046,-1.39569 0.73385,0.10069 1.1962,-0.95338 1.16871,-2.664451 -0.0279,-1.739515 0.22663,-2.470423 0.94088,-2.701311 0.99247,-0.320816 1.16012,-0.643029 1.26541,-2.432161 0.1342,-2.280368 0.4966,-3.05251 1.39987,-2.982697 l 0.70129,0.0542 0.80902,-2.815311 0.80913,-2.815285 1.06318,-0.08894 c 0.58476,-0.04891 1.13398,-0.226061 1.22049,-0.393665 0.0865,-0.16762 0.55982,-1.533268 1.05173,-3.034824 0.84418,-2.576291 0.93226,-2.733857 1.56334,-2.797909 0.74294,-0.07538 0.78572,-0.14828 1.45465,-2.480016 0.39996,-1.393877 0.55173,-1.642947 0.99925,-1.638793 1.24319,0.01151 1.44412,-0.158989 2.21826,-1.88224 0.49694,-1.106214 1.03796,-1.906224 1.49907,-2.216699 1.17688,-0.792424 2.30283,-2.145636 4.45986,-5.360047 3.45427,-5.147487 6.71353,-8.857914 7.54504,-8.589425 0.3507,0.113247 0.003,1.007037 -1.19121,3.065519 -1.58635,2.733504 -3.57828,9.096182 -3.94974,12.61636 -0.15839,1.501203 -0.19066,3.302126 -0.0717,4.002052 0.11896,0.699943 0.0274,2.634789 -0.20358,4.299678 -0.23094,1.664889 -0.32652,3.369794 -0.21237,3.788697 0.16205,0.594724 0.0371,1.177853 -0.56846,2.661108 l -0.77596,1.899472 0.63358,1.071925 0.63357,1.071924 -0.7824,1.867858 c -0.54665,1.30509 -0.74246,2.088441 -0.64982,2.600081 0.17869,0.987308 -0.72536,3.013487 -1.83036,4.10219 -0.98193,0.96747 -0.97968,1.18069 0.0158,1.50213 1.31418,0.42436 1.35781,1.76028 0.0805,2.465175 -0.38187,0.21074 -0.88698,0.72782 -1.12245,1.14903 -0.34913,0.62458 -0.34062,0.92178 0.0459,1.61129 l 0.47408,0.84544 -1.04763,1.41294 c -1.33077,1.79477 -1.55511,2.78098 -0.74509,3.27552 0.56063,0.3423 0.56558,0.4694 0.0748,1.91872 -0.36825,1.08738 -0.87319,1.93146 -1.6864,2.81909 l -1.1607,1.26695 0.50277,0.62377 c 0.59056,0.73264 0.24294,2.26179 -0.67132,2.95314 -0.49959,0.37779 -0.54462,0.57828 -0.4282,1.90674 l 0.13004,1.48456 -1.40564,1.99177 c -0.77311,1.09545 -1.44943,2.12727 -1.50291,2.2929 -0.0535,0.16564 0.0565,0.8268 0.24436,1.46926 0.45552,1.55767 0.2056,2.17727 -1.52798,3.78761 -1.63149,1.51551 -1.76779,2.01985 -0.82393,3.04858 0.79678,0.8684 0.56266,1.77846 -0.59885,2.32791 -1.53647,0.72683 -2.94806,3.45681 -2.40769,4.65641 0.24573,0.54552 0.19533,0.71239 -0.53041,1.75783 -0.44107,0.63533 -0.89407,1.44883 -1.00666,1.80779 -0.19071,0.61013 -0.17125,0.62929 0.30637,0.29561 0.28109,-0.19638 0.97404,-1.10764 1.53986,-2.02503 1.04552,-1.69518 1.86103,-2.24875 2.84475,-1.93111 0.6683,0.2158 1.31096,-0.7184 2.03349,-2.95602 0.66103,-2.04717 0.61048,-1.99542 2.71136,-2.77933 0.79463,-0.29653 1.02166,-0.58019 1.68667,-2.10713 l 0.76846,-1.76447 0.89122,0.28779 c 0.88,0.28415 0.90346,0.26807 1.86012,-1.26822 1.6203,-2.60218 2.40582,-3.0056 3.19304,-1.63988 0.43918,0.76187 0.60107,0.64069 2.39982,-1.79672 0.72887,-0.98768 1.6133,-1.98359 1.96544,-2.21321 l 0.64021,-0.41743 0.23873,0.76855 c 0.28553,0.91928 0.48641,0.80587 1.97475,-1.11475 1.94296,-2.50728 2.35758,-2.79687 3.72006,-2.59827 1.32759,0.19349 1.73714,0.003 3.11081,-1.44944 0.96962,-1.025 1.26284,-1.04456 1.95416,-0.13032 0.25346,0.33518 0.5666,0.55637 0.69592,0.49157 0.12932,-0.0648 0.91383,-0.81743 1.74339,-1.67248 1.17138,-1.20737 1.7731,-1.60708 2.69379,-1.78942 0.65204,-0.12914 2.20282,-0.69401 3.4462,-1.25525 2.48489,-1.12163 4.16227,-1.60596 4.8257,-1.3934 0.23723,0.0761 1.05458,-0.11334 1.8163,-0.42091 0.76174,-0.30749 1.66684,-0.46806 2.01128,-0.35687 0.3556,0.11482 0.67588,0.0486 0.74103,-0.15321 0.0631,-0.19548 1.19365,-0.59129 2.51227,-0.8796 1.31862,-0.28826 5.0463,-1.36763 8.28373,-2.39849 3.23741,-1.03088 6.19386,-1.85386 6.56983,-1.82884 1.55153,0.10322 1.01388,0.63169 -3.25698,3.20125 -5.14435,3.0951 -8.18877,5.83673 -8.89223,8.00779 -0.2302,0.71065 -0.69219,1.44054 -1.17454,1.85592 -0.43726,0.37656 -0.90634,1.02942 -1.0424,1.45078 -0.17404,0.53898 -0.72107,1.04508 -1.845,1.70701 -1.79967,1.05987 -1.7314,0.97969 -1.52716,1.7934 0.13282,0.52727 -0.0753,0.72647 -1.66585,1.59734 -1.36254,0.74603 -1.88041,1.19105 -2.07031,1.77916 -0.20055,0.62108 -0.69635,1.00081 -2.38257,1.82468 -1.69215,0.82676 -2.08456,1.12791 -1.91117,1.46666 0.3717,0.72622 0.0672,1.05919 -1.8799,2.05578 -1.03573,0.53011 -2.0422,1.24299 -2.23662,1.58416 -0.19433,0.34118 -0.50321,0.88452 -0.68624,1.20745 -0.18307,0.32295 -1.05976,1.03483 -1.94835,1.58193 -1.11903,0.68901 -1.69156,1.22995 -1.86269,1.75992 -0.19013,0.58884 -0.68765,0.97967 -2.15913,1.69611 -1.60861,0.78319 -1.91951,1.04289 -1.95898,1.63635 -0.0678,1.0192 -0.68095,1.47859 -2.79952,2.09748 -2.13731,0.62436 -2.49277,0.8468 -2.21633,1.38693 0.55437,1.08314 -0.84853,2.18301 -3.25457,2.55157 -1.50132,0.22999 -1.87003,0.45788 -2.4959,1.54248 -0.34611,0.5998 -1.22655,1.21988 -3.03817,2.13972 -2.3358,1.18598 -2.52091,1.33647 -2.19577,1.78512 0.33887,0.46762 0.32295,0.50872 -0.34876,0.90077 -0.38711,0.22593 -1.72082,0.75552 -2.96381,1.17687 -2.94387,0.99792 -3.3483,1.25835 -3.15434,2.03118 0.41951,1.67143 -0.54239,2.30181 -3.94233,2.58366 -2.10306,0.17433 -3.36584,0.6293 -3.57901,1.28944 -0.18291,0.56648 -1.29158,1.16166 -2.89242,1.5528 -3.00479,0.7342 -3.67079,1.01663 -4.24302,1.79963 -0.36687,0.50201 -1.85913,1.44828 -3.9923,2.53167 -4.07027,2.06713 -4.56096,2.5957 -2.03464,2.19173 2.19549,-0.35109 5.56008,-1.43553 10.02565,-3.23134 4.73642,-1.90473 5.80899,-2.25243 6.37983,-2.06811 0.21024,0.0679 0.98097,-0.26199 1.71269,-0.73305 1.00498,-0.647 1.57466,-0.81753 2.32886,-0.69723 2.01921,0.32212 3.13598,0.25774 3.72198,-0.21462 0.85977,-0.69302 2.0802,-0.71845 3.38409,-0.0705 0.96803,0.48104 1.22035,0.49472 2.04648,0.11073 1.02973,-0.47861 2.51049,-0.50798 3.8545,-0.0765 0.62502,0.20078 1.12827,0.12428 1.83429,-0.27838 0.75375,-0.42989 1.33234,-0.50021 2.56818,-0.31219 0.87741,0.1335 1.89274,0.10873 2.25632,-0.0551 0.48411,-0.21803 1.31292,-0.13652 3.0964,0.30473 1.60064,0.396 2.90873,0.54803 3.81645,0.44358 1.16034,-0.13351 1.49956,-0.0693 2.1223,0.40194 0.64084,0.48491 0.86893,0.51792 1.68436,0.24379 0.51874,-0.17438 1.65666,-0.22569 2.52871,-0.11401 2.30566,0.29529 10.90418,3.39989 15.64086,5.64734 2.194,1.04099 6.25828,2.75359 9.03176,3.80576 5.06053,1.91981 5.82111,2.28496 5.67866,2.72611 -0.0824,0.25536 -0.50363,0.29641 -2.96857,0.28936 -0.86894,-0.002 -3.80681,0.28085 -6.52863,0.62965 -2.72182,0.34878 -5.27032,0.62836 -5.66337,0.62125 -0.39305,-0.007 -1.20066,0.19539 -1.79471,0.45 -0.59406,0.25459 -1.57099,0.43864 -2.17092,0.40906 -0.59994,-0.0296 -1.39385,0.12084 -1.76428,0.33441 -1.06478,0.61376 -2.17458,0.69001 -4.14863,0.28503 l -1.83416,-0.37627 -0.38592,0.92411 c -0.44672,1.06969 -0.82497,1.11872 -3.07447,0.39845 -1.56296,-0.50049 -2.16706,-0.36753 -2.46053,0.54141 -0.22799,0.70606 -0.93188,0.74023 -2.57414,0.12501 -1.86776,-0.69978 -2.12165,-0.71943 -2.29647,-0.17801 -0.39723,1.23019 -0.61756,1.26168 -3.13688,0.44818 -2.59981,-0.83949 -3.07763,-0.79132 -3.44532,0.34736 -0.38797,1.20151 -0.9297,1.21222 -3.33554,0.066 l -2.13959,-1.01939 -1.01272,0.56261 -1.01271,0.56263 -2.57341,-1.03114 -2.57339,-1.03111 -0.0493,0.74076 c -0.0416,0.62477 -0.17152,0.74699 -0.82972,0.78057 -0.42924,0.0221 -1.57717,-0.21743 -2.55095,-0.53186 -1.39375,-0.45004 -1.95256,-0.50438 -2.62602,-0.25535 -0.79828,0.2952 -1.06176,0.23611 -3.93852,-0.88213 -2.9658,-1.1529 -3.10475,-1.18205 -3.65449,-0.76634 -0.51316,0.38805 -0.83011,0.35216 -3.10538,-0.35153 -3.67659,-1.13705 -1.77649,-0.14991 4.13798,2.14981 4.59524,1.78677 8.57126,3.62581 10.64861,4.92534 0.7668,0.47968 1.00878,0.80497 0.97512,1.31079 -0.0608,0.91418 1.25687,2.16931 3.46699,3.30235 2.0457,1.04876 2.56451,1.67491 2.23451,2.69686 -0.26691,0.82659 -0.10649,0.98694 2.12245,2.12126 2.19648,1.11779 3.03599,1.96262 3.50985,3.53209 0.51784,1.71511 1.06493,2.64475 2.14532,3.6455 0.59489,0.55104 0.92958,1.17301 1.02311,1.90137 0.0771,0.60072 1.12952,2.85919 2.36466,5.07472 1.22409,2.19576 2.71167,4.89575 3.30572,6.00001 1.4156,2.63132 1.01717,2.88437 -1.42375,0.90431 -2.42117,-1.96407 -4.08076,-2.9987 -7.75731,-4.83617 -1.702,-0.85063 -3.89171,-2.15441 -4.86601,-2.89729 -1.59519,-1.2163 -1.85115,-1.33629 -2.57206,-1.20579 -0.6979,0.12628 -0.9976,0.0178 -2.33634,-0.84532 -1.38831,-0.89524 -1.62163,-0.97599 -2.43104,-0.8413 -1.26204,0.21001 -1.551,0.0651 -3.15408,-1.58664 -0.78263,-0.80617 -1.78608,-1.58312 -2.22986,-1.72655 -0.44379,-0.14342 -1.43622,-0.85202 -2.20542,-1.57467 -0.76917,-0.72264 -1.53773,-1.35885 -1.70792,-1.4138 -0.57527,-0.18576 -3.46069,-3.08748 -4.82448,-4.85174 -1.37276,-1.77583 -2.3083,-2.57464 -2.74953,-2.34765 -0.13338,0.0687 0.0876,0.62658 0.49122,1.23989 0.40355,0.61332 0.83922,1.7828 0.96816,2.59882 0.12894,0.81605 0.48064,1.70845 0.78155,1.98316 0.43256,0.39485 0.48464,0.6954 0.24868,1.43511 -0.16408,0.51463 -0.30104,1.96988 -0.30418,3.23393 -0.008,3.16859 -0.81759,7.81264 -1.51188,8.67162 -0.45583,0.56394 -0.56789,0.58718 -0.83128,0.17236 -0.16745,-0.26369 -0.45302,-1.24329 -0.6346,-2.17689 -0.46687,-2.40026 -3.26146,-7.68396 -4.85693,-9.18287 -0.69568,-0.65359 -1.60649,-1.78871 -2.02403,-2.5225 -0.41754,-0.73378 -0.9982,-1.50231 -1.29034,-1.70785 -0.29215,-0.20554 -0.95028,-1.15178 -1.46252,-2.10273 -0.51224,-0.95095 -1.17715,-1.96485 -1.47753,-2.25312 -0.35131,-0.33711 -0.76124,-1.67072 -1.14891,-3.73762 -1.43127,-7.63119 -1.92197,-9.1148 -2.46179,-7.44305 -0.58191,1.80215 -4.59119,23.43777 -5.67303,30.6139 -0.95302,6.32156 -1.25041,7.79193 -1.62398,8.02915 -0.55407,0.35182 -2.2563,-0.14789 -2.68113,-0.78714 z m -9.60464,-53.3439 c 1.34402,-0.0685 0.68227,-0.64278 -1.58428,-1.37465 -2.33138,-0.75281 -2.93119,-0.61529 -1.45653,0.33397 1.20172,0.77356 2.11962,1.0877 3.0408,1.04072 z m 15.36541,2.58898 c -0.47546,-1.52768 -4.84412,-10.1177 -5.20482,-10.23418 -0.18167,-0.0587 -0.30306,0.10911 -0.29501,0.4079 0.0216,0.81676 0.66801,2.04146 1.06548,2.01995 0.38524,-0.0204 0.76014,0.82675 1.55309,3.51126 0.44382,1.50254 2.48698,5.10218 2.98779,5.2639 0.1192,0.0384 0.0714,-0.39745 -0.10653,-0.96883 z m 10.77114,-2.00211 c 0.80382,-0.99322 2.1889,-2.94676 3.07795,-4.34122 0.88905,-1.39445 1.9232,-2.83756 2.29809,-3.2069 0.37492,-0.36933 1.16365,-1.76759 1.75275,-3.10723 0.73195,-1.66452 1.4332,-2.83101 2.21479,-3.68414 0.62905,-0.68662 1.11205,-1.31027 1.07335,-1.38589 -0.1138,-0.22223 -2.21064,1.2049 -3.24241,2.20679 -0.8559,0.83113 -0.94755,1.02702 -0.91534,1.95638 0.0335,0.97529 -0.095,1.1892 -2.31289,3.84255 -2.53979,3.03835 -3.57856,4.58015 -5.02634,7.46016 -0.51292,1.02036 -1.06421,2.07148 -1.22506,2.33581 -0.65648,1.07872 0.84952,-0.27786 2.30511,-2.07631 z"
         style="opacity:0.83700442;fill:#000000" />
      <rect
         inkscape:export-ydpi="159.13379"
         inkscape:export-xdpi="159.13379"
         inkscape:export-filename="/home/malajanka/Desktop/grafika_pirati/GRAFIKA_PETICE/logo2.png"
         y="37.508732"
         x="441.02438"
         height="193.90245"
         width="209.7561"
         id="rect4552"
         style="fill:#ffffff;fill-opacity:1;stroke:none" />
      <path
         inkscape:export-ydpi="159.13379"
         inkscape:export-xdpi="159.13379"
         inkscape:export-filename="/home/malajanka/Desktop/grafika_pirati/GRAFIKA_PETICE/logo2.png"
         id="path4874-5"
         d="m 53.854005,332.55829 -3.300739,5.33933 c -7.410848,12.02646 -7.60772,24.56181 -0.564112,36.65026 5.173225,8.87845 11.232382,13.69728 20.638605,16.43896 6.662404,1.94192 15.362356,1.65404 21.994837,-0.70333 1.716645,-0.61015 26.231044,-16.33613 54.471084,-34.95437 l 51.35078,-33.84334 3.30974,-5.3826 c 4.04565,-6.56395 6.33074,-16.79998 5.4075,-24.2439 -0.59114,-4.76617 -1.44458,-6.68073 -6.18396,-13.88164 -4.91781,-7.47206 -6.07398,-8.70021 -10.99502,-11.58774 -6.69201,-3.92669 -15.42205,-5.51392 -23.72362,-4.32866 l -6.18678,0.87901 -53.10916,34.80901 -53.109155,34.80901 z m 53.258305,-27.28449 15.6572,23.88867 15.65721,23.88866 -22.87659,14.80704 c -12.58019,8.14684 -23.985468,15.31489 -25.320884,15.92336 -3.999566,1.82237 -14.484954,1.72479 -19.890323,-0.19029 -6.142136,-2.17612 -9.831202,-5.26909 -14.156134,-11.90717 -5.582045,-8.56759 -5.74946,-19.23817 -0.459353,-28.80555 l 2.804147,-5.01385 24.292364,-16.29544 24.292363,-16.29543 z m 78.62224,-18.79996 c 0.65833,-0.541 1.57419,-0.87678 2.68588,-0.97574 3.18982,-0.28394 4.70164,1.2357 6.43322,6.39491 2.04986,6.10752 0.15792,15.74052 -4.18847,21.31518 -4.2413,5.43986 -7.86741,7.71481 -11.02692,6.89102 -3.6474,-0.95099 -4.87255,-4.97402 -2.28987,-7.54127 7.97181,-7.92416 9.66287,-12.41807 7.50395,-19.67708 -0.89668,-3.01495 -0.56613,-5.21681 0.88221,-6.40702 z"
         style="opacity:0.86784141;fill:#000000"
         inkscape:connector-curvature="0" />
      <path
         inkscape:export-ydpi="159.13379"
         inkscape:export-xdpi="159.13379"
         inkscape:export-filename="/home/malajanka/Desktop/grafika_pirati/GRAFIKA_PETICE/logo2.png"
         id="path4874"
         d="m 158.93744,314.76771 c -7.32282,0.0822 -14.88139,1.73127 -21.03125,4.8125 -6.82286,3.41842 -14.68184,11.79512 -18.65625,19.875 -2.90302,5.90177 -3.46901,8.23828 -3.875,16 -0.85488,16.34365 4.53102,28.30757 17,37.71875 5.41837,4.08962 9.37745,6.13988 14.78125,7.625 6.25969,1.72035 18.25774,1.29969 25.125,-0.875 11.50418,-3.64309 22.64374,-13.91271 27.125,-25 2.98524,-7.38589 3.20787,-24.98872 0.40625,-32.25 -4.5137,-11.6987 -16.58285,-22.9026 -28.3125,-26.3125 -3.86042,-1.12226 -8.16881,-1.64308 -12.5625,-1.59375 z m 20.65625,17.875 c 0.72835,0.038 1.52929,0.68639 2.9375,2.15625 l 2.71875,2.84375 -23.53125,23.65625 c -12.94035,13.0043 -23.69133,23.625 -23.875,23.625 -0.18367,0 -1.53941,-1.25536 -3.03125,-2.8125 l -2.71875,-2.84375 22.3125,-22.40625 c 12.2625,-12.33036 22.98557,-22.97881 23.84375,-23.65625 0.48495,-0.38282 0.90674,-0.5853 1.34375,-0.5625 z"
         style="fill:#1e1e1e;fill-opacity:0.98039216"
         inkscape:connector-curvature="0" />
      <path
         inkscape:export-ydpi="159.13379"
         inkscape:export-xdpi="159.13379"
         inkscape:export-filename="/home/malajanka/Desktop/grafika_pirati/GRAFIKA_PETICE/logo2.png"
         inkscape:connector-curvature="0"
         id="path5092"
         d="m 252.48827,417.09666 c -2.02209,-0.73919 -3.42843,-2.67093 -3.41872,-4.69597 0.0124,-2.58237 1.93187,-10.05153 2.94122,-11.44494 0.41977,-0.57949 9.55012,-9.30965 20.28967,-19.40037 15.80005,-14.84549 19.59973,-18.70051 19.91048,-20.20048 0.27185,-1.31224 2.04006,-3.52831 6.05321,-7.58637 l 5.66918,-5.73263 -2.36083,-2.26724 c -2.74483,-2.63601 -4.10641,-5.41351 -3.61452,-7.37333 0.30283,-1.20659 14.45725,-15.32691 56.88521,-56.74816 8.538,-8.33541 9.02889,-8.71602 11.24158,-8.71602 1.8089,0 2.68773,0.37402 4.02797,1.71426 0.94284,0.94284 1.93293,1.71426 2.20019,1.71426 0.26726,0 2.51908,-2.04516 5.00406,-4.54479 l 4.51813,-4.5448 -2.67443,-2.85917 c -2.16851,-2.31832 -2.67443,-3.2515 -2.67443,-4.93309 0,-1.76602 0.53021,-2.6265 3.57137,-5.79607 1.96426,-2.04719 4.26573,-4.08205 5.1144,-4.5219 3.69159,-1.91329 3.70089,-1.90655 19.17092,13.87845 l 14.42834,14.7221 0,2.65754 c 0,2.53972 -0.17832,2.83121 -4.02226,6.575 -2.21224,2.1546 -4.41911,4.13956 -4.90416,4.41101 -1.63086,0.91267 -4.50568,-0.13615 -6.79255,-2.47813 -1.22484,-1.25433 -2.50224,-2.28061 -2.83868,-2.28061 -0.33644,0 -2.58069,1.99283 -4.98723,4.4285 l -4.37551,4.4285 1.67468,1.97838 c 1.23368,1.4574 1.68057,2.58597 1.69705,4.28564 0.0221,2.27861 -0.1962,2.52238 -17.57115,19.62346 -9.67643,9.52392 -24.44976,23.98797 -32.82963,32.14234 -14.97327,14.57035 -15.27715,14.82613 -17.61363,14.82613 -2.07186,0 -2.75767,-0.36428 -5.33496,-2.8338 l -2.95747,-2.83379 -5.53597,5.50208 c -5.2202,5.18825 -5.68372,5.51043 -8.12612,5.64831 -2.57118,0.14514 -2.7519,0.3004 -24.66414,21.18846 -12.14069,11.57323 -22.75513,21.35207 -23.58764,21.73075 -1.65689,0.75365 -2.22392,0.80795 -3.51363,0.33649 z m 30.73875,-32.73876 17.73028,-16.85687 -1.19164,-1.28569 c -0.6554,-0.70713 -1.4166,-1.2857 -1.69155,-1.2857 -0.27495,0 -9.80854,8.775 -21.18576,19.49999 -21.48715,20.25535 -21.12627,19.8424 -22.39726,25.62916 -0.4928,2.2437 -3.25556,4.71467 28.73593,-25.70089 z m 26.96672,-23.70599 5.39803,-5.42057 -2.24784,-2.302 -2.24785,-2.302 -5.58338,5.56243 -5.58339,5.56244 2.10931,2.16014 c 1.16013,1.18807 2.25507,2.16013 2.4332,2.16013 0.17814,0 2.753,-2.43925 5.72192,-5.42057 z m 20.25493,-3.11198 3.35442,-3.38979 -5.22942,-5.66723 c -5.26537,-5.70619 -6.03818,-7.12025 -4.26354,-7.80124 0.70747,-0.27149 2.46635,1.1242 6.57439,5.21682 l 5.6085,5.58746 4.3847,-4.38469 4.38469,-4.38469 -5.27629,-5.5191 c -5.21426,-5.45421 -6.08315,-7.17195 -3.84577,-7.60283 0.73376,-0.14131 2.74822,1.46652 6.42525,5.12826 l 5.35637,5.3341 4.37298,-4.37297 4.37297,-4.37297 -4.94616,-5.33321 c -4.692,-5.05915 -5.69237,-6.80648 -4.3661,-7.62616 0.32077,-0.19825 3.21358,2.09156 6.42846,5.08846 l 5.84526,5.44891 4.56353,-4.54728 4.56355,-4.54728 -5.27782,-5.29985 c -5.09757,-5.11886 -6.36999,-7.27835 -4.28856,-7.27835 0.54408,0 3.37459,2.37543 6.29001,5.27873 l 5.30076,5.27872 8.09933,-8.09933 8.09933,-8.09933 -10.19873,-10.46489 c -5.60931,-5.75569 -10.38523,-10.54131 -10.61317,-10.63472 -0.37806,-0.15491 -12.00253,11.10999 -48.15451,46.66506 l -13.04532,12.82992 10.46814,10.47963 c 5.75747,5.76379 10.73593,10.47962 11.06324,10.47962 0.3273,0 2.10458,-1.5254 3.94951,-3.38978 z m 60.60876,-71.7441 7.42845,-7.08877 -4.57573,-4.60226 -4.57573,-4.60227 -7.28122,6.90395 c -4.00467,3.79717 -7.28121,7.19824 -7.28121,7.55792 0,0.64778 7.97974,8.98778 8.55698,8.94331 0.16501,-0.0127 3.64282,-3.21306 7.72846,-7.11188 z m 8.83499,-17.74047 -12.29636,-12.29636 -1.92867,1.98988 -1.92867,1.98989 12.2059,12.32561 12.20589,12.32561 2.01914,-2.01914 2.01913,-2.01913 -12.29636,-12.29636 z"
         style="opacity:0.82819369;fill:#000000" />
      <path
         inkscape:export-ydpi="159.13379"
         inkscape:export-xdpi="159.13379"
         inkscape:export-filename="/home/malajanka/Desktop/grafika_pirati/GRAFIKA_PETICE/logo2.png"
         id="path5176"
         d="m 541.16882,260.34704 c -11.5689,-0.0984 -23.12044,3.99025 -31.78125,12.75 -9.38905,9.49633 -13.92801,21.14685 -13.96875,35.8125 l -0.0312,6.25 11.875,0 11.875,0 0.4375,-8.28125 c 0.57299,-10.91678 3.24931,-16.04522 10.28125,-19.65625 3.94573,-2.0262 6.42514,-2.5656 12,-2.5625 12.18995,0.007 19.53125,6.1021 19.53125,16.21875 0,7.03083 -2.71933,10.49183 -14.71875,18.78125 -15.7459,10.87756 -16.28125,12.04373 -16.28125,34.65625 l 0,15.84375 12,0 12,0 0,-11.0625 c 0,-14.69419 1.2714,-16.92232 14.25,-25.375 7.74115,-5.04164 14.1967,-12.47863 16.40625,-18.84375 1.17181,-3.37565 1.8155,-8.08835 1.8125,-13.3125 -0.004,-7.29715 -0.34132,-8.79196 -3.6875,-15.5625 -8.12547,-16.44078 -25.0916,-25.51247 -42,-25.65625 z m -10.78125,119.8125 0,12.5 0,12.5 12,0 12,0 0,-12.5 0,-12.5 -12,0 -12,0 z"
         style="opacity:0.86022028;fill:#000000"
         inkscape:connector-curvature="0" />
    </g>
    <g
       transform="matrix(0.16002389,0,0,0.16002389,588.34642,975.17953)"
       id="g3366"
       style="opacity:0.57589285">
      <polygon
         id="polygon236"
         points="133.23,229.344 167.268,130.491 678.986,130.491 644.949,229.344 " />
      <polygon
         style="fill:#ffffff"
         id="polygon238"
         points="139.16,134.96 172.586,37.883 755.332,37.883 721.906,134.96 " />
      <g
         id="g240">
        <defs
           id="defs242">
          <rect
             y="0"
             x="0"
             height="292.56699"
             width="756.677"
             id="SVGID_1_" />
        </defs>
        <clipPath
           id="clipPath3471">
          <use
             height="1052.3622"
             width="744.09448"
             y="0"
             x="0"
             style="overflow:visible"
             id="use3473"
             overflow="visible"
             xlink:href="#SVGID_1_" />
        </clipPath>
        <polygon
           style="fill:none;stroke:#000000;stroke-width:2"
           id="polygon248"
           points="172.586,37.884 139.16,134.96 721.907,134.96 755.333,37.884 "
           clip-path="url(#SVGID_2_)" />
        <g
           id="g250"
           clip-path="url(#SVGID_2_)">
          <path
             style="fill:#ffffff"
             inkscape:connector-curvature="0"
             id="path252"
             d="m 336.171,167.622 c -5.859,-2.495 -11.774,-3.743 -17.745,-3.743 -5.183,0 -7.773,1.728 -7.773,5.183 0,2.879 2.281,4.967 6.844,6.262 7.773,2.016 13.167,4.367 16.181,7.054 3.013,2.688 4.521,6.216 4.521,10.581 0,10.318 -7.662,15.476 -22.983,15.476 -6.536,0 -12.366,-1.247 -17.491,-3.743 v -10.437 c 5.294,3.071 10.843,4.606 16.646,4.606 2.985,0 5.252,-0.491 6.802,-1.476 1.548,-0.982 2.323,-2.387 2.323,-4.211 0,-1.583 -0.536,-2.879 -1.605,-3.887 -1.07,-1.008 -2.929,-1.871 -5.577,-2.591 -7.098,-1.919 -12.224,-4.307 -15.378,-7.162 -3.155,-2.854 -4.731,-6.346 -4.731,-10.473 0,-4.51 1.844,-8.073 5.534,-10.689 3.689,-2.614 8.97,-3.923 15.843,-3.923 7.153,0 13.351,0.961 18.589,2.88 v 10.293 z" />
          <path
             style="fill:#ffffff"
             inkscape:connector-curvature="0"
             id="path254"
             d="m 391.516,155.17 v 10.148 h -16.308 v 42.396 H 360.505 V 165.318 H 344.197 V 155.17 h 47.319 z" />
          <path
             style="fill:#ffffff"
             inkscape:connector-curvature="0"
             id="path256"
             d="m 413.652,188.279 v 19.435 h -14.111 v -52.185 c 6.14,-0.72 12.899,-1.08 20.279,-1.08 8.45,0 14.745,1.356 18.886,4.067 4.14,2.712 6.21,6.563 6.21,11.553 0,3.215 -1.099,6.106 -3.295,8.673 -2.197,2.568 -5.1,4.403 -8.703,5.507 v 0.144 c 2.928,1.393 5.323,4.247 7.182,8.565 l 6.507,14.756 H 431.82 l -5.83,-14.252 c -0.79,-2.016 -1.747,-3.383 -2.873,-4.103 -1.128,-0.72 -2.873,-1.08 -5.239,-1.08 h -4.226 z m 0,-8.997 h 4.732 c 3.941,0 6.956,-0.707 9.04,-2.123 2.084,-1.415 3.127,-3.395 3.127,-5.938 0,-4.99 -3.859,-7.485 -11.576,-7.485 -2.028,0 -3.802,0.144 -5.323,0.432 v 15.114 z" />
          <path
             style="fill:#ffffff"
             inkscape:connector-curvature="0"
             id="path258"
             d="M 451.845,207.714 471.87,155.17 h 15.21 l 19.941,52.544 h -15.21 l -3.38,-11.373 h -18.336 l -3.295,11.373 h -14.955 z m 21.04,-20.658 h 12.759 l -6.253,-21.306 h -0.169 l -6.337,21.306 z" />
          <path
             style="fill:#ffffff"
             inkscape:connector-curvature="0"
             id="path260"
             d="M 513.949,207.714 V 155.17 h 13.772 l 19.941,32.246 h 0.169 V 155.17 h 13.688 v 52.544 H 547.831 L 527.89,175.468 h -0.169 v 32.246 h -13.772 z" />
          <path
             style="fill:#ffffff"
             inkscape:connector-curvature="0"
             id="path262"
             d="m 568.449,207.714 20.025,-52.544 h 15.21 l 19.941,52.544 h -15.21 l -3.38,-11.373 H 586.7 l -3.295,11.373 h -14.956 z m 21.04,-20.658 h 12.759 l -6.253,-21.306 h -0.169 l -6.337,21.306 z" />
        </g>
      </g>
      <g
         id="g264">
        <defs
           id="defs266">
          <path
             inkscape:connector-curvature="0"
             d="m 1,135.231 c 0,74.134 60.097,134.23 134.231,134.23 73.695,0 133.519,-59.391 134.225,-132.919 v -2.624 C 268.75,60.392 208.926,1 135.231,1 61.097,1 1,61.099 1,135.231"
             id="SVGID_3_" />
        </defs>
        <clipPath
           id="clipPath3486">
          <use
             height="1052.3622"
             width="744.09448"
             y="0"
             x="0"
             style="overflow:visible"
             id="use3488"
             overflow="visible"
             xlink:href="#SVGID_3_" />
        </clipPath>
        <path
           style="fill:#ffffff"
           inkscape:connector-curvature="0"
           id="path272"
           d="m 135.23,269.463 c 74.132,0 134.225,-60.098 134.225,-134.229 C 269.455,61.098 209.362,1.002 135.23,1.002 61.098,1.002 0.998,61.098 0.998,135.233 c 0,74.132 60.101,134.23 134.232,134.23"
           clip-path="url(#SVGID_4_)" />
      </g>
      <g
         id="g274">
        <defs
           id="defs276">
          <path
             inkscape:connector-curvature="0"
             d="M 85.39,10.559 C 51.413,24.153 24.291,51.237 10.64,85.186 v 100.092 c 13.595,33.809 40.551,60.813 74.333,74.46 h 100.515 c 33.782,-13.651 60.741,-40.651 74.334,-74.463 V 85.188 c -13.65,-33.954 -40.77,-61.034 -74.75,-74.63 H 85.39 z"
             id="SVGID_5_" />
        </defs>
        <clipPath
           id="clipPath3494">
          <use
             height="1052.3622"
             width="744.09448"
             y="0"
             x="0"
             style="overflow:visible"
             id="use3496"
             overflow="visible"
             xlink:href="#SVGID_5_" />
        </clipPath>
        <path
           style="fill:#ffffff"
           inkscape:connector-curvature="0"
           id="path282"
           d="m 135.232,252.802 c -64.979,0 -117.656,-52.677 -117.656,-117.656 0,-64.979 52.677,-117.656 117.656,-117.656 64.979,0 117.656,52.676 117.656,117.655 0,64.979 -52.676,117.657 -117.656,117.657"
           clip-path="url(#SVGID_6_)" />
        <circle
           style="fill:none;stroke:#000000;stroke-width:11.73789978"
           sodipodi:ry="117.656"
           sodipodi:rx="117.656"
           sodipodi:cy="135.146"
           sodipodi:cx="135.23199"
           d="m 252.88799,135.146 c 0,64.97961 -52.67638,117.65599 -117.656,117.65599 -64.979609,0 -117.655994,-52.67638 -117.655994,-117.65599 0,-64.979617 52.676385,-117.656002 117.655994,-117.656002 64.97962,0 117.656,52.676385 117.656,117.656002 z"
           id="circle284"
           r="117.656"
           cy="135.146"
           cx="135.23199"
           clip-path="url(#SVGID_6_)" />
        <path
           inkscape:connector-curvature="0"
           id="path286"
           d="m 76.342,70.388 c 12.947,-3.775 67.545,3.657 56.389,56.47 -4.06,19.222 -26.338,28.585 -37.132,36.673 -25.562,19.139 -3.549,64.601 -3.549,64.601 0,0 -11.909,-35.361 14.612,-52.091 24.396,-15.392 108.515,-8.158 108.227,-55.632 C 214.338,29.449 72.603,62.261 76.342,70.388"
           clip-path="url(#SVGID_6_)" />
        <rect
           id="rect288"
           height="133.733"
           width="10.783"
           clip-path="url(#SVGID_6_)"
           y="44.373001"
           x="87.228996" />
      </g>
      <g
         id="g290">
        <defs
           id="defs292">
          <rect
             y="0"
             x="0"
             height="292.56699"
             width="756.677"
             id="SVGID_7_" />
        </defs>
        <clipPath
           id="clipPath3505">
          <use
             height="1052.3622"
             width="744.09448"
             y="0"
             x="0"
             style="overflow:visible"
             id="use3507"
             overflow="visible"
             xlink:href="#SVGID_7_" />
        </clipPath>
        <circle
           style="fill:none;stroke:#000000;stroke-width:2"
           sodipodi:ry="134.231"
           sodipodi:rx="134.231"
           sodipodi:cy="135.23199"
           sodipodi:cx="135.231"
           d="M 269.46201,135.23199 C 269.46201,209.36573 209.36474,269.463 135.231,269.463 61.097267,269.463 1,209.36573 1,135.23199 1,61.098259 61.097267,1.0009918 135.231,1.0009918 c 74.13374,0 134.23101,60.0972672 134.23101,134.2309982 z"
           id="circle298"
           r="134.231"
           cy="135.23199"
           cx="135.231"
           clip-path="url(#SVGID_8_)" />
        <g
           id="g300"
           clip-path="url(#SVGID_8_)">
          <path
             inkscape:connector-curvature="0"
             id="path302"
             d="M 312.414,100.137 V 117.44 H 295.937 V 62.419 c 5.858,-0.759 12.054,-1.139 18.589,-1.139 19.152,0 28.729,6.198 28.729,18.594 0,6.729 -2.155,11.827 -6.464,15.292 -4.31,3.466 -10.604,5.198 -18.885,5.198 -2.197,0 -4.028,-0.076 -5.492,-0.227 z m 0,-11.005 c 1.126,0.152 2.394,0.229 3.802,0.229 3.661,0 6.478,-0.76 8.45,-2.277 1.971,-1.518 2.958,-3.667 2.958,-6.45 0,-5.313 -3.802,-7.969 -11.407,-7.969 -1.24,0 -2.507,0.127 -3.802,0.38 v 16.087 z" />
          <path
             inkscape:connector-curvature="0"
             id="path304"
             d="m 348.831,117.439 v -55.4 h 18.589 v 55.4 h -18.589 z" />
          <path
             inkscape:connector-curvature="0"
             id="path306"
             d="M 394.289,98.087 V 117.44 H 377.812 V 62.419 c 7.322,-0.759 14.646,-1.139 21.969,-1.139 16.899,0 25.35,5.692 25.35,17.075 0,3.188 -1.099,6.147 -3.296,8.88 -2.196,2.731 -5.042,4.68 -8.534,5.843 v 0.152 c 1.689,0.86 3.098,1.961 4.225,3.301 1.127,1.342 2.197,3.252 3.211,5.73 l 6.084,15.178 h -17.322 l -5.238,-14.419 c -0.621,-1.771 -1.408,-3.036 -2.365,-3.795 -0.959,-0.759 -2.227,-1.139 -3.803,-1.139 h -3.804 z m 0,-11.004 h 4.647 c 2.873,0 5.14,-0.645 6.802,-1.935 1.661,-1.291 2.492,-3.048 2.492,-5.274 0,-4.807 -3.098,-7.21 -9.294,-7.21 -1.804,0 -3.353,0.127 -4.647,0.38 v 14.039 z" />
          <path
             inkscape:connector-curvature="0"
             id="path308"
             d="m 450.31,106.814 -2.619,10.625 h -17.576 l 19.435,-55.4 h 17.744 l 19.435,55.4 h -17.913 l -2.62,-10.625 H 450.31 z m 11.491,-49.328 h -13.52 l 8.45,-13.661 h 18.589 l -13.519,13.661 z m -8.703,37.946 h 10.309 l -5.069,-20.491 h -0.169 l -5.071,20.491 z" />
          <path
             inkscape:connector-curvature="0"
             id="path310"
             d="m 531.51,62.039 v 12.522 h -15.885 v 42.878 H 498.388 V 74.562 H 482.502 V 62.039 h 49.008 z" />
          <path
             inkscape:connector-curvature="0"
             id="path312"
             d="m 578.658,76.687 c -6.197,-2.529 -12.252,-3.795 -18.166,-3.795 -4.62,0 -6.929,1.442 -6.929,4.326 0,2.53 1.887,4.301 5.661,5.313 7.886,2.074 13.378,4.553 16.477,7.437 3.098,2.884 4.647,6.729 4.647,11.536 0,11.131 -8.027,16.695 -24.082,16.695 -6.985,0 -13.041,-1.391 -18.166,-4.174 v -12.521 c 5.407,3.289 11.181,4.933 17.321,4.933 5.07,0 7.604,-1.518 7.604,-4.554 0,-1.416 -0.395,-2.504 -1.183,-3.264 -0.789,-0.759 -2.226,-1.441 -4.31,-2.049 -7.492,-2.073 -12.886,-4.667 -16.181,-7.778 -3.296,-3.111 -4.943,-6.969 -4.943,-11.573 0,-4.958 1.986,-8.854 5.957,-11.688 3.972,-2.833 9.73,-4.25 17.279,-4.25 7.437,0 13.773,1.013 19.012,3.036 v 12.37 z" />
          <path
             inkscape:connector-curvature="0"
             id="path314"
             d="m 605.106,85.565 h 0.169 L 619.47,62.039 h 19.435 L 621.161,88.601 639.75,117.44 H 620.316 L 605.275,91.637 h -0.169 v 25.803 h -16.899 v -55.4 h 16.899 v 23.525 z" />
          <path
             inkscape:connector-curvature="0"
             id="path316"
             d="m 662.817,106.814 -2.619,10.625 h -17.576 l 19.435,-55.4 h 17.744 l 19.435,55.4 h -17.913 l -2.62,-10.625 h -15.886 z m 11.492,-49.328 h -13.52 l 8.45,-13.661 h 18.589 l -13.519,13.661 z m -8.704,37.946 h 10.309 l -5.069,-20.491 h -0.169 l -5.071,20.491 z" />
        </g>
        <g
           id="g318"
           clip-path="url(#SVGID_8_)">
          <path
             inkscape:connector-curvature="0"
             id="path320"
             d="m 325.274,256.137 h 7.657 l 0.122,3.95 h 0.122 c 2.714,-3.038 5.895,-4.558 9.541,-4.558 3.808,0 6.846,1.428 9.116,4.284 2.269,2.856 3.403,6.897 3.403,12.124 0,5.064 -1.185,9.064 -3.555,12.002 -2.37,2.938 -5.358,4.405 -8.964,4.405 -3.524,0 -6.604,-1.296 -9.237,-3.889 h -0.122 v 16.65 h -8.083 v -44.968 z m 21.999,15.801 c 0,-6.887 -2.331,-10.331 -6.989,-10.331 -1.864,0 -3.494,0.629 -4.892,1.884 -1.397,1.256 -2.096,2.694 -2.096,4.314 v 8.265 c 0,1.621 0.699,3.06 2.096,4.314 1.398,1.257 3.028,1.884 4.892,1.884 2.147,0 3.849,-0.87 5.104,-2.612 1.256,-1.743 1.885,-4.316 1.885,-7.718 z" />
          <path
             inkscape:connector-curvature="0"
             id="path322"
             d="m 361.918,249.452 v -7.292 h 8.508 v 7.292 h -8.508 z m 0,38.285 v -31.601 h 8.508 v 31.601 h -8.508 z" />
          <path
             inkscape:connector-curvature="0"
             id="path324"
             d="m 378.508,256.137 h 8.082 v 6.077 h 0.122 c 1.296,-1.862 3.099,-3.342 5.409,-4.436 2.309,-1.095 4.801,-1.642 7.475,-1.642 h 1.215 v 6.26 h -1.215 c -4.133,0 -7.283,0.952 -9.45,2.856 -2.168,1.904 -3.251,4.639 -3.251,8.203 v 14.281 h -8.387 v -31.599 z" />
          <path
             inkscape:connector-curvature="0"
             id="path326"
             d="m 417.947,255.529 c 5.186,0 8.812,0.933 10.878,2.796 2.065,1.863 3.099,5.125 3.099,9.783 v 19.629 h -7.535 l -0.121,-4.375 h -0.122 c -2.472,3.322 -5.874,4.982 -10.209,4.982 -2.756,0 -5.034,-0.9 -6.837,-2.704 -1.803,-1.802 -2.704,-4.142 -2.704,-7.019 0,-3.524 1.347,-6.26 4.041,-8.204 2.694,-1.944 6.815,-2.917 12.366,-2.917 h 3.039 v -1.033 c 0,-1.863 -0.446,-3.169 -1.337,-3.92 -0.892,-0.749 -2.472,-1.124 -4.74,-1.124 -3.362,0 -7.212,0.71 -11.546,2.127 v -6.198 c 3.929,-1.215 7.84,-1.823 11.728,-1.823 z m 5.895,17.016 h -3.039 c -5.793,0 -8.689,1.783 -8.689,5.348 0,1.297 0.374,2.351 1.124,3.16 0.749,0.811 1.712,1.215 2.887,1.215 2.31,0 4.173,-0.719 5.591,-2.157 1.418,-1.438 2.127,-3.412 2.127,-5.925 v -1.641 z" />
          <path
             inkscape:connector-curvature="0"
             id="path328"
             d="m 451.248,257.353 h 10.453 v 5.895 h -10.453 v 12.762 c 0,2.634 0.283,4.336 0.852,5.104 0.566,0.771 1.741,1.154 3.524,1.154 1.903,0 3.666,-0.282 5.287,-0.851 v 6.199 c -2.229,0.485 -4.599,0.729 -7.11,0.729 -3.931,0 -6.685,-0.84 -8.265,-2.521 -1.58,-1.681 -2.37,-4.688 -2.37,-9.024 v -13.552 h -6.381 v -5.895 h 6.381 v -11.546 h 8.082 v 11.546 z" />
          <path
             inkscape:connector-curvature="0"
             id="path330"
             d="m 468.507,249.452 v -7.292 h 8.508 v 7.292 h -8.508 z m 0,38.285 v -31.601 h 8.508 v 31.601 h -8.508 z" />
          <path
             inkscape:connector-curvature="0"
             id="path332"
             d="m 485.643,287.737 v -10.331 h 9.724 v 10.331 h -9.724 z" />
          <path
             inkscape:connector-curvature="0"
             id="path334"
             d="m 500.896,271.938 c 0,-5.308 1.307,-9.368 3.919,-12.185 2.613,-2.815 6.33,-4.224 11.151,-4.224 2.836,0 5.976,0.345 9.42,1.033 v 6.441 c -2.877,-0.851 -5.673,-1.276 -8.387,-1.276 -2.552,0 -4.457,0.812 -5.712,2.432 -1.257,1.62 -1.884,4.214 -1.884,7.778 0,3.646 0.668,6.259 2.005,7.839 1.337,1.58 3.403,2.37 6.198,2.37 2.675,0 5.409,-0.506 8.204,-1.52 v 6.503 c -3.038,0.81 -6.117,1.215 -9.236,1.215 -5.024,0 -8.894,-1.387 -11.607,-4.162 -2.714,-2.774 -4.071,-6.856 -4.071,-12.244 z" />
          <path
             inkscape:connector-curvature="0"
             id="path336"
             d="m 531.585,256.137 h 25.523 v 5.896 l -15.618,19.688 v 0.122 h 15.618 v 5.895 h -25.523 v -5.895 l 15.617,-19.689 v -0.121 h -15.617 v -5.896 z" />
        </g>
      </g>
    </g>
  </g>
</svg>
