<?xml version="1.0" encoding="UTF-8" standalone="no"?>
<!-- Created with Inkscape (http://www.inkscape.org/) -->

<svg
   xmlns:dc="http://purl.org/dc/elements/1.1/"
   xmlns:cc="http://creativecommons.org/ns#"
   xmlns:rdf="http://www.w3.org/1999/02/22-rdf-syntax-ns#"
   xmlns:svg="http://www.w3.org/2000/svg"
   xmlns="http://www.w3.org/2000/svg"
   xmlns:sodipodi="http://sodipodi.sourceforge.net/DTD/sodipodi-0.dtd"
   xmlns:inkscape="http://www.inkscape.org/namespaces/inkscape"
   id="svg2"
   version="1.1"
   inkscape:version="0.48.5 r10040"
   width="730"
   height="790"
   sodipodi:docname="leaf_wltt_beznohy.bmp">
  <metadata
     id="metadata8">
    <rdf:RDF>
      <cc:Work
         rdf:about="">
        <dc:format>image/svg+xml</dc:format>
        <dc:type
           rdf:resource="http://purl.org/dc/dcmitype/StillImage" />
        <dc:title></dc:title>
      </cc:Work>
    </rdf:RDF>
  </metadata>
  <defs
     id="defs6" />
  <sodipodi:namedview
     pagecolor="#ffffff"
     bordercolor="#666666"
     borderopacity="1"
     objecttolerance="10"
     gridtolerance="10"
     guidetolerance="10"
     inkscape:pageopacity="0"
     inkscape:pageshadow="2"
     inkscape:window-width="640"
     inkscape:window-height="480"
     id="namedview4"
     showgrid="false"
     inkscape:zoom="0.29873418"
     inkscape:cx="365"
     inkscape:cy="395"
     inkscape:window-x="0"
     inkscape:window-y="0"
     inkscape:window-maximized="0"
     inkscape:current-layer="svg2" />
  <path
     style="fill:#000000"
     d="m 589.12111,724.00139 c -5.9861,-4.31421 -14.4838,-10.45271 -18.8838,-13.64112 -4.4,-3.18842 -10.5875,-7.10488 -13.75,-8.70325 -5.7837,-2.92315 -17.9846,-6.30877 -20.1088,-5.57996 -1.6572,0.56857 -20.9458,-7.68637 -26.1207,-11.17884 l -4.4094,-2.97589 0.6023,5.08523 c 0.4979,4.20411 0.3583,4.94129 -0.8056,4.25452 -4.1628,-2.45631 -13.9497,-9.21773 -17.6578,-12.1992 -4.5393,-3.6497 -4.7609,-3.55135 -3.3198,1.47338 0.5116,1.78387 0.5791,3.2434 0.15,3.2434 -1.2656,0 -9.07334,-5.86483 -16.38797,-12.30991 -7.12095,-6.27442 -7.3992,-6.214 -5.12018,1.11185 0.25167,0.80898 -0.0639,1.02611 -0.83352,0.57346 -2.97264,-1.74841 -13.86596,-10.40529 -21.10395,-16.77122 l -7.8654,-6.91774 0.7384,5.36881 0.7384,5.36881 -7.0675,-6.26581 c -3.88712,-3.44619 -9.45497,-9.21454 -12.373,-12.81854 l -5.3055,-6.55272 -0.5,3.6333 -0.5,3.63331 -6.59163,-8.27989 c -11.27307,-14.16035 -23.2059,-30.80952 -22.55114,-31.46427 0.68969,-0.68969 29.36781,5.60244 39.80191,8.73275 3.62461,1.0874 8.11691,3.01316 9.9829,4.27945 2.66198,1.80647 5.75814,2.53715 14.37533,3.39252 6.04045,0.59959 12.27952,1.59563 13.86461,2.21343 2.79614,1.08981 2.82875,1.18207 1.09501,3.09784 -1.75836,1.94296 -1.70044,1.97456 3.61802,1.97379 7.27525,-10e-4 21.90501,2.97036 21.90501,4.44907 0,0.64602 -0.9453,2.18919 -2.1006,3.42926 -1.1553,1.24008 -1.9428,2.40252 -1.75,2.5832 0.1928,0.18069 4.1756,1.08298 8.8506,2.00509 9.9425,1.9611 22,5.61035 22,6.65841 0,0.40183 -1.1755,1.6552 -2.6122,2.78529 l -2.6121,2.0547 2.8621,1.08032 c 8.7422,3.29977 28.4821,12.39506 29.4608,13.57422 0.91,1.09651 0.5023,1.64556 -2.0045,2.69958 l -3.1467,1.32312 8.7763,5.1991 c 12.9222,7.65513 21.6784,14.42908 31.7936,24.59598 8.9137,8.95927 27.2769,32.10258 26.2704,33.109 -0.286,0.2861 -5.4178,-3.00963 -11.4039,-7.32383 z M 161.73729,720.7547 c 0,-2.40968 7.35685,-15.32552 12.98009,-22.78813 6.89629,-9.15206 14.58306,-16.45684 27.21111,-25.85887 5.36786,-3.99655 8.49571,-6.98036 8.17995,-7.80323 -0.64076,-1.66979 5.48615,-5.93612 16.37885,-11.40504 4.5375,-2.27815 8.25,-4.42496 8.25,-4.77069 0,-0.34573 -0.73242,-1.16416 -1.62761,-1.81873 -1.40875,-1.0301 -1.02798,-1.47199 2.83174,-3.28627 2.45263,-1.15287 7.90807,-3.09821 12.12319,-4.32296 6.39464,-1.85804 7.46822,-2.46255 6.48257,-3.65019 -0.92154,-1.11038 -0.8656,-1.62383 0.25441,-2.33504 2.01098,-1.27699 13.54697,-5.56683 18.9357,-7.04155 5.52833,-1.51292 7.00543,-2.65492 5.0206,-3.88161 -0.80447,-0.49719 -1.25071,-1.07662 -0.99164,-1.28761 0.76945,-0.62665 17.12227,-4.64703 21.72104,-5.34017 2.40325,-0.36222 4.25,-1.18614 4.25,-1.89613 0,-1.42639 3.08526,-2.44947 7.5,-2.48703 3.11459,-0.0265 6.20322,-0.8203 23,-5.91114 5.5,-1.66696 12.025,-3.32528 14.5,-3.68515 2.475,-0.35988 5.175,-1.06915 6,-1.57617 2.4953,-1.53353 -70.54085,1.06952 -75.75,2.69977 -1.69586,0.53074 -2.25,0.30601 -2.25,-0.91247 0,-2.20102 -1.17545,-2.05319 -11,1.38337 -4.675,1.63528 -10.49094,2.97926 -12.92431,2.98662 l -4.42432,0.0134 2.42432,-2.62421 c 2.19313,-2.37397 2.2336,-2.56853 0.42431,-2.04023 -20.31201,5.93092 -21.83927,6.23895 -24.97246,5.03663 -1.43963,-0.55243 -1.36894,-0.91211 0.58882,-2.99605 1.22367,-1.30254 1.95797,-2.63515 1.63176,-2.96135 -0.3262,-0.3262 -5.50694,0.34702 -11.51275,1.49606 -16.36163,3.13031 -18.37105,2.71823 -11.66969,-2.39315 4.21054,-3.21154 4.04975,-3.8449 -0.63191,-2.48904 -5.60849,1.62428 -23.93295,2.92215 -26.65352,1.88779 -2.96939,-1.12896 -2.55651,-2.9661 1.06311,-4.73037 1.48261,-0.72265 2.43533,-1.73515 2.11714,-2.25 -0.3182,-0.51484 -6.51448,-0.94297 -13.76952,-0.95139 -13.87626,-0.0161 -16.99255,-0.71147 -14.83566,-3.31036 0.67469,-0.81296 2.33326,-1.75583 3.6857,-2.09527 2.76496,-0.69396 3.28486,-3.04816 0.87719,-3.97207 -0.86998,-0.33387 -3.3708,-0.60701 -5.55737,-0.60701 -2.18657,0 -7.10869,-0.51742 -10.93805,-1.14983 -5.88746,-0.97229 -6.87748,-1.41757 -6.41208,-2.88392 0.63454,-1.99925 -0.7848,-2.48741 -10.28309,-3.53672 -3.4498,-0.38111 -6.4926,-1.04925 -6.76175,-1.48476 -0.26916,-0.43551 0.90058,-1.78158 2.59942,-2.99126 1.69884,-1.20968 2.71663,-2.54027 2.26175,-2.95687 -0.45487,-0.4166 -5.32704,-1.27955 -10.82704,-1.91766 -13.57701,-1.57522 -15.5,-2.0201 -15.5,-3.58586 0,-0.74138 1.16272,-2.26256 2.58382,-3.3804 1.42111,-1.11784 2.33389,-2.43684 2.02842,-2.93111 -0.30548,-0.49428 -3.26752,-1.1446 -6.58231,-1.44518 -3.69837,-0.33536 -8.60076,-1.75095 -12.68878,-3.66397 -6.00406,-2.80964 -6.48457,-3.24711 -4.86631,-4.43041 1.59278,-1.16466 0.39681,-1.88183 -10.58964,-6.35012 -6.81186,-2.77044 -19.48987,-7.66571 -28.17334,-10.87837 -13.20095,-4.884 -15.41319,-5.98375 -13.5,-6.71111 1.25847,-0.47845 5.43814,-0.57183 9.28814,-0.20752 6.27741,0.594 38.71009,5.62409 45.81538,7.10565 2.34527,0.48903 2.76272,0.27917 2.5,-1.25676 -0.49123,-2.8719 3.88172,-2.81466 13.47508,0.1764 9.9534,3.10331 14.06082,3.02692 14.52909,-0.27022 0.44165,-3.10969 2.62361,-2.89243 12.94492,1.28894 8.68833,3.51982 17.23553,5.46661 17.23553,3.92572 0,-0.44395 -0.71908,-1.60176 -1.59796,-2.57291 -0.87888,-0.97115 -1.27735,-2.28449 -0.88548,-2.91854 0.99301,-1.60672 6.18452,-0.49212 16.83379,3.61416 10.97804,4.23305 12.53834,4.35787 9.72223,0.77777 -1.13992,-1.44917 -2.07258,-3.08305 -2.07258,-3.63084 0,-1.59385 6.1853,-0.16419 13.85673,3.20282 3.87741,1.70181 8.39193,3.36261 10.03226,3.69068 2.66241,0.53248 2.92316,0.36985 2.43008,-1.51566 -0.79964,-3.05786 2.43778,-2.76847 9.62678,0.86052 3.23885,1.63497 8.17601,3.84174 10.97148,4.90393 l 5.08267,1.93126 0,-2.47131 c 0,-3.13354 1.22323,-2.79743 13.79855,3.79145 10.41443,5.45667 12.9196,6.08239 11.15561,2.78636 -1.38628,-2.59029 -0.42213,-3.72956 1.8438,-2.17869 0.93612,0.64071 6.35057,4.11352 12.0321,7.71737 l 10.33005,6.55245 -0.68699,-3.12785 c -0.82244,-3.74454 -0.85495,-3.75962 9.37193,4.34703 10.38123,8.22901 15.09534,10.38952 13.47906,6.17757 -0.29595,-0.77122 -0.32261,-1.40223 -0.0592,-1.40223 0.26336,0 4.47401,2.98805 9.35699,6.64012 13.82167,10.33748 22.34854,14.01362 57.47558,24.77913 11.1051,3.40342 11.59955,3.67162 11.647,6.31753 0.042,2.33989 -0.69422,3.11638 -4.80532,5.06842 -6.17965,2.93425 -22.41126,19.21184 -28.61372,28.6948 -4.93142,7.53967 -9.69936,13.05161 -12.70359,14.68587 -1.77019,0.96296 -1.8375,0.69598 -1.17043,-4.643 l 0.70775,-5.6647 -3.82956,1.96945 c -5.90419,3.03637 -11.74103,7.56915 -20.40205,15.84384 -7.31131,6.98519 -7.92752,7.36927 -7.92752,4.94122 0,-1.44797 -0.25458,-2.63268 -0.56574,-2.63268 -1.47009,0 -5.30423,2.58389 -8.93426,6.02094 -4.36842,4.1362 -11.22842,8.97906 -12.719,8.97906 -0.5241,0 -0.64841,-1.32718 -0.281,-3 0.43158,-1.96499 0.2654,-3 -0.48168,-3 -0.62733,0 -7.07559,3.31369 -14.32946,7.36374 -15.15889,8.46368 -17.68886,9.49399 -17.68886,7.20365 0,-2.46151 -3.6893,-1.89349 -11.95558,1.84073 -4.14943,1.87447 -10.39281,4.41776 -13.87417,5.65175 -3.48136,1.234 -8.99489,3.96619 -12.25227,6.07154 -6.66041,4.30483 -21.49022,18.14999 -25.06725,23.40287 -2.24753,3.30051 -4.85073,4.61037 -4.85073,2.44076 z M 491.23731,612.89466 c -6.05,-1.52014 -12.0511,-3.11048 -13.3359,-3.53408 -2.11342,-0.69686 -2.23241,-0.57704 -1.24995,1.25871 0.59721,1.11589 1.08583,2.47302 1.08583,3.01585 0,1.06211 -19.27932,-3.69187 -25.48171,-6.28339 -4.77117,-1.99352 -4.78613,-1.99134 -3.97028,0.57918 0.54156,1.70631 0.35066,2.02382 -0.92296,1.53509 -13.26011,-5.08838 -29.6951,-8.34789 -49.12505,-9.74284 -8.8,-0.63179 -16.15599,-1.29602 -16.34664,-1.47608 -0.61393,-0.57983 12.09064,-4.19783 24.3881,-6.94523 10.26026,-2.29226 13.60753,-3.58416 23.56997,-9.09694 11.89079,-6.57986 16.40515,-7.97115 15.16995,-4.67527 -0.5273,1.40702 -0.37416,1.53147 0.78139,0.63497 17.02327,-13.207 25.93723,-17.97891 25.93723,-13.88497 0,0.825 0.22003,1.5 0.48895,1.5 0.26892,0 5.4489,-3.375 11.51107,-7.5 11.4196,-7.77052 14.642,-9.06321 13.7102,-5.5 -0.2876,1.1 -0.3064,2 -0.042,2 0.2647,0 3.4851,-1.92936 7.1564,-4.28748 15.5449,-9.98464 19.95,-11.78359 18.8854,-7.71252 -0.2877,1.1 -0.2882,2 -10e-4,2 0.287,0 3.5074,-1.97073 7.1563,-4.3794 8.4975,-5.60915 14.497,-8.6206 17.1741,-8.6206 1.8547,0 2.0334,0.39134 1.431,3.13393 l -0.6883,3.13393 3.4532,-2.63393 c 1.8993,-1.44866 4.0291,-2.63393 4.733,-2.63393 0.7038,0 4.8759,-1.8 9.2714,-4 11.0401,-5.52575 11.7024,-5.38636 8.9635,1.88645 -0.6164,1.63683 -1.5165,1.96002 13.0653,-4.69109 6.3964,-2.91755 13.2795,-5.57234 15.2958,-5.89954 3.4726,-0.56353 3.6071,-0.48501 2.5507,1.4889 -0.6133,1.14609 -1.1152,2.29312 -1.1152,2.54896 0,0.25584 4.5065,-1.06458 10.0145,-2.93426 9.9904,-3.39131 16.9854,-4.35237 16.9854,-2.33368 0,0.58616 -0.5024,2.00439 -1.1164,3.15163 -0.8956,1.67347 -0.8461,1.96875 0.25,1.49344 14.2733,-6.18896 15.9178,-6.55578 20.3458,-4.53823 2.0786,0.94706 3.2222,0.86325 5.9463,-0.43579 1.8551,-0.88461 4.9932,-1.91235 6.9736,-2.28387 3.5075,-0.65801 3.6007,-0.59495 3.6007,2.43579 0,3.77059 0.5005,3.81633 11.8883,1.08638 4.6135,-1.10599 11.1385,-1.9776 14.5,-1.93691 15.4418,0.18693 25.3067,-0.21944 36.2637,-1.49384 6.5162,-0.7579 12.0294,-1.19626 12.2515,-0.97412 0.8164,0.81639 -11.0244,5.40387 -26.9986,10.46007 -9.0227,2.85588 -18.3343,6.45248 -20.6925,7.99244 -2.4134,1.57601 -6.4743,3.10068 -9.29,3.48794 -4.1385,0.56919 -4.8016,0.93003 -3.8393,2.08946 0.9541,1.14966 -0.2515,2.05017 -6.71,5.01207 -10.2593,4.70491 -15.0451,6.3878 -18.1655,6.3878 -3.0857,0 -2.18,1.11378 2.1141,2.59996 l 3.1783,1.09995 -5,3.18506 c -6.141,3.91185 -13.274,6.11503 -19.7982,6.11503 -4.2375,0 -4.8594,0.24737 -4.3994,1.75 0.2946,0.9625 0.9907,3.2125 1.5468,5 1.0066,3.23533 0.9955,3.25 -2.4492,3.25 -1.9031,0 -6.1332,1.125 -9.4,2.5 -3.3182,1.39662 -7.895,2.5 -10.3699,2.5 l -4.4301,0 3.4,3.4 c 1.87,1.87 3.4,3.91796 3.4,4.55103 0,0.63306 -1.6875,1.91227 -3.75,2.84269 -2.8899,1.30364 -6.6507,1.68997 -16.3961,1.68428 l -12.6461,-0.007 3.8961,4.65348 c 2.1428,2.55941 3.8961,4.97757 3.8961,5.37368 0,0.39612 -6.7289,0.5561 -14.9531,0.35551 l -14.953,-0.36471 2.6301,2.74529 c 1.4466,1.5099 2.2889,3.08747 1.8719,3.50571 -0.4171,0.41824 -5.1322,0.9123 -10.478,1.09792 -8.7317,0.30318 -16.0316,-0.48025 -23.0426,-2.47296 l -2.4247,-0.68916 2.9122,3.81805 2.9121,3.81805 -10.4875,-0.57138 c -5.7681,-0.31425 -12.4701,-1.28914 -14.8934,-2.16641 -5.1484,-1.8638 -5.8888,-1.54647 -3.696,1.58416 3.332,4.75707 1.6784,4.87094 -13.898,0.95716 z m -114.919,-16.02547 c -1.72034,-1.90096 -1.48906,-2.34831 7.78989,-15.0672 11.97167,-16.40985 18.77424,-27.93053 29.24129,-49.52233 5.87422,-12.11756 8.99883,-19.99774 10.87947,-27.43775 4.00588,-15.84772 5.47576,-18.69482 8.22981,-15.94077 0.82863,0.82863 1.69129,-0.79185 3.30365,-6.20588 2.74501,-9.2172 6.55949,-17.9156 7.85648,-17.9156 0.54542,0 1.13268,1.4625 1.30503,3.25 0.25968,2.69326 1.04276,1.19433 4.57122,-8.75 4.21713,-11.88523 7.44743,-18.5 9.0344,-18.5 0.45191,0 1.24603,1.19902 1.7647,2.6645 0.84065,2.3752 1.29773,1.44107 4.20989,-8.6038 3.56923,-12.31124 7.01624,-21.0607 8.29728,-21.0607 1.30805,0 2.06958,1.78922 2.77596,6.52208 l 0.65991,4.42153 4.85352,-10.7218 c 2.6694,-5.897 5.5963,-13.38493 6.5042,-16.63986 0.9078,-3.25493 2.1655,-6.08969 2.7948,-6.29947 0.6294,-0.20978 1.9406,1.70375 2.9139,4.25228 l 1.7696,4.6337 3.6555,-10.33423 c 7.2303,-20.44012 10.983,-23.57296 14.3609,-11.98868 l 1.338,4.58874 3.3094,-9.96715 c 7.6414,-23.01419 10.5304,-26.314 14.5711,-16.64321 0.8004,1.91573 1.6721,3.26635 1.9371,3.00137 0.265,-0.26498 2.6754,-4.94657 5.3565,-10.40354 5.2415,-10.66841 9.1844,-15.75291 11.8198,-15.24178 0.9304,0.18047 2.289,2.23779 3.1155,4.71795 l 1.4655,4.39793 4.9334,-10.11291 c 4.7911,-9.82108 9.4099,-16.18295 11.749,-16.18295 0.6299,0 1.9119,1.34715 2.8488,2.99368 0.9369,1.64652 1.9285,2.99267 2.2035,2.99144 0.275,-10e-4 2.4093,-3.09742 4.743,-6.88041 8.3446,-13.52731 13.3098,-16.39385 15.7702,-9.10471 l 1.1814,3.5 2.7911,-5.5 c 8.7371,-17.21673 15.5143,-21.96042 15.5143,-10.8592 0,3.77294 1.537,2.92384 2.3854,-1.31772 0.9167,-4.58355 3.5224,-8.3153 4.8671,-6.97054 0.7551,0.75513 2.735,-1.21163 6.7836,-6.7388 3.1446,-4.29284 6.5243,-8.11483 7.5107,-8.49332 1.8006,-0.69095 3.408,0.74469 3.4379,3.07056 0.043,3.37518 2.5712,1.37482 9.8637,-7.80539 4.4199,-5.56403 9.0281,-10.81126 10.2406,-11.66051 2.0126,-1.40968 2.3179,-1.38909 3.5066,0.23654 1.1981,1.63851 1.863,1.28203 8.3307,-4.46611 7.5477,-6.70799 18.1644,-18.06443 35.5205,-37.99551 16.1702,-18.56921 16.4749,-18.82788 11.7797,-10 -13.6251,25.6174 -19.3891,36.05509 -26.8461,48.61412 -5.5447,9.33825 -8.3804,15.13667 -8.3804,17.13605 0,2.81146 -6.6299,14.28499 -9.1569,15.84678 -0.5551,0.34308 0.3781,1.4675 2.0738,2.49872 1.6957,1.03121 3.0831,2.43206 3.0831,3.11299 0,0.68093 -2.7318,3.83755 -6.0707,7.0147 -3.3388,3.17715 -5.5888,5.77664 -5,5.77664 2.0816,0 1.0362,3.05858 -1.4293,4.18195 -2.7356,1.24643 -3.3332,2.81805 -1.0715,2.81805 0.7858,0 2.1349,0.70625 2.9981,1.56945 1.9449,1.94494 1.183,3.55145 -4.9702,10.47962 -2.451,2.75973 -4.4564,5.38115 -4.4564,5.82538 0,0.44423 -2.3625,2.11671 -5.25,3.71662 l -5.25,2.90893 4.491,0.5 c 3.1101,0.34625 4.587,1.00549 4.8029,2.14384 0.3449,1.81805 -15.915,18.84617 -18.02,18.87147 -0.8811,0.0106 -0.8113,0.31427 0.2261,0.98469 0.825,0.53316 3.2033,0.97627 5.2852,0.98469 3.5035,0.0142 3.7036,0.16772 2.6888,2.06385 -0.603,1.1267 -3.759,4.11627 -7.0133,6.6435 -3.2544,2.52723 -6.1952,5.47147 -6.5352,6.54275 -0.3401,1.07128 -2.2624,2.65875 -4.2719,3.5277 l -3.6536,1.57991 4.5,0.91227 c 5.6056,1.13642 7.8505,3.01558 6.1091,5.11383 -0.6705,0.80788 -4.4568,3.37898 -8.4141,5.71357 -3.9573,2.33458 -7.6149,4.95867 -8.1281,5.83131 -0.5132,0.87264 -2.2007,2.85874 -3.75,4.41354 -1.5493,1.55481 -2.8169,2.99144 -2.8169,3.19251 0,0.20106 1.9125,0.50395 4.25,0.67307 5.8209,0.42116 5.502,2.35851 -1.1536,7.00834 -2.972,2.07631 -6.2334,5.13969 -7.2477,6.80752 -1.7155,2.82096 -3.2388,3.82038 -8.3487,5.47753 -1.6581,0.53772 -1.7436,0.78616 -0.5,1.45313 0.825,0.44249 3.1875,1.10762 5.25,1.47807 2.1741,0.39049 3.75,1.24749 3.75,2.03933 0,1.69324 -4.6817,5.69583 -10.8378,9.26576 -2.5642,1.48702 -4.831,3.11411 -5.0372,3.61575 -0.9934,2.41604 -4.426,4.66207 -7.125,4.66207 -4.3187,0 -3.6951,1.70677 0.9077,2.48442 2.1493,0.36311 4.7308,1.26203 5.7368,1.99758 1.7706,1.29475 1.7699,1.40261 -0.024,3.38495 -1.0192,1.12617 -5.0632,3.2738 -8.9868,4.77252 -3.9235,1.49872 -7.8086,3.52531 -8.6336,4.50352 -0.825,0.97822 -3.9378,2.84788 -6.9172,4.1548 l -5.4172,2.37623 6.2285,1.22537 c 9.0945,1.78923 8.1021,3.73684 -4.0365,7.92178 -8.1866,2.82244 -9.5592,3.60401 -9.1406,5.20465 0.3751,1.43446 -0.1881,2.03435 -2.3623,2.5163 -4.8235,1.06924 -4.9371,1.18667 -2.2019,2.277 6.114,2.43724 4.4301,4.04383 -10.6844,10.19374 -5.4538,2.21905 -10.2934,4.41208 -10.7547,4.87339 -0.4613,0.46131 0.5394,1.11438 2.2238,1.45125 6.6358,1.32716 2.3662,3.94041 -18.2938,11.19696 l -10.8562,3.8131 3.7987,1.94887 c 3.4087,1.74877 3.6231,2.0773 2.0882,3.19968 -0.9408,0.68794 -6.54,2.22963 -12.4425,3.42597 -5.9026,1.19634 -12.3069,2.56152 -14.2319,3.03372 -3.1773,0.77939 -3.2926,0.92396 -1.25,1.568 5.4117,1.70641 1.4617,3.88168 -16.20073,8.92183 -24.50589,6.99299 -67.68675,31.14892 -77.48613,43.34674 -1.63823,2.0392 -4.91013,6.14644 -7.27089,9.1272 -2.36076,2.98077 -4.77514,5.57922 -5.36528,5.77433 -0.59015,0.19512 -1.87084,-0.52685 -2.84599,-1.60437 z m -20.17543,-11.24927 c -3.24807,-2.83786 -10.87434,-10.16598 -16.94726,-16.28471 -16.53182,-16.65653 -29.75145,-24.51476 -44.07172,-26.19782 l -5.55002,-0.6523 2.77144,-2.20987 2.77145,-2.20988 -5.43974,-2.00632 c -2.99186,-1.10348 -8.36474,-2.97465 -11.93974,-4.15817 -9.1077,-3.01514 -9.76083,-3.5634 -6.06749,-5.09324 3.96409,-1.64197 3.86543,-2.33763 -0.55839,-3.93731 -1.99423,-0.72112 -8.18173,-3.45781 -13.75,-6.08153 -10.00315,-4.71339 -10.0896,-4.7841 -7.23543,-5.91773 3.62494,-1.43977 3.27062,-1.76863 -3.92473,-3.64278 -7.51828,-1.95826 -13.95899,-4.82606 -18.33517,-8.16394 l -3.48131,-2.65532 4.42626,-1.92581 4.42626,-1.9258 -5.19304,-1.80861 c -5.41779,-1.88688 -19.3949,-8.94969 -22.74571,-11.4937 -1.89357,-1.43764 -1.87615,-1.53729 0.74739,-4.27568 l 2.68615,-2.80374 -4.74739,-2.27581 c -7.01998,-3.36524 -19.21963,-11.45062 -19.23448,-12.74775 -0.007,-0.62015 0.66208,-1.68775 1.48708,-2.37244 2.53875,-2.10698 1.70721,-3.36851 -4.61406,-7 -3.35082,-1.925 -7.72513,-5.3 -9.72069,-7.5 l -3.62829,-4 4.98152,-0.31 c 7.07869,-0.4405 7.50331,-1.63853 1.63476,-4.61235 -2.89625,-1.46764 -4.91247,-3.11761 -4.67826,-3.82844 0.23627,-0.71709 -1.78222,-2.32361 -4.73865,-3.77148 -3.19287,-1.56367 -5.87468,-3.76267 -7.05638,-5.78602 l -1.90613,-3.26375 4.14207,-1.62705 c 2.27813,-0.89488 4.01652,-1.9658 3.86309,-2.37982 -0.15344,-0.41402 -3.16625,-3.05456 -6.69514,-5.86786 -3.52888,-2.81331 -7.48225,-6.56011 -8.78526,-8.32624 l -2.36911,-3.21114 3.19386,-0.82761 3.19386,-0.82762 -8.35597,-8.3996 c -4.59578,-4.61978 -8.15465,-8.59353 -7.90859,-8.83056 0.24605,-0.23702 2.47237,-0.84281 4.94737,-1.3462 l 4.5,-0.91526 -5.29699,-2.72516 c -5.21565,-2.68331 -7.69814,-5.64546 -5.37913,-6.41847 0.65637,-0.21879 -1.73567,-3.58672 -5.36939,-7.55997 l -6.5531,-7.1654 5.70647,-1.0131 5.70648,-1.01311 -4.40717,-2.87248 c -9.56796,-6.23617 -16.88666,-13.52718 -16.90343,-16.83949 -0.002,-0.406 1.90779,-1.04385 4.24412,-1.41744 l 4.24785,-0.67926 -6.82164,-3.25789 c -6.31258,-3.01477 -6.66135,-3.34367 -4.67364,-4.40746 2.0872,-1.11704 2.00792,-1.2977 -2.80125,-6.38268 -4.28279,-4.52842 -8.19918,-10.29251 -8.19918,-12.06743 0,-0.30231 1.32928,-0.54966 2.95396,-0.54966 l 2.95396,0 -2.20396,-3.55905 c -1.21218,-1.95747 -4.78364,-6.56997 -7.93658,-10.25 -6.08811,-7.10587 -6.65342,-8.19095 -4.26738,-8.19095 0.825,0 1.5,-0.36849 1.5,-0.81887 0,-0.45037 -9.06242,-10.46287 -20.1387,-22.25 -11.07629,-11.78712 -21.53879,-22.97799 -23.25,-24.8686 l -3.1113,-3.43748 3,1.88146 c 1.65,1.0348 15.02661,9.66917 29.72579,19.18748 14.69919,9.5183 27.01417,17.30601 27.36663,17.30601 0.35246,0 0.40548,-0.9 0.11783,-2 -0.28766,-1.1 -0.27711,-2 0.0234,-2 0.30055,0 4.98342,4.35923 10.40638,9.68718 7.68994,7.55522 9.85993,9.21882 9.85993,7.55902 0,-1.17049 0.4582,-2.41135 1.01824,-2.75747 2.46268,-1.52202 13.83688,8.5944 18.84519,16.76127 1.26482,2.0625 2.66291,3.75 3.10683,3.75 0.44393,0 1.10804,-1.6039 1.4758,-3.56421 0.36776,-1.96032 1.03014,-3.42282 1.47193,-3.25 1.63736,0.64047 8.96329,9.85718 12.62095,15.87833 l 3.77682,6.21732 2.14335,-4.20131 2.14335,-4.20132 6.07215,6.9858 c 3.33969,3.84219 7.11194,9.49445 8.38278,12.56059 1.27085,3.06614 2.56532,5.57311 2.87661,5.57105 0.3113,-0.002 1.43075,-2.10609 2.48769,-4.67563 l 1.92169,-4.67187 2.93677,3.42562 c 4.92198,5.74131 9.73147,13.71588 12.20238,20.23264 1.35963,3.58588 2.5623,5.56152 2.85685,4.69299 0.27978,-0.825 1.05631,-3.27395 1.72561,-5.44211 l 1.21691,-3.9421 2.38331,2.9421 c 3.29372,4.06598 6.56776,10.01433 9.36666,17.01755 3.15385,7.89137 3.55205,8.21528 4.93774,4.01662 0.65201,-1.97563 1.6105,-3.59206 2.12996,-3.59206 1.67402,0 6.85902,9.22955 9.1082,16.21304 1.20224,3.73283 2.52692,6.78696 2.94374,6.78696 0.41682,0 1.05333,-1.575 1.41446,-3.5 0.36113,-1.925 1.06633,-3.5 1.56712,-3.5 1.58814,0 8.62185,11.81915 11.03046,18.53513 1.27521,3.55568 2.62432,6.46487 2.99804,6.46487 0.37372,0 1.00496,-1.4625 1.40276,-3.25 0.70403,-3.16358 0.86156,-2.96854 5.92385,7.33427 2.86033,5.82135 5.74506,12.12135 6.41053,14 1.27774,3.60717 1.53944,3.51607 4.62297,-1.60929 0.83715,-1.39149 1.60141,-0.27817 4.23097,6.16338 3.63957,8.91577 6.24732,18.39133 6.24732,22.70035 l 0,2.91851 3.86378,-4.35394 3.86378,-4.35394 2.07176,8.97533 c 1.13947,4.93643 2.35472,11.22533 2.70056,13.97533 0.34583,2.75 0.88094,6.33013 1.18912,7.95584 l 0.56033,2.95584 2.1877,-4.28824 2.18769,-4.28824 2.30638,13.3324 c 2.62382,15.16739 3.41776,17.46648 4.56109,13.20803 0.62012,-2.30968 1.32877,0.0524 3.60076,12.00186 1.55578,8.18262 3.01075,15.05955 3.23327,15.28206 0.22252,0.22252 0.99296,-1.0159 1.71209,-2.75204 1.29339,-3.12253 1.3376,-3.03692 4.09194,7.92401 4.63673,18.45189 13.46563,38.14384 27.53703,61.41848 2.90954,4.8125 4.91969,8.75 4.46699,8.75 -0.4527,0 -3.48061,-2.32188 -6.72868,-5.15974 z m 12.59441,-13.3283 c 0,-17.95002 -0.0908,-18.77213 -3.12118,-28.25 -1.71665,-5.36908 -4.87168,-13.24946 -7.01116,-17.51196 -3.61379,-7.19974 -3.745,-7.75 -1.84802,-7.75 1.66636,0 0.3808,-2.19982 -6.98884,-11.95921 -4.96694,-6.57757 -9.0308,-12.20257 -9.0308,-12.5 0,-0.29744 1.8,-0.54079 4,-0.54079 2.2,0 4,-0.24226 4,-0.53836 0,-0.2961 -2.71217,-4.57193 -6.02704,-9.50186 -10.0056,-14.88046 -12.2925,-19.14116 -10.78648,-20.0962 0.72244,-0.45812 1.87602,-0.83985 2.56352,-0.84827 1.92971,-0.0236 1.63529,-0.81822 -4.25,-11.46999 -3.025,-5.47493 -5.5,-10.06397 -5.5,-10.19785 0,-0.13389 1.37297,0.23519 3.05105,0.82017 3.93618,1.37216 4.82572,0.41258 2.24483,-2.42158 -4.56723,-5.01545 -10.2972,-15.64914 -11.747,-21.80013 -2.01731,-8.55874 -2.06161,-8.43879 1.97834,-5.35737 1.93997,1.47968 3.74286,2.47469 4.00644,2.21112 0.26357,-0.26357 -2.06191,-6.06382 -5.16772,-12.88945 -3.10582,-6.82563 -5.87519,-14.39328 -6.15416,-16.81702 l -0.50723,-4.40678 5.20221,0.61612 c 4.60071,0.54489 5.14153,0.41849 4.67743,-1.09321 -3.22752,-10.51299 -4.51223,-22.51774 -2.54021,-23.73652 0.57418,-0.35487 2.14918,0.0789 3.5,0.96404 3.13547,2.05444 3.12848,1.87369 -0.48094,-12.43482 -1.59524,-6.32389 -2.76067,-11.63775 -2.58983,-11.80859 0.17084,-0.17083 2.00335,0.39666 4.07224,1.2611 2.0689,0.86443 3.90686,1.42647 4.08436,1.24897 0.1775,-0.1775 -0.56046,-2.6471 -1.63991,-5.48799 -2.15301,-5.66625 -4.63031,-18.90845 -3.70958,-19.82919 0.31852,-0.31852 2.63575,0.83587 5.1494,2.56531 2.80456,1.92959 4.57028,2.64212 4.57028,1.84428 0,-0.71508 -1.32719,-5.94343 -2.9493,-11.61856 -4.06528,-14.22275 -4.61965,-18.46556 -2.66777,-20.41744 1.5299,-1.52991 6.51015,-1.18011 9.49912,0.66717 1.66812,1.03096 1.43722,-0.0337 -2.37197,-10.93737 -2.0776,-5.94705 -3.49399,-11.91198 -3.5,-14.73973 -0.009,-4.32796 0.19965,-4.75 2.35037,-4.75 1.29825,0 4.05101,1.14724 6.11724,2.54943 2.06624,1.40218 3.92228,2.38393 4.12454,2.18167 0.20227,-0.20226 -1.20049,-5.69728 -3.11724,-12.21116 -3.98543,-13.5441 -4.49856,-19.51994 -1.67612,-19.51994 0.99488,0 2.68238,0.66069 3.75,1.4682 1.06762,0.8075 2.21611,1.4825 2.55221,1.5 0.33609,0.0175 -0.45054,-4.3557 -1.74807,-9.7182 -3.77129,-15.5862 -2.90272,-18.43133 4.47788,-14.66796 2.01251,1.02618 3.93857,2.00818 4.28012,2.18221 0.34156,0.17403 -0.67094,-4.97984 -2.25,-11.45306 -1.57905,-6.47322 -2.87101,-12.8055 -2.87101,-14.07173 0,-3.32361 2.66579,-3.86267 6.19575,-1.25286 l 3.05138,2.25599 -0.60846,-3.8713 c -1.25722,-7.99899 -1.79612,-20.95249 -0.9618,-23.11901 l 0.86558,-2.24771 3.67572,2.49771 c 2.02165,1.37375 3.85075,2.49772 4.06468,2.49772 0.21393,0 0.18062,-4.68441 -0.074,-10.4098 -0.25463,-5.7254 -0.15359,-12.47289 0.22454,-14.99443 l 0.6875,-4.58462 2.93957,1.5201 c 3.54901,1.83527 3.62314,1.39592 1.43956,-8.53125 -1.68041,-7.6396 -1.89596,-13.63725 -0.52067,-14.48723 0.53864,-0.33289 1.84213,-0.14351 2.89665,0.42086 1.61354,0.86354 2.01762,0.62646 2.55043,-1.49645 1.35102,-5.382887 2.52313,-22.626741 2.54779,-37.482408 0.0242,-14.554196 0.21226,-16.084235 2.95052,-24 l 2.92469,-8.454771 0.0753,13.11901 c 0.10581,18.438517 4.86334,43.254398 10.71047,55.867129 1.27841,2.75762 2.81538,7.37636 3.41549,10.26386 0.84945,4.08722 1.50797,5.25 2.97321,5.25 2.7584,0 3.96399,5.60298 3.97053,18.45295 l 0.006,10.95295 3.86147,-3.77062 3.86146,-3.77062 0.63854,3.19267 c 1.15555,5.77776 0.66926,12.66645 -1.34857,19.10358 -1.0929,3.4865 -1.9929,6.49052 -2,6.6756 -0.007,0.18508 1.87575,-1.05242 4.1841,-2.75 7.66196,-5.63467 8.65712,-3.78056 5.91068,11.01226 -2.82924,15.23645 -2.91156,15.90123 -1.96944,15.90123 0.47373,0 0.86133,-0.43963 0.86133,-0.97695 0,-0.53732 1.1634,-1.73924 2.58534,-2.67093 2.2009,-1.44208 2.71908,-1.48268 3.48469,-0.27305 1.89216,2.98953 0.42812,18.54395 -2.56243,27.22407 -1.68187,4.88169 -1.40364,5.43788 1.65024,3.29886 1.25794,-0.8811 3.31204,-1.602 4.56467,-1.602 1.93569,0 2.27749,0.52468 2.27749,3.49602 0,3.98427 -3.12582,13.70468 -6.70588,20.85341 -1.33572,2.66719 -2.26332,5.01471 -2.06132,5.2167 0.202,0.202 2.56146,-1.19274 5.24326,-3.09943 4.99584,-3.55191 8.43814,-4.43563 8.63463,-2.2167 0.28555,3.22467 -0.49649,6.56533 -2.70708,11.56387 -1.32199,2.98925 -2.40361,6.97634 -2.40361,8.86022 0,1.88388 -0.61799,4.64038 -1.37331,6.12557 -3.70731,7.28964 -3.18779,7.77386 3.06772,2.85926 3.26153,-2.56241 6.23955,-4.65892 6.61783,-4.65892 1.53821,0 0.46377,4.96676 -2.81224,13 -1.9065,4.675 -3.47393,8.6125 -3.48318,8.75 -0.009,0.1375 1.33318,0.25 2.98318,0.25 1.65,0 3,0.30854 3,0.68564 0,0.37711 -1.82679,2.85211 -4.05953,5.5 -4.00347,4.74789 -4.17043,6.21189 -0.3816,3.34616 1.06762,-0.8075 2.72863,-1.4825 3.69113,-1.5 2.78986,-0.0507 2.17025,4.49978 -2.11393,15.52472 -2.12516,5.46891 -4.18981,10.98535 -4.5881,12.25875 l -0.72418,2.31527 4.04827,-2.06527 c 8.71339,-4.44524 8.74951,-3.33901 0.43388,13.29017 -5.34382,10.68628 -6.02323,13.45309 -2.56207,10.43359 0.96587,-0.84262 2.76863,-2.05569 4.00613,-2.69571 3.59511,-1.85937 2.84752,0.61496 -2.69747,8.9279 -2.72112,4.07944 -4.80853,7.55612 -4.63869,7.72595 0.16983,0.16983 1.48026,-0.13661 2.91207,-0.68098 4.05135,-1.54032 4.07065,0.19627 0.0901,8.10068 l -3.65089,7.24969 3.86746,-2.89178 c 2.1271,-1.59048 4.94065,-3.70921 6.25232,-4.70828 1.31167,-0.99908 2.74992,-1.8165 3.1961,-1.8165 1.20987,0 -1.69215,9.18123 -6.5587,20.75 -2.37148,5.6375 -3.96983,10.25 -3.55188,10.25 0.41795,0 1.94559,-0.93266 3.39476,-2.07258 1.44913,-1.13992 2.63482,-1.83815 2.63482,-1.55162 0,1.99719 -5.63551,17.94673 -7.60596,21.52627 -2.39007,4.34183 -2.48309,6.58698 -0.17737,4.28126 2.19602,-2.19602 2.78333,-1.20619 2.78333,4.69094 0,7.04579 -1.67622,12.1524 -6.42646,19.57822 -1.95178,3.05113 -3.34016,5.54751 -3.08529,5.54751 0.25488,0 1.93679,-0.89832 3.73758,-1.99626 4.39218,-2.67791 4.82145,-2.54881 4.14412,1.24626 -0.64199,3.59702 -4.93707,11.20316 -13.03278,23.07973 -2.93544,4.30635 -5.33717,7.98265 -5.33717,8.16956 0,0.1869 1.80484,-0.36914 4.01075,-1.23565 2.20592,-0.86651 4.2428,-1.34342 4.52641,-1.05981 0.75181,0.75181 -10.78317,21.11578 -15.49848,27.36117 -3.95195,5.23432 -3.97257,5.30404 -1.07726,3.64236 5.60903,-3.21914 5.23495,-0.17619 -0.98652,8.02476 -11.93627,15.73404 -18.21163,28.97339 -22.48717,47.44202 -5.1218,22.12409 -5.54098,23.32586 -8.13615,23.32586 l -2.35158,0 0,-18.48804 z"
     id="path2987"
     inkscape:connector-curvature="0" />
</svg>
