<?xml version="1.0" encoding="UTF-8" standalone="no"?>
<!-- Created with Inkscape (http://www.inkscape.org/) -->

<svg
   xmlns:dc="http://purl.org/dc/elements/1.1/"
   xmlns:cc="http://creativecommons.org/ns#"
   xmlns:rdf="http://www.w3.org/1999/02/22-rdf-syntax-ns#"
   xmlns:svg="http://www.w3.org/2000/svg"
   xmlns="http://www.w3.org/2000/svg"
   xmlns:sodipodi="http://sodipodi.sourceforge.net/DTD/sodipodi-0.dtd"
   xmlns:inkscape="http://www.inkscape.org/namespaces/inkscape"
   width="210mm"
   height="297mm"
   viewBox="0 0 744.09448819 1052.3622047"
   id="svg2"
   version="1.1"
   inkscape:version="0.91 r13725"
   inkscape:export-filename="/home/malajanka/Desktop/grafika_pirati/placky_mmm2015/placicka_modra_filajova.png"
   inkscape:export-xdpi="135.04514"
   inkscape:export-ydpi="135.04514"
   sodipodi:docname="placicky_zahrada.svg">
  <defs
     id="defs4" />
  <sodipodi:namedview
     id="base"
     pagecolor="#ffffff"
     bordercolor="#666666"
     borderopacity="1.0"
     inkscape:pageopacity="0.0"
     inkscape:pageshadow="2"
     inkscape:zoom="0.62"
     inkscape:cx="355.28461"
     inkscape:cy="649.03226"
     inkscape:document-units="px"
     inkscape:current-layer="layer1"
     showgrid="false"
     showguides="false"
     inkscape:guide-bbox="true"
     inkscape:window-width="1366"
     inkscape:window-height="742"
     inkscape:window-x="0"
     inkscape:window-y="0"
     inkscape:window-maximized="1">
    <sodipodi:guide
       position="346.7742,388.70969"
       orientation="1,0"
       id="guide4144" />
    <sodipodi:guide
       position="346.7742,695.1613"
       orientation="0,1"
       id="guide4146" />
  </sodipodi:namedview>
  <metadata
     id="metadata7">
    <rdf:RDF>
      <cc:Work
         rdf:about="">
        <dc:format>image/svg+xml</dc:format>
        <dc:type
           rdf:resource="http://purl.org/dc/dcmitype/StillImage" />
        <dc:title></dc:title>
      </cc:Work>
    </rdf:RDF>
  </metadata>
  <g
     inkscape:label="Layer 1"
     inkscape:groupmode="layer"
     id="layer1">
    <circle
       style="opacity:1;fill:#ffffff;fill-opacity:1;stroke:#1a1a1a;stroke-width:1.20000005;stroke-miterlimit:4;stroke-dasharray:none;stroke-dashoffset:0;stroke-opacity:1"
       id="path4136"
       cx="347.19354"
       cy="356.39447"
       r="266.93549" />
    <path
       style="fill:#00ef00;fill-opacity:1;opacity:0.347"
       d="M 327.76391,611.29618 C 263.30783,605.7317 206.81849,578.9164 162.26392,532.73387 125.18425,494.29937 101.92295,447.09691 93.59398,393.38698 c -2.584296,-16.66501 -3.12278,-52.74975 -1.02221,-68.5 7.74522,-58.07433 32.92752,-109.54862 73.31396,-149.85853 39.99036,-39.91462 87.98148,-63.85542 145.87818,-72.77267 8.56048,-1.31849 17.50685,-1.77123 35,-1.77123 24.88454,0 35.57062,1.10342 57.00026,5.88573 41.96438,9.36491 83.53132,31.13533 115.00186,60.23149 26.02665,24.06299 43.58688,47.6828 58.57315,78.78521 11.70781,24.29832 19.11156,48.66115 23.09604,76 2.63955,18.11082 2.39599,53.41701 -0.49669,72 -4.37929,28.13316 -11.32469,49.9796 -24.16184,76 -12.46567,25.26741 -25.71316,44.02159 -45.47137,64.37279 -47.8452,49.28115 -109.96877,76.34621 -178.04141,77.5664 -11,0.19717 -22.025,0.18368 -24.5,-0.03 z m 47.6009,-26.85656 c 76.27584,-10.06026 140.62094,-55.02253 175.96686,-122.95994 17.36596,-33.37861 25.43224,-66.8692 25.43224,-105.5927 0,-64.00125 -24.2357,-121.05353 -70.43533,-165.80896 -18.71623,-18.13116 -36.65478,-30.58144 -60.72898,-42.14904 -31.34956,-15.0634 -62.6414,-22.042 -98.83569,-22.042 -37.48362,0 -68.23437,7.1001 -101.5,23.43552 -23.71182,11.64393 -39.39046,22.66911 -58.37126,41.0465 -20.46504,19.81445 -34.10215,38.5252 -46.65873,64.01798 -10.55806,21.43531 -16.60927,40.0628 -21.1155,65 -2.60219,14.40038 -2.60219,58.59962 0,73 4.50356,24.92244 10.55274,43.54944 21.10896,65 12.41423,25.22609 26.7257,44.80377 46.99921,64.29356 36.78159,35.35973 80.27706,56.06301 132.53732,63.08607 10.81237,1.45304 43.56537,1.26041 55.6009,-0.32699 z M 251.8034,536.18992 c -14.2024,-39.21706 -16.48179,-73.4134 -6.41148,-96.18751 l 2.38096,-5.38458 -0.25448,-107.11542 -0.25449,-107.11543 -5.72821,-0.29925 c -3.15052,-0.16459 -8.10052,0.13311 -11,0.66156 -2.89949,0.52845 -5.49679,0.72367 -5.77179,0.43383 -1.12565,-1.18641 6.41986,-5.93189 14.19857,-8.92969 l 8.30143,-3.19924 0.27029,-20.58361 0.27029,-20.5836 10.97971,0 10.97971,0 0,17.83675 0,17.83676 10.25,-1.79601 c 22.38188,-3.92177 38.67274,-5.24078 64.75,-5.24254 27.6214,-0.002 40.84,1.27553 61.88318,5.98018 68.57778,15.33201 105.23321,57.77103 105.27441,121.88486 0.0134,20.88136 -4.77622,33.82878 -17.44994,47.17092 -20.09547,21.1553 -49.21952,32.5578 -115.70765,45.30125 -67.95412,13.02443 -80.14404,16.53279 -95.48855,27.48241 -14.03152,10.01268 -25.10035,27.09434 -29.18922,45.04542 -2.42546,10.64831 -2.43308,36.60212 -0.0139,47.43243 0.91309,4.08783 1.49344,7.59916 1.28966,7.80294 -0.20378,0.20378 -1.8051,-3.59082 -3.55848,-8.43243 z M 285.95423,401.232 c 32.8455,-21.07971 47.31584,-35.93053 53.7652,-55.17887 5.81907,-17.3672 6.50686,-43.8904 1.57221,-60.62892 -8.25831,-28.01255 -28.66795,-47.60252 -60.96532,-58.51691 -4.91567,-1.66118 -9.30317,-3.02032 -9.75,-3.02032 -0.44682,0 -0.81241,42.075 -0.81241,93.5 0,51.425 0.25793,93.5 0.57317,93.5 0.31525,0 7.34296,-4.34474 15.61715,-9.65498 z"
       id="path4138"
       inkscape:connector-curvature="0" />
    <path
       style="fill:#d748ff;fill-opacity:1"
       d="m 385.64929,450.48844 c -1.12403,0.81009 -2.71968,1.96275 -3.5459,2.56145 -0.8262,0.59871 -1.98805,1.33412 -2.5819,1.63425 -1.08603,0.5489 -3.37705,1.18463 -3.77592,1.04778 -0.31118,-0.10676 -3.93309,1.44331 -4.90481,2.0991 l -0.82797,0.5588 0.11309,-0.95488 c 0.0935,-0.78942 0.0673,-0.92784 -0.15127,-0.79889 -0.78167,0.46123 -2.6194,1.73086 -3.31569,2.2907 -0.85236,0.68532 -0.89398,0.66686 -0.62337,-0.27666 0.0961,-0.33496 0.10874,-0.60903 0.0282,-0.60903 -0.23764,0 -1.70374,1.10127 -3.07724,2.31149 -1.33714,1.17818 -1.38939,1.16683 -0.96145,-0.20878 0.0473,-0.1519 -0.012,-0.19268 -0.15651,-0.10768 -0.55819,0.32831 -2.60368,1.95385 -3.96279,3.14921 l -1.47692,1.29898 0.13865,-1.00813 0.13865,-1.00812 -1.3271,1.17656 c -0.7299,0.64711 -1.7754,1.73026 -2.32334,2.40699 l -0.99623,1.23045 -0.0939,-0.68225 -0.0939,-0.68224 -1.23774,1.55475 c -2.1168,2.65896 -4.35749,5.78525 -4.23454,5.90819 0.12951,0.12951 5.51454,-1.05199 7.4738,-1.63978 0.68061,-0.20419 1.52415,-0.5658 1.87454,-0.80358 0.49984,-0.33921 1.08123,-0.47641 2.69932,-0.63703 1.13425,-0.11258 2.30579,-0.29962 2.60343,-0.41562 0.52503,-0.20464 0.53116,-0.22196 0.20561,-0.5817 -0.33017,-0.36484 -0.3193,-0.37077 0.67937,-0.37062 1.36611,1.8e-4 4.11321,-0.55776 4.11321,-0.83543 0,-0.1213 -0.17749,-0.41108 -0.39444,-0.64393 -0.21694,-0.23285 -0.36481,-0.45113 -0.3286,-0.48506 0.0362,-0.034 0.78407,-0.20335 1.66192,-0.37651 1.86695,-0.36824 4.13105,-1.05348 4.13105,-1.25027 0,-0.0755 -0.22074,-0.31081 -0.49051,-0.52301 l -0.49049,-0.38582 0.53743,-0.20286 c 1.64157,-0.61961 5.34822,-2.32748 5.532,-2.5489 0.17087,-0.20589 0.0943,-0.30899 -0.37639,-0.50691 l -0.59087,-0.24845 1.64796,-0.97626 c 2.42646,-1.43744 4.07066,-2.70941 5.97004,-4.6185 1.67376,-1.68232 5.12191,-6.02805 4.93292,-6.21704 -0.0537,-0.0537 -1.01733,0.56514 -2.14137,1.37524 z m -80.2519,0.60964 c 0,0.45248 1.38143,2.87775 2.43734,4.27903 1.29495,1.71854 2.73833,3.09019 5.10956,4.85565 1.00795,0.75045 1.59527,1.31074 1.53599,1.46525 -0.12033,0.31355 1.03015,1.11466 3.07553,2.14158 0.85203,0.42778 1.54914,0.83089 1.54914,0.89582 0,0.0649 -0.13753,0.21859 -0.30562,0.34151 -0.26453,0.19342 -0.19302,0.2764 0.53173,0.61707 0.46054,0.21648 1.48493,0.58177 2.27643,0.81175 1.20074,0.34889 1.40234,0.4624 1.21726,0.68541 -0.17304,0.2085 -0.16254,0.30492 0.0478,0.43846 0.37761,0.23979 2.54378,1.04532 3.55564,1.32223 1.03809,0.28409 1.31545,0.49852 0.94275,0.72887 -0.15106,0.0934 -0.23486,0.20216 -0.18621,0.24178 0.14448,0.11767 3.21513,0.87259 4.07867,1.00275 0.45126,0.068 0.79804,0.22272 0.79804,0.35604 0,0.26784 0.57933,0.45995 1.40831,0.467 0.58484,0.005 1.1648,0.15403 4.31882,1.10997 1.03276,0.31301 2.25799,0.62439 2.72273,0.69197 0.46475,0.0676 0.97174,0.20076 1.12665,0.29597 0.46856,0.28796 -13.24579,-0.20083 -14.22393,-0.50695 -0.31845,-0.0997 -0.4225,-0.0575 -0.4225,0.17134 0,0.41329 -0.22072,0.38554 -2.06553,-0.25976 -0.87784,-0.30707 -1.96993,-0.55944 -2.42685,-0.56081 l -0.83078,-0.003 0.45523,0.49276 c 0.41181,0.44578 0.41941,0.48231 0.0797,0.38311 -3.8141,-1.11368 -4.10087,-1.17152 -4.6892,-0.94575 -0.27033,0.10373 -0.25706,0.17127 0.11056,0.56258 0.22977,0.24459 0.36765,0.49482 0.30641,0.55606 -0.0613,0.0613 -1.03407,-0.0652 -2.16181,-0.28092 -3.07231,-0.58779 -3.44962,-0.51041 -2.19127,0.44938 0.79063,0.60304 0.76044,0.72197 -0.11866,0.46738 -1.05314,-0.305 -4.49401,-0.54871 -5.00486,-0.35448 -0.55758,0.21198 -0.48005,0.55696 0.19963,0.88824 0.27839,0.1357 0.45729,0.32582 0.39754,0.4225 -0.0598,0.0967 -1.22326,0.17706 -2.58557,0.17864 -2.60561,0.003 -3.19077,0.1336 -2.78576,0.6216 0.12669,0.15266 0.43813,0.3297 0.69208,0.39344 0.51919,0.13031 0.61681,0.57237 0.16471,0.74585 -0.16335,0.0627 -0.63295,0.11399 -1.04353,0.11399 -0.41058,0 -1.33483,0.0971 -2.05389,0.2159 -1.10551,0.18258 -1.29142,0.26619 -1.20402,0.54153 0.11915,0.37541 -0.14737,0.46708 -1.93091,0.66411 -0.64778,0.0716 -1.21914,0.19702 -1.26968,0.2788 -0.0505,0.0818 0.1691,0.33454 0.4881,0.56168 0.319,0.22715 0.51012,0.477 0.4247,0.55523 -0.0854,0.0782 -1.00028,0.24027 -2.03305,0.36009 -2.54941,0.29578 -2.9105,0.37932 -2.9105,0.67333 0,0.13921 0.21833,0.42485 0.48517,0.63476 0.26686,0.2099 0.43825,0.45758 0.38089,0.55038 -0.0574,0.0928 -0.61355,0.21493 -1.23599,0.27137 -0.69446,0.063 -1.61501,0.32879 -2.38263,0.68801 -1.12741,0.52757 -1.21765,0.60972 -0.91377,0.83192 0.29908,0.21869 0.0745,0.35336 -1.98847,1.19239 -1.2791,0.52021 -3.65971,1.43942 -5.29024,2.04268 -2.47881,0.91709 -2.89421,1.1236 -2.53496,1.26018 0.2363,0.0898 1.02115,0.10737 1.74408,0.039 1.17873,-0.11154 7.26877,-1.05606 8.60297,-1.33426 0.44038,-0.0918 0.51877,-0.0524 0.46943,0.23598 -0.0922,0.53927 0.72889,0.52852 2.53029,-0.0331 1.86899,-0.58272 2.64026,-0.56838 2.7282,0.0507 0.0829,0.58392 0.49264,0.54312 2.43072,-0.24204 1.63145,-0.66093 3.2364,-1.02649 3.2364,-0.73715 0,0.0834 -0.13503,0.30077 -0.30006,0.48313 -0.16503,0.18236 -0.23985,0.42897 -0.16627,0.54803 0.18646,0.3017 1.16129,0.0924 3.16096,-0.67865 2.0614,-0.79486 2.35438,-0.8183 1.82559,-0.14604 -0.21405,0.27211 -0.38918,0.57892 -0.38918,0.68177 0,0.29929 1.16144,0.0308 2.60195,-0.60141 0.72807,-0.31955 1.57579,-0.63141 1.8838,-0.69301 0.49993,-0.1 0.5489,-0.0694 0.45631,0.2846 -0.15016,0.57419 0.45776,0.51985 1.80767,-0.16158 0.60817,-0.307 1.53524,-0.72138 2.06016,-0.92084 l 0.9544,-0.36264 0,0.46405 c 0,0.5884 0.22969,0.52529 2.59102,-0.71194 1.95557,-1.02462 2.42597,-1.14211 2.09474,-0.52321 -0.26031,0.4864 -0.0793,0.70033 0.34622,0.40911 0.17578,-0.12031 1.19248,-0.77242 2.25932,-1.44913 l 1.93973,-1.23039 -0.129,0.58733 c -0.15444,0.70314 -0.16054,0.70597 1.75981,-0.81626 1.94933,-1.54519 2.83453,-1.95088 2.53103,-1.15999 -0.0556,0.14482 -0.0606,0.2633 -0.0111,0.2633 0.0494,0 0.84011,-0.56107 1.757,-1.24684 2.59536,-1.94112 4.1965,-2.6314 10.79247,-4.65289 2.08526,-0.63908 2.1781,-0.68944 2.18701,-1.18628 0.008,-0.43937 -0.13036,-0.58518 -0.90231,-0.95172 -1.16039,-0.55098 -4.20827,-3.6075 -5.37294,-5.38816 -0.926,-1.41576 -1.8213,-2.45076 -2.38542,-2.75764 -0.33239,-0.18082 -0.34503,-0.13069 -0.21977,0.87184 l 0.1329,1.06369 -0.7191,-0.36981 c -1.10866,-0.57016 -2.20466,-1.4213 -3.83099,-2.97508 -1.37288,-1.31164 -1.48859,-1.38376 -1.48859,-0.92783 0,0.27189 -0.0478,0.49435 -0.10623,0.49435 -0.27604,0 -0.996,-0.48519 -1.67763,-1.13059 -0.82028,-0.77667 -2.10841,-1.68603 -2.3883,-1.68603 -0.0984,0 -0.12176,0.24921 -0.0528,0.56332 0.081,0.36898 0.0498,0.56332 -0.0904,0.56332 -0.1178,0 -1.32862,-0.62222 -2.69071,-1.38272 -2.84646,-1.58927 -3.32152,-1.78273 -3.32152,-1.35266 0,0.46221 -0.69276,0.35554 -2.24496,-0.34565 -0.77916,-0.35197 -1.95151,-0.82954 -2.60522,-1.06125 -0.65371,-0.23172 -1.68902,-0.74475 -2.30067,-1.14008 -1.25065,-0.80834 -4.03532,-3.40812 -4.70699,-4.39447 -0.42203,-0.61975 -0.91085,-0.86572 -0.91085,-0.45831 z m 61.8718,20.2534 c -1.13604,0.28544 -2.2629,0.58406 -2.50415,0.6636 -0.39685,0.13086 -0.41919,0.10836 -0.23471,-0.23635 0.11214,-0.20953 0.20389,-0.46437 0.20389,-0.5663 0,-0.19944 -3.62017,0.69324 -4.78482,1.17986 -0.89591,0.37434 -0.89872,0.37393 -0.74552,-0.10875 0.10169,-0.3204 0.0659,-0.38003 -0.17331,-0.28825 -2.48991,0.95547 -5.57599,1.56752 -9.22444,1.82946 -1.65242,0.11863 -3.03369,0.24335 -3.06949,0.27717 -0.11528,0.10888 2.27032,0.78824 4.57947,1.30414 1.92662,0.43043 2.55515,0.67301 4.42585,1.70817 2.23278,1.23553 3.08047,1.49678 2.84853,0.8779 -0.099,-0.26421 -0.0703,-0.28758 0.14673,-0.11923 3.19653,2.47994 4.87035,3.37599 4.87035,2.60725 0,-0.15492 0.0413,-0.28167 0.0918,-0.28167 0.0505,0 1.02317,0.63374 2.1615,1.40832 2.14431,1.4591 2.7494,1.70184 2.57443,1.03276 -0.054,-0.20656 -0.0575,-0.37555 -0.008,-0.37555 0.0497,0 0.65441,0.36229 1.34379,0.80508 2.91893,1.87486 3.74611,2.21266 3.5462,1.44821 -0.054,-0.20655 -0.0541,-0.37555 -1.8e-4,-0.37555 0.0539,0 0.65859,0.37006 1.34377,0.82234 1.59562,1.05327 2.72216,1.61874 3.22486,1.61874 0.34827,0 0.38182,-0.0735 0.26871,-0.58848 l -0.12925,-0.58847 0.64842,0.49458 c 0.35665,0.27203 0.75656,0.49459 0.88874,0.49459 0.13216,0 0.91557,0.338 1.74094,0.7511 2.07305,1.03759 2.19741,1.01142 1.68311,-0.35423 -0.11574,-0.30736 -0.28476,-0.36804 2.45334,0.88087 1.20108,0.54784 2.49356,1.04635 2.87217,1.10779 0.65206,0.10581 0.67731,0.0911 0.47895,-0.27958 -0.11516,-0.21521 -0.2094,-0.43059 -0.2094,-0.47863 0,-0.0481 0.8462,0.19989 1.88046,0.55098 1.87595,0.6368 3.18943,0.81726 3.18943,0.4382 0,-0.11006 -0.0943,-0.37637 -0.20962,-0.59179 -0.16818,-0.31424 -0.15888,-0.36969 0.0469,-0.28043 2.68016,1.16213 2.98896,1.23101 3.82043,0.85216 0.39031,-0.17783 0.60504,-0.1621 1.11656,0.0818 0.34835,0.16611 0.9376,0.35909 1.30947,0.42885 0.65862,0.12356 0.67612,0.11172 0.67612,-0.45738 0,-0.70802 0.094,-0.71661 2.23232,-0.20399 0.8663,0.20768 2.09153,0.37134 2.72273,0.36371 2.89959,-0.0351 4.75196,0.0412 6.80942,0.2805 1.22357,0.14231 2.25881,0.22463 2.30052,0.18291 0.15329,-0.15329 -2.07011,-1.01471 -5.06966,-1.96413 -1.69423,-0.53627 -3.44272,-1.21162 -3.88553,-1.50078 -0.45318,-0.29594 -1.21571,-0.58223 -1.74443,-0.65495 -0.7771,-0.10688 -0.90162,-0.17464 -0.72092,-0.39234 0.17916,-0.21588 -0.0472,-0.38498 -1.25997,-0.94115 -1.92644,-0.88346 -2.82509,-1.19946 -3.41102,-1.19946 -0.57942,0 -0.40935,-0.20915 0.39697,-0.48821 l 0.59681,-0.20655 -0.93887,-0.59807 c -1.15313,-0.73455 -2.49253,-1.14825 -3.71761,-1.14825 -0.79569,0 -0.91247,-0.0464 -0.82609,-0.3286 0.0553,-0.18073 0.18602,-0.60322 0.29044,-0.93887 0.18902,-0.60752 0.18694,-0.61027 -0.45989,-0.61027 -0.35736,0 -1.15167,-0.21125 -1.76508,-0.46944 -0.62308,-0.26225 -1.48248,-0.46943 -1.94721,-0.46943 l -0.83186,0 0.63843,-0.63844 c 0.35114,-0.35114 0.63844,-0.7357 0.63844,-0.85457 0,-0.11887 -0.31688,-0.35908 -0.70416,-0.53379 -0.54265,-0.24479 -1.24883,-0.31733 -3.07877,-0.31626 l -2.37462,10e-4 0.73159,-0.8738 c 0.40236,-0.4806 0.73159,-0.93466 0.73159,-1.00904 0,-0.0744 -1.26352,-0.10442 -2.80782,-0.0668 l -2.80779,0.0685 0.49386,-0.5155 c 0.27164,-0.28351 0.4298,-0.57974 0.3515,-0.65828 -0.0783,-0.0785 -0.9637,-0.1713 -1.9675,-0.20616 -1.63959,-0.0569 -3.01034,0.0902 -4.32682,0.46436 l -0.45531,0.12941 0.54684,-0.71693 0.54682,-0.71694 -1.96928,0.1073 c -1.08311,0.059 -2.34157,0.24206 -2.79661,0.40679 -0.96674,0.34997 -1.10577,0.29039 -0.69401,-0.29747 0.62566,-0.89325 0.31516,-0.91463 -2.6097,-0.17973 z m -21.57889,3.00917 c -0.32304,0.35696 -0.27961,0.44096 1.46274,2.82924 2.24798,3.08136 3.52533,5.24465 5.49078,9.29905 1.10302,2.27537 1.68975,3.75507 2.04289,5.15211 0.7522,2.97581 1.02821,3.51042 1.54534,2.99328 0.1556,-0.1556 0.31759,0.14869 0.62035,1.16531 0.51544,1.73076 1.2317,3.36409 1.47524,3.36409 0.10243,0 0.2127,-0.27461 0.24506,-0.61026 0.0488,-0.50573 0.19581,-0.22427 0.85836,1.64303 0.79187,2.23174 1.39844,3.47383 1.69643,3.47383 0.0849,0 0.23397,-0.22515 0.33137,-0.50032 0.15785,-0.446 0.24368,-0.2706 0.79051,1.61557 0.67021,2.31174 1.31747,3.95467 1.55802,3.95467 0.24562,0 0.38861,-0.33597 0.52126,-1.22468 l 0.12391,-0.83026 0.91137,2.01329 c 0.50125,1.10731 1.05085,2.51335 1.22133,3.12455 0.17046,0.61119 0.40662,1.14348 0.52479,1.18288 0.11818,0.0394 0.3644,-0.31992 0.54716,-0.79848 l 0.33228,-0.87009 0.68642,1.94051 c 1.35766,3.83814 2.06232,4.42641 2.69661,2.25117 l 0.25124,-0.86164 0.62143,1.87158 c 1.43486,4.32148 1.97734,4.9411 2.73608,3.12517 0.15029,-0.35973 0.31397,-0.61335 0.36374,-0.56358 0.0498,0.0498 0.50237,0.92884 1.00581,1.95351 0.98422,2.00326 1.7246,2.95801 2.21946,2.86203 0.17471,-0.0339 0.42982,-0.4202 0.58502,-0.88591 l 0.27518,-0.82583 0.92637,1.89895 c 0.89965,1.84416 1.76694,3.03875 2.20617,3.03875 0.11827,0 0.359,-0.25295 0.53493,-0.56213 0.17592,-0.30918 0.36212,-0.56195 0.41376,-0.56172 0.0516,1.9e-4 0.4524,0.58162 0.89061,1.29197 1.56691,2.54009 2.49925,3.07835 2.96124,1.70963 l 0.22185,-0.65721 0.52409,1.03276 c 1.64061,3.23287 2.9132,4.12362 2.9132,2.03909 0,-0.70847 0.28861,-0.54903 0.44791,0.24743 0.17214,0.86068 0.66143,1.56141 0.91393,1.30889 0.14178,-0.14179 0.51356,0.22752 1.27379,1.26538 0.59047,0.80609 1.22509,1.52376 1.41032,1.59483 0.3381,0.12974 0.63993,-0.13983 0.64554,-0.57657 0.008,-0.63378 0.48281,-0.25816 1.85216,1.46565 0.82994,1.04478 1.69525,2.03008 1.92292,2.18955 0.37792,0.2647 0.43525,0.26084 0.65846,-0.0444 0.22497,-0.30768 0.34982,-0.24073 1.56429,0.83862 1.41727,1.25959 3.41082,3.39205 6.66985,7.1346 3.03636,3.48683 3.09357,3.5354 2.21193,1.87775 -2.55845,-4.81031 -3.64078,-6.77024 -5.04101,-9.12851 -1.04116,-1.75348 -1.57364,-2.84228 -1.57364,-3.21771 0,-0.52793 -1.24492,-2.68237 -1.71943,-2.97564 -0.10423,-0.0644 0.071,-0.27555 0.38941,-0.46919 0.31841,-0.19363 0.57893,-0.45668 0.57893,-0.58454 0,-0.12786 -0.51297,-0.7206 -1.13993,-1.31718 -0.62694,-0.5966 -1.04943,-1.08471 -0.93887,-1.08471 0.39087,0 0.19457,-0.57433 -0.26839,-0.78526 -0.51367,-0.23405 -0.62589,-0.52917 -0.2012,-0.52917 0.14756,0 0.40088,-0.13261 0.56297,-0.29469 0.3652,-0.36522 0.22214,-0.66688 -0.93328,-1.96782 -0.46023,-0.5182 -0.8368,-1.01044 -0.8368,-1.09386 0,-0.0834 -0.44361,-0.39746 -0.98581,-0.69788 l -0.98583,-0.54622 0.8433,-0.0939 c 0.58401,-0.065 0.86133,-0.18881 0.90187,-0.40256 0.0648,-0.34139 -2.98844,-3.53884 -3.38371,-3.54359 -0.16545,-0.002 -0.15233,-0.059 0.0425,-0.1849 0.15492,-0.10011 0.6015,-0.18332 0.99243,-0.1849 0.65787,-0.003 0.69544,-0.0315 0.50489,-0.38754 -0.11323,-0.21157 -0.70584,-0.77293 -1.31692,-1.24748 -0.6111,-0.47455 -1.16331,-1.02741 -1.22715,-1.22857 -0.0639,-0.20115 -0.42482,-0.49924 -0.80215,-0.66241 l -0.68606,-0.29666 0.84499,-0.1713 c 1.0526,-0.21339 1.47412,-0.56625 1.14714,-0.96025 -0.12591,-0.1517 -0.83688,-0.63449 -1.57996,-1.07287 -0.74308,-0.43837 -1.42989,-0.93111 -1.52625,-1.09497 -0.0964,-0.16386 -0.41324,-0.5368 -0.70416,-0.82875 -0.29092,-0.29196 -0.52894,-0.56172 -0.52894,-0.59948 0,-0.0378 0.35912,-0.0946 0.79804,-0.12638 1.09302,-0.0791 1.03314,-0.44287 -0.21661,-1.31599 -0.55807,-0.38988 -1.17048,-0.9651 -1.36094,-1.27828 -0.32212,-0.5297 -0.60816,-0.71737 -1.56767,-1.02854 -0.31135,-0.10097 -0.32741,-0.14763 -0.0939,-0.27286 0.15491,-0.0831 0.59853,-0.20799 0.98582,-0.27754 0.40823,-0.0733 0.70415,-0.23425 0.70415,-0.38294 0,-0.31795 -0.87911,-1.06953 -2.03507,-1.73988 -0.48149,-0.27922 -0.90714,-0.58475 -0.94586,-0.67894 -0.18653,-0.45368 -0.83108,-0.87542 -1.33789,-0.87542 -0.81094,0 -0.69384,-0.32049 0.17044,-0.46651 0.40359,-0.0682 0.88833,-0.23698 1.07723,-0.3751 0.33248,-0.24312 0.33234,-0.26337 -0.004,-0.63561 -0.19139,-0.21146 -0.95074,-0.61473 -1.6875,-0.89616 -0.73674,-0.28142 -1.46626,-0.66196 -1.62118,-0.84564 -0.15491,-0.18369 -0.73941,-0.53477 -1.29887,-0.78017 l -1.01721,-0.4462 1.16955,-0.23009 c 1.70772,-0.33597 1.52137,-0.70168 -0.75795,-1.48751 -1.53724,-0.52998 -1.79498,-0.67674 -1.71638,-0.9773 0.0704,-0.26936 -0.0353,-0.382 -0.44358,-0.4725 -0.90573,-0.20078 -0.92706,-0.22283 -0.41346,-0.42756 1.14806,-0.45766 0.83187,-0.75933 -2.00626,-1.91414 -1.02408,-0.41667 -1.93284,-0.82847 -2.01946,-0.91509 -0.0866,-0.0866 0.10129,-0.20925 0.41757,-0.27251 1.24604,-0.2492 0.44432,-0.73991 -3.4351,-2.10251 l -2.03853,-0.716 0.7133,-0.36595 c 0.64007,-0.32837 0.68033,-0.39006 0.39212,-0.60082 -0.17666,-0.12918 -1.22805,-0.41867 -2.33639,-0.64331 -1.10837,-0.22464 -2.31093,-0.48099 -2.6724,-0.56965 -0.59662,-0.14636 -0.61826,-0.1735 -0.23471,-0.29444 1.01618,-0.32041 0.27447,-0.72888 -3.0421,-1.67529 -4.60159,-1.31311 -12.70986,-5.84898 -14.54994,-8.13942 -0.30762,-0.38291 -0.922,-1.15415 -1.36529,-1.71386 -0.44329,-0.55972 -0.89665,-1.04763 -1.00746,-1.08427 -0.11082,-0.0366 -0.3513,0.0989 -0.53441,0.30126 z m -3.78844,2.11233 c -0.6099,0.53288 -2.04192,1.90892 -3.18227,3.05786 -3.10425,3.12768 -5.58657,4.60325 -8.27556,4.91929 l -1.04215,0.12249 0.52041,0.41495 0.52041,0.41496 -1.02145,0.37674 c -0.56179,0.20721 -1.57069,0.55856 -2.24198,0.7808 -1.7102,0.56617 -1.83284,0.66912 -1.13932,0.95638 0.74435,0.30832 0.72583,0.43895 -0.10485,0.73933 -0.37447,0.13541 -1.53633,0.64929 -2.58191,1.14195 -1.87834,0.88507 -1.89457,0.89834 -1.35863,1.11121 0.68068,0.27035 0.61414,0.3321 -0.73696,0.68402 -1.41175,0.36771 -2.62115,0.90621 -3.44289,1.53298 l -0.6537,0.4986 0.83114,0.36162 0.83114,0.36162 -0.97512,0.33961 c -1.01733,0.3543 -3.64188,1.68053 -4.27107,2.15823 -0.35556,0.26995 -0.3523,0.28866 0.14034,0.80286 l 0.50439,0.52647 -0.89144,0.42734 c -1.31818,0.63191 -3.60896,2.15014 -3.61175,2.39371 -10e-4,0.11645 0.12432,0.31691 0.27924,0.44548 0.47671,0.39564 0.32057,0.63253 -0.8664,1.31442 -0.62921,0.36148 -1.45059,0.99521 -1.82531,1.40832 l -0.6813,0.7511 0.9354,0.0582 c 1.3292,0.0827 1.40893,0.30767 0.30697,0.86608 -0.54384,0.27558 -0.92244,0.58541 -0.87846,0.71889 0.0444,0.13465 -0.33466,0.43631 -0.8898,0.70818 -0.59954,0.29362 -1.10311,0.70653 -1.32501,1.08647 l -0.35792,0.61285 0.77778,0.30552 c 0.42777,0.16803 0.7542,0.36913 0.72539,0.44687 -0.0288,0.0777 -0.59455,0.57357 -1.25718,1.10183 -0.66264,0.52827 -1.40498,1.23183 -1.64965,1.56347 l -0.44486,0.60296 0.59972,0.15541 0.59973,0.1554 -1.56904,1.57724 c -0.86297,0.86748 -1.53123,1.61364 -1.48503,1.65815 0.0462,0.0445 0.46424,0.15826 0.92899,0.25278 l 0.84498,0.17187 -0.99463,0.51172 c -0.97937,0.50386 -1.44552,1.06007 -1.01007,1.20522 0.12325,0.0411 -0.32592,0.6735 -1.00824,1.41958 l -1.2305,1.34548 1.07153,0.19023 1.07153,0.19024 -0.82755,0.53937 c -1.79662,1.171 -3.17089,2.54007 -3.17404,3.16203 -3.7e-4,0.0762 0.35823,0.19602 0.79694,0.26617 l 0.79764,0.12754 -1.28093,0.61175 c -1.18535,0.5661 -1.25084,0.62786 -0.87759,0.82762 0.39192,0.20975 0.37703,0.24367 -0.52601,1.1985 -0.8042,0.85033 -1.5396,1.93268 -1.5396,2.26596 0,0.0568 0.24961,0.10321 0.55468,0.10321 l 0.55468,0 -0.41385,0.6683 c -0.22761,0.36756 -0.89824,1.23368 -1.49029,1.92469 -1.14319,1.3343 -1.24935,1.53805 -0.8013,1.53805 0.15491,0 0.28165,0.0692 0.28165,0.15377 0,0.0846 -1.70169,1.96467 -3.78153,4.17799 -2.07985,2.21332 -4.04444,4.31468 -4.36577,4.66969 l -0.58422,0.64548 0.56333,-0.35329 c 0.30982,-0.19431 2.82162,-1.81563 5.58175,-3.60293 2.76014,-1.7873 5.07258,-3.24963 5.13877,-3.24963 0.0662,0 0.0761,0.169 0.0221,0.37555 -0.054,0.20655 -0.052,0.37555 0.004,0.37555 0.0564,0 0.93576,-0.81855 1.95406,-1.81901 1.44397,-1.41868 1.85144,-1.73106 1.85144,-1.41939 0,0.21978 0.086,0.45279 0.1912,0.51778 0.46242,0.2858 2.59822,-1.61381 3.53865,-3.14734 0.2375,-0.38729 0.50003,-0.70416 0.58338,-0.70416 0.0834,0 0.20806,0.30117 0.27713,0.66927 0.0691,0.3681 0.19343,0.64272 0.27639,0.61026 0.30745,-0.12026 1.68307,-1.85092 2.36989,-2.98154 l 0.7092,-1.16746 0.40246,0.7889 0.40246,0.7889 1.1402,-1.31176 c 0.62712,-0.72146 1.33545,-1.78282 1.57408,-2.35855 0.23863,-0.57575 0.4817,-1.04649 0.54015,-1.04611 0.0584,3.7e-4 0.26866,0.39548 0.46713,0.87796 l 0.36084,0.87727 0.55145,-0.64325 c 0.92423,-1.07807 1.82733,-2.57549 2.2913,-3.79918 0.25531,-0.67334 0.48114,-1.04431 0.53645,-0.88122 0.0525,0.15491 0.19834,0.61476 0.32402,1.02189 l 0.22851,0.74022 0.44752,-0.55245 c 0.61848,-0.76349 1.23326,-1.88044 1.75883,-3.19546 0.59221,-1.4818 0.66698,-1.54263 0.92718,-0.75423 0.12243,0.37098 0.30241,0.67451 0.39995,0.67451 0.31433,0 1.28795,-1.73308 1.71029,-3.0444 0.22575,-0.70093 0.47449,-1.27442 0.55276,-1.27442 0.0783,0 0.19779,0.29574 0.2656,0.65721 0.0678,0.36146 0.20023,0.65721 0.29427,0.65721 0.29821,0 1.61896,-2.21934 2.07124,-3.48043 0.23945,-0.66767 0.49278,-1.21394 0.56296,-1.21394 0.0702,0 0.1887,0.27462 0.2634,0.61026 0.1322,0.59405 0.16178,0.55742 1.11234,-1.37718 0.53711,-1.0931 1.07879,-2.27609 1.20374,-2.62885 0.23993,-0.67733 0.28907,-0.66023 0.86808,0.30218 0.15719,0.26129 0.3007,0.0522 0.79447,-1.15732 0.68342,-1.67416 1.17309,-3.45343 1.17309,-4.26256 l 0,-0.54802 0.72552,0.81756 0.72552,0.81756 0.38902,-1.68534 c 0.21397,-0.92694 0.44216,-2.10783 0.5071,-2.62421 0.0649,-0.51639 0.16542,-1.18864 0.22329,-1.49391 l 0.10521,-0.55503 0.4108,0.80522 0.41079,0.80522 0.43308,-2.50348 c 0.49269,-2.84806 0.64177,-3.27977 0.85646,-2.48013 0.11644,0.43369 0.24951,-0.01 0.67613,-2.25365 0.29214,-1.53649 0.56534,-2.82781 0.60713,-2.86959 0.0418,-0.0418 0.18645,0.19076 0.32148,0.51677 0.24287,0.58633 0.25117,0.57025 0.76837,-1.48794 0.87066,-3.4648 2.5285,-7.16245 5.17076,-11.53284 0.54634,-0.90366 0.92379,-1.64303 0.83878,-1.64303 -0.085,0 -0.65357,0.43599 -1.26347,0.96887 z m 2.36491,2.50272 c 0,3.37056 -0.0171,3.52494 -0.58608,5.30464 -0.32234,1.00817 -0.91478,2.48791 -1.31651,3.2883 -0.67859,1.35193 -0.70322,1.45526 -0.34702,1.45526 0.3129,0 0.0715,0.41307 -1.31233,2.24563 -0.93266,1.23511 -1.69575,2.29134 -1.69575,2.34719 0,0.0559 0.33799,0.10154 0.7511,0.10154 0.4131,0 0.7511,0.0455 0.7511,0.10109 0,0.0556 -0.50928,0.8585 -1.13173,1.78422 -1.8788,2.79417 -2.30822,3.59422 -2.02543,3.77355 0.13566,0.086 0.35227,0.15771 0.48137,0.15929 0.36235,0.004 0.30707,0.15364 -0.79805,2.15378 -0.56802,1.02805 -1.03276,1.88976 -1.03276,1.91489 0,0.0252 0.25781,-0.0442 0.57291,-0.154 0.73912,-0.25766 0.90615,-0.0775 0.42152,0.45471 -0.85761,0.94178 -1.93355,2.93851 -2.20579,4.09351 -0.37879,1.60711 -0.38712,1.5846 0.37149,1.00598 0.36428,-0.27785 0.70281,-0.46468 0.7523,-0.41519 0.0495,0.0495 -0.38717,1.13863 -0.97036,2.42031 -0.5832,1.28168 -1.10322,2.70269 -1.1556,3.15781 l -0.0953,0.82749 0.97685,-0.1157 c 0.8639,-0.10231 0.96545,-0.0786 0.8783,0.20528 -0.60604,1.97408 -0.84728,4.22827 -0.47698,4.45712 0.10781,0.0666 0.40356,-0.0149 0.65721,-0.18102 0.58876,-0.38577 0.58745,-0.35183 -0.0903,2.33495 -0.29955,1.18746 -0.51839,2.18527 -0.48631,2.21735 0.0321,0.0321 0.37618,-0.0745 0.76467,-0.2368 0.38848,-0.16232 0.73361,-0.26786 0.76694,-0.23453 0.0333,0.0333 -0.10525,0.49706 -0.30794,1.03051 -0.40428,1.06398 -0.86945,3.55053 -0.69656,3.72342 0.0598,0.0598 0.49493,-0.15695 0.96693,-0.4817 0.52662,-0.36233 0.85819,-0.49613 0.85819,-0.34631 0,0.13427 -0.24923,1.11602 -0.55381,2.18167 -0.76336,2.67068 -0.86746,3.46737 -0.50095,3.83388 0.28729,0.28728 1.22245,0.2216 1.7837,-0.12528 0.31324,-0.19358 0.26987,0.006 -0.4454,2.05376 -0.39012,1.11671 -0.65608,2.23678 -0.65721,2.76775 -10e-4,0.81269 0.0375,0.89194 0.44134,0.89194 0.24378,0 0.76068,-0.21543 1.14866,-0.47873 0.38799,-0.26329 0.73651,-0.44764 0.77449,-0.40966 0.038,0.038 -0.22542,1.06981 -0.58534,2.29295 -0.74837,2.54324 -0.84471,3.66535 -0.31473,3.66535 0.18681,0 0.50368,-0.12405 0.70415,-0.27569 0.20048,-0.15162 0.41613,-0.27837 0.47924,-0.28166 0.0631,-0.003 -0.0846,0.81789 -0.32824,1.82483 -0.70815,2.9267 -0.54505,3.46095 0.84083,2.75428 0.37791,-0.19269 0.73957,-0.37709 0.8037,-0.40977 0.0641,-0.0327 -0.12598,0.9351 -0.42249,2.1506 -0.29651,1.21551 -0.5391,2.40455 -0.5391,2.64232 0,0.62408 0.50056,0.72531 1.1634,0.23525 l 0.57297,-0.42362 -0.11426,0.72693 c -0.23606,1.50201 -0.33725,3.93436 -0.18059,4.34117 l 0.16253,0.42206 0.69021,-0.469 c 0.37961,-0.25796 0.72307,-0.46901 0.76325,-0.46901 0.0402,0 0.034,0.87962 -0.0139,1.9547 -0.0478,1.07508 -0.0288,2.34209 0.0422,2.81557 l 0.1291,0.86088 0.55197,-0.28543 c 0.66642,-0.34462 0.68034,-0.26213 0.27031,1.60195 -0.31553,1.43452 -0.356,2.56073 -0.0978,2.72033 0.10114,0.0625 0.3459,0.027 0.54391,-0.079 0.30299,-0.16215 0.37886,-0.11764 0.47891,0.28099 0.25368,1.01078 0.47378,4.24873 0.47841,7.03825 0.004,2.73291 0.0399,3.02021 0.55404,4.5066 l 0.54918,1.58759 0.0141,-2.46342 c 0.0199,-3.46229 0.91321,-8.12208 2.01115,-10.49044 0.24006,-0.5178 0.52866,-1.38509 0.64135,-1.92729 0.15951,-0.76747 0.28315,-0.98582 0.55829,-0.98582 0.51796,0 0.74434,-1.0521 0.74557,-3.465 l 10e-4,-2.05669 0.72509,0.70803 0.72509,0.70803 0.11989,-0.5995 c 0.21699,-1.08492 0.12568,-2.37844 -0.25322,-3.58717 -0.20522,-0.65468 -0.37421,-1.21875 -0.37555,-1.25351 -10e-4,-0.0348 0.35222,0.19762 0.78567,0.51638 1.43872,1.05805 1.62559,0.70989 1.10988,-2.06783 -0.53127,-2.86102 -0.54672,-2.98584 -0.36981,-2.98584 0.089,0 0.16173,0.0826 0.16173,0.18344 0,0.1009 0.21846,0.32658 0.48547,0.50153 0.41327,0.27079 0.51057,0.27841 0.65432,0.0513 0.35531,-0.56137 0.0804,-3.4821 -0.48115,-5.112 -0.31581,-0.91666 -0.26357,-1.0211 0.30987,-0.61945 0.23621,0.16545 0.62191,0.30082 0.85713,0.30082 0.36348,0 0.42766,-0.0985 0.42766,-0.65647 0,-0.74814 -0.58695,-2.57339 -1.2592,-3.91574 -0.25081,-0.50083 -0.42499,-0.94163 -0.38706,-0.97956 0.0379,-0.0379 0.48098,0.22396 0.98455,0.58199 0.93809,0.66696 1.58447,0.8329 1.62137,0.41624 0.0536,-0.60551 -0.0932,-1.2328 -0.50832,-2.1714 -0.24824,-0.56131 -0.45134,-1.30998 -0.45134,-1.66373 0,-0.35374 -0.11604,-0.87134 -0.25787,-1.15022 -0.69614,-1.36882 -0.59859,-1.45974 0.57603,-0.5369 0.61244,0.48115 1.17164,0.87483 1.24267,0.87483 0.28884,0 0.0871,-0.93264 -0.52807,-2.44108 -0.35799,-0.87784 -0.65232,-1.61721 -0.65405,-1.64303 -10e-4,-0.0258 0.25033,-0.047 0.56016,-0.047 0.30983,0 0.56333,-0.0579 0.56333,-0.12875 0,-0.0708 -0.34303,-0.53555 -0.76228,-1.03276 -0.75175,-0.89153 -0.78311,-1.16643 -0.0717,-0.62832 0.20046,0.15162 0.51236,0.27837 0.69309,0.28166 0.52387,0.01 0.40752,-0.84494 -0.39694,-2.91515 -0.39905,-1.02692 -0.78674,-2.06277 -0.86153,-2.30188 l -0.13598,-0.43475 0.76016,0.3878 c 1.63616,0.8347 1.64294,0.62699 0.0815,-2.49556 -1.00344,-2.00661 -1.13102,-2.52615 -0.4811,-1.95916 0.18137,0.15822 0.51988,0.386 0.75226,0.50619 0.67506,0.34914 0.53468,-0.11548 -0.50653,-1.67644 -0.51095,-0.76602 -0.90292,-1.41885 -0.87102,-1.45074 0.0319,-0.0319 0.27795,0.0256 0.54681,0.12787 0.76075,0.28924 0.76437,-0.0369 0.0169,-1.5211 l -0.68554,-1.36131 0.7262,0.543 c 0.39942,0.29866 0.92773,0.6965 1.17403,0.8841 0.2463,0.1876 0.51637,0.34109 0.60015,0.34109 0.22719,0 -0.31774,-1.724 -1.23156,-3.89633 -0.4453,-1.05858 -0.74543,-1.92468 -0.66695,-1.92468 0.0785,0 0.36533,0.17512 0.63745,0.38917 0.27211,0.21405 0.49475,0.34516 0.49475,0.29136 0,-0.37503 -1.0582,-3.36994 -1.4282,-4.04209 -0.4488,-0.81529 -0.46627,-1.23687 -0.0333,-0.80392 0.41236,0.41236 0.52264,0.2265 0.52264,-0.88083 0,-1.32303 -0.31476,-2.28192 -1.20673,-3.6763 -0.36649,-0.57292 -0.62719,-1.04168 -0.57934,-1.04168 0.0478,0 0.36368,0.16868 0.70182,0.37484 0.82474,0.50285 0.90535,0.47861 0.77816,-0.23401 -0.12054,-0.67543 -0.92705,-2.10368 -2.44722,-4.33379 -0.5512,-0.80863 -1.00219,-1.49894 -1.00219,-1.53404 0,-0.0351 0.33891,0.0693 0.75312,0.23202 0.41422,0.16271 0.79669,0.25226 0.84995,0.19901 0.14117,-0.14117 -2.02481,-3.96501 -2.91023,-5.13774 -0.74207,-0.98287 -0.74595,-0.99596 -0.20228,-0.68394 1.05323,0.60447 0.98299,0.0331 -0.18525,-1.50685 -2.24132,-2.95446 -3.41968,-5.44047 -4.22252,-8.90841 -0.96174,-4.15435 -1.04045,-4.38001 -1.52776,-4.38001 l -0.44157,0 0,3.47158 z"
       id="path2987"
       inkscape:connector-curvature="0" />
    <text
       xml:space="preserve"
       style="font-style:normal;font-variant:normal;font-weight:900;font-stretch:normal;font-size:70px;line-height:104.99999523%;font-family:'M+ 1p';-inkscape-font-specification:'M+ 1p Heavy';text-align:center;letter-spacing:0px;word-spacing:0px;text-anchor:middle;fill:#007850;fill-opacity:1;stroke:none;stroke-width:1px;stroke-linecap:butt;stroke-linejoin:miter;stroke-opacity:1;"
       x="345.25494"
       y="277.39447"
       id="text4154"
       sodipodi:linespacing="105%"><tspan
         sodipodi:role="line"
         x="345.25494"
         y="277.39447"
         id="tspan4164">ZAHRADA</tspan><tspan
         sodipodi:role="line"
         x="345.25494"
         y="350.89447"
         id="tspan4170">NENÍ</tspan><tspan
         sodipodi:role="line"
         x="345.25494"
         y="424.39447"
         id="tspan4172">ZLOČIN</tspan></text>
  </g>
</svg>
